%TF.GenerationSoftware,KiCad,Pcbnew,(5.1.7)-1*%
%TF.CreationDate,2020-11-22T12:34:15-07:00*%
%TF.ProjectId,cem3340_board_mount,63656d33-3334-4305-9f62-6f6172645f6d,rev?*%
%TF.SameCoordinates,Original*%
%TF.FileFunction,Copper,L1,Top*%
%TF.FilePolarity,Positive*%
%FSLAX46Y46*%
G04 Gerber Fmt 4.6, Leading zero omitted, Abs format (unit mm)*
G04 Created by KiCad (PCBNEW (5.1.7)-1) date 2020-11-22 12:34:15*
%MOMM*%
%LPD*%
G01*
G04 APERTURE LIST*
%TA.AperFunction,ComponentPad*%
%ADD10O,1.950000X1.700000*%
%TD*%
%TA.AperFunction,WasherPad*%
%ADD11C,4.000000*%
%TD*%
%TA.AperFunction,ComponentPad*%
%ADD12C,1.800000*%
%TD*%
%TA.AperFunction,ComponentPad*%
%ADD13O,1.600000X1.600000*%
%TD*%
%TA.AperFunction,ComponentPad*%
%ADD14C,1.600000*%
%TD*%
%TA.AperFunction,ComponentPad*%
%ADD15O,1.700000X1.950000*%
%TD*%
%TA.AperFunction,ComponentPad*%
%ADD16O,1.600000X2.400000*%
%TD*%
%TA.AperFunction,ComponentPad*%
%ADD17R,1.600000X2.400000*%
%TD*%
%TA.AperFunction,ComponentPad*%
%ADD18O,1.727200X1.727200*%
%TD*%
%TA.AperFunction,ComponentPad*%
%ADD19R,1.727200X1.727200*%
%TD*%
%TA.AperFunction,ComponentPad*%
%ADD20C,1.440000*%
%TD*%
%TA.AperFunction,ComponentPad*%
%ADD21R,1.600000X1.600000*%
%TD*%
%TA.AperFunction,ViaPad*%
%ADD22C,1.600000*%
%TD*%
%TA.AperFunction,Conductor*%
%ADD23C,0.500000*%
%TD*%
G04 APERTURE END LIST*
D10*
%TO.P,J1,3*%
%TO.N,GND*%
X125000000Y-114000000D03*
%TO.P,J1,2*%
%TO.N,PWM_IN*%
X125000000Y-111500000D03*
%TO.P,J1,1*%
%TO.N,CV_IN*%
%TA.AperFunction,ComponentPad*%
G36*
G01*
X124275000Y-108150000D02*
X125725000Y-108150000D01*
G75*
G02*
X125975000Y-108400000I0J-250000D01*
G01*
X125975000Y-109600000D01*
G75*
G02*
X125725000Y-109850000I-250000J0D01*
G01*
X124275000Y-109850000D01*
G75*
G02*
X124025000Y-109600000I0J250000D01*
G01*
X124025000Y-108400000D01*
G75*
G02*
X124275000Y-108150000I250000J0D01*
G01*
G37*
%TD.AperFunction*%
%TD*%
D11*
%TO.P,PWM_CV1,*%
%TO.N,*%
X195000000Y-110500000D03*
X195000000Y-101700000D03*
D12*
%TO.P,PWM_CV1,1*%
%TO.N,PWM_IN*%
X202000000Y-108600000D03*
%TO.P,PWM_CV1,2*%
%TO.N,Net-(PWM_CV1-Pad2)*%
X202000000Y-106100000D03*
%TO.P,PWM_CV1,3*%
%TO.N,GND*%
X202000000Y-103600000D03*
%TD*%
D13*
%TO.P,R7,2*%
%TO.N,GND*%
X155020000Y-83940000D03*
D14*
%TO.P,R7,1*%
%TO.N,Net-(R11-Pad2)*%
X155020000Y-94100000D03*
%TD*%
D13*
%TO.P,R11,2*%
%TO.N,Net-(R11-Pad2)*%
X149940000Y-94100000D03*
D14*
%TO.P,R11,1*%
%TO.N,+12V*%
X149940000Y-83940000D03*
%TD*%
D13*
%TO.P,R13,2*%
%TO.N,Net-(Pulse_Width1-Pad3)*%
X170260000Y-76320000D03*
D14*
%TO.P,R13,1*%
%TO.N,GND*%
X170260000Y-66160000D03*
%TD*%
%TO.P,C1,2*%
%TO.N,+12V*%
X193000000Y-97500000D03*
%TO.P,C1,1*%
%TO.N,GND*%
X198000000Y-97500000D03*
%TD*%
D11*
%TO.P,Coarse_Tune1,*%
%TO.N,*%
X130000000Y-89500000D03*
X130000000Y-80700000D03*
D12*
%TO.P,Coarse_Tune1,1*%
%TO.N,+12V*%
X137000000Y-87600000D03*
%TO.P,Coarse_Tune1,2*%
%TO.N,Net-(Coarse_Tune1-Pad2)*%
X137000000Y-85100000D03*
%TO.P,Coarse_Tune1,3*%
%TO.N,Net-(Coarse_Tune1-Pad3)*%
X137000000Y-82600000D03*
%TD*%
D11*
%TO.P,Pulse_Width1,*%
%TO.N,*%
X165000000Y-89500000D03*
X165000000Y-80700000D03*
D12*
%TO.P,Pulse_Width1,1*%
%TO.N,Net-(Pulse_Width1-Pad1)*%
X172000000Y-87600000D03*
%TO.P,Pulse_Width1,2*%
%TO.N,Net-(Pulse_Width1-Pad2)*%
X172000000Y-85100000D03*
%TO.P,Pulse_Width1,3*%
%TO.N,Net-(Pulse_Width1-Pad3)*%
X172000000Y-82600000D03*
%TD*%
D13*
%TO.P,R15,2*%
%TO.N,+12V*%
X144860000Y-78860000D03*
D14*
%TO.P,R15,1*%
%TO.N,Net-(Pulse_Width1-Pad1)*%
X155020000Y-78860000D03*
%TD*%
D13*
%TO.P,R16,2*%
%TO.N,Net-(R16-Pad2)*%
X189310000Y-78860000D03*
D14*
%TO.P,R16,1*%
%TO.N,Net-(R16-Pad1)*%
X179150000Y-78860000D03*
%TD*%
D13*
%TO.P,R5,2*%
%TO.N,Net-(R16-Pad1)*%
X179150000Y-83940000D03*
D14*
%TO.P,R5,1*%
%TO.N,PWM*%
X179150000Y-94100000D03*
%TD*%
%TO.P,J2,1*%
%TO.N,SQUARE_OUT*%
%TA.AperFunction,ComponentPad*%
G36*
G01*
X199830000Y-68475000D02*
X199830000Y-69925000D01*
G75*
G02*
X199580000Y-70175000I-250000J0D01*
G01*
X198380000Y-70175000D01*
G75*
G02*
X198130000Y-69925000I0J250000D01*
G01*
X198130000Y-68475000D01*
G75*
G02*
X198380000Y-68225000I250000J0D01*
G01*
X199580000Y-68225000D01*
G75*
G02*
X199830000Y-68475000I0J-250000D01*
G01*
G37*
%TD.AperFunction*%
D15*
%TO.P,J2,2*%
%TO.N,TRI_OUT*%
X196480000Y-69200000D03*
%TO.P,J2,3*%
%TO.N,SAW_OUT*%
X193980000Y-69200000D03*
%TO.P,J2,4*%
%TO.N,GND*%
X191480000Y-69200000D03*
%TD*%
D16*
%TO.P,U1,14*%
%TO.N,Net-(R16-Pad1)*%
X185500000Y-86480000D03*
%TO.P,U1,7*%
%TO.N,SQUARE_OUT*%
X200740000Y-94100000D03*
%TO.P,U1,13*%
%TO.N,Net-(R16-Pad2)*%
X188040000Y-86480000D03*
%TO.P,U1,6*%
%TO.N,SQUARE_OUT*%
X198200000Y-94100000D03*
%TO.P,U1,12*%
%TO.N,Net-(R1-Pad1)*%
X190580000Y-86480000D03*
%TO.P,U1,5*%
%TO.N,SQUARE*%
X195660000Y-94100000D03*
%TO.P,U1,11*%
%TO.N,-12V*%
X193120000Y-86480000D03*
%TO.P,U1,4*%
%TO.N,+12V*%
X193120000Y-94100000D03*
%TO.P,U1,10*%
%TO.N,TRI*%
X195660000Y-86480000D03*
%TO.P,U1,3*%
%TO.N,SAW*%
X190580000Y-94100000D03*
%TO.P,U1,9*%
%TO.N,TRI_OUT*%
X198200000Y-86480000D03*
%TO.P,U1,2*%
%TO.N,SAW_OUT*%
X188040000Y-94100000D03*
%TO.P,U1,8*%
%TO.N,TRI_OUT*%
X200740000Y-86480000D03*
D17*
%TO.P,U1,1*%
%TO.N,SAW_OUT*%
X185500000Y-94100000D03*
%TD*%
D16*
%TO.P,U2,16*%
%TO.N,+12V*%
X152480000Y-99180000D03*
%TO.P,U2,8*%
%TO.N,SAW*%
X170260000Y-106800000D03*
%TO.P,U2,15*%
%TO.N,CV*%
X155020000Y-99180000D03*
%TO.P,U2,7*%
%TO.N,Net-(U2-Pad7)*%
X167720000Y-106800000D03*
%TO.P,U2,14*%
%TO.N,Net-(R10-Pad1)*%
X157560000Y-99180000D03*
%TO.P,U2,6*%
%TO.N,Net-(U2-Pad6)*%
X165180000Y-106800000D03*
%TO.P,U2,13*%
%TO.N,Net-(R11-Pad2)*%
X160100000Y-99180000D03*
%TO.P,U2,5*%
%TO.N,PWM*%
X162640000Y-106800000D03*
%TO.P,U2,12*%
%TO.N,GND*%
X162640000Y-99180000D03*
%TO.P,U2,4*%
%TO.N,SQUARE*%
X160100000Y-106800000D03*
%TO.P,U2,11*%
%TO.N,Net-(C6-Pad1)*%
X165180000Y-99180000D03*
%TO.P,U2,3*%
%TO.N,Net-(CAL1-Pad2)*%
X157560000Y-106800000D03*
%TO.P,U2,10*%
%TO.N,TRI*%
X167720000Y-99180000D03*
%TO.P,U2,2*%
%TO.N,Net-(R9-Pad2)*%
X155020000Y-106800000D03*
%TO.P,U2,9*%
%TO.N,Net-(U2-Pad9)*%
X170260000Y-99180000D03*
D17*
%TO.P,U2,1*%
%TO.N,Net-(R8-Pad2)*%
X152480000Y-106800000D03*
%TD*%
D13*
%TO.P,R14,2*%
%TO.N,GND*%
X180000000Y-111660000D03*
D14*
%TO.P,R14,1*%
%TO.N,SQUARE*%
X180000000Y-101500000D03*
%TD*%
D13*
%TO.P,R12,2*%
%TO.N,Net-(CAL1-Pad2)*%
X142320000Y-99180000D03*
D14*
%TO.P,R12,1*%
%TO.N,-12V*%
X132160000Y-99180000D03*
%TD*%
%TO.P,R10,1*%
%TO.N,Net-(R10-Pad1)*%
X160100000Y-76320000D03*
D13*
%TO.P,R10,2*%
%TO.N,GND*%
X160100000Y-66160000D03*
%TD*%
%TO.P,R9,2*%
%TO.N,Net-(R9-Pad2)*%
X148670000Y-111880000D03*
D14*
%TO.P,R9,1*%
%TO.N,Net-(CAL1-Pad2)*%
X158830000Y-111880000D03*
%TD*%
D13*
%TO.P,R8,2*%
%TO.N,Net-(R8-Pad2)*%
X147400000Y-102990000D03*
D14*
%TO.P,R8,1*%
%TO.N,Net-(CAL1-Pad1)*%
X137240000Y-102990000D03*
%TD*%
D13*
%TO.P,R6,2*%
%TO.N,Net-(Pulse_Width1-Pad2)*%
X175340000Y-85160000D03*
D14*
%TO.P,R6,1*%
%TO.N,Net-(R1-Pad1)*%
X175340000Y-75000000D03*
%TD*%
D13*
%TO.P,R4,2*%
%TO.N,CV*%
X170260000Y-61080000D03*
D14*
%TO.P,R4,1*%
%TO.N,Net-(C3-Pad2)*%
X160100000Y-61080000D03*
%TD*%
D13*
%TO.P,R3,2*%
%TO.N,Net-(Coarse_Tune1-Pad2)*%
X144860000Y-83940000D03*
D14*
%TO.P,R3,1*%
%TO.N,CV*%
X144860000Y-94100000D03*
%TD*%
D13*
%TO.P,R2,2*%
%TO.N,CV_IN*%
X185500000Y-61080000D03*
D14*
%TO.P,R2,1*%
%TO.N,CV*%
X175340000Y-61080000D03*
%TD*%
D13*
%TO.P,R1,2*%
%TO.N,Net-(PWM_CV1-Pad2)*%
X185500000Y-66160000D03*
D14*
%TO.P,R1,1*%
%TO.N,Net-(R1-Pad1)*%
X175340000Y-66160000D03*
%TD*%
D18*
%TO.P,J3,10*%
%TO.N,+12V*%
X114040000Y-90160000D03*
%TO.P,J3,9*%
X111500000Y-90160000D03*
%TO.P,J3,8*%
%TO.N,GND*%
X114040000Y-87620000D03*
%TO.P,J3,7*%
X111500000Y-87620000D03*
%TO.P,J3,6*%
X114040000Y-85080000D03*
%TO.P,J3,5*%
X111500000Y-85080000D03*
%TO.P,J3,4*%
X114040000Y-82540000D03*
%TO.P,J3,3*%
X111500000Y-82540000D03*
%TO.P,J3,2*%
%TO.N,-12V*%
X114040000Y-80000000D03*
D19*
%TO.P,J3,1*%
X111500000Y-80000000D03*
%TD*%
D20*
%TO.P,CAL1,3*%
%TO.N,Net-(CAL1-Pad2)*%
X142320000Y-109340000D03*
%TO.P,CAL1,2*%
X139780000Y-109340000D03*
%TO.P,CAL1,1*%
%TO.N,Net-(CAL1-Pad1)*%
X137240000Y-109340000D03*
%TD*%
D14*
%TO.P,C6,1*%
%TO.N,Net-(C6-Pad1)*%
X165180000Y-94100000D03*
%TO.P,C6,2*%
%TO.N,GND*%
X160180000Y-94100000D03*
%TD*%
%TO.P,C5,2*%
%TO.N,-12V*%
X111500000Y-70500000D03*
D21*
%TO.P,C5,1*%
%TO.N,GND*%
X114000000Y-70500000D03*
%TD*%
D14*
%TO.P,C4,2*%
%TO.N,GND*%
X114000000Y-100500000D03*
D21*
%TO.P,C4,1*%
%TO.N,+12V*%
X111500000Y-100500000D03*
%TD*%
D14*
%TO.P,C3,2*%
%TO.N,Net-(C3-Pad2)*%
X156210000Y-61080000D03*
%TO.P,C3,1*%
%TO.N,GND*%
X151210000Y-61080000D03*
%TD*%
%TO.P,C2,2*%
%TO.N,-12V*%
X193000000Y-83000000D03*
%TO.P,C2,1*%
%TO.N,GND*%
X188000000Y-83000000D03*
%TD*%
D22*
%TO.N,+12V*%
X186000000Y-97500000D03*
X186000000Y-117500000D03*
%TO.N,-12V*%
X190000000Y-74500000D03*
X189500000Y-62500000D03*
%TO.N,CV_IN*%
X140560000Y-89520000D03*
X140560000Y-81900000D03*
%TO.N,SAW_OUT*%
X182960000Y-94100000D03*
X182960000Y-72510000D03*
%TD*%
D23*
%TO.N,+12V*%
X186000000Y-97500000D02*
X186000000Y-117500000D01*
%TO.N,-12V*%
X189500000Y-74000000D02*
X189500000Y-62500000D01*
X190000000Y-74500000D02*
X189500000Y-74000000D01*
%TO.N,CV_IN*%
X140560000Y-89520000D02*
X140560000Y-81900000D01*
%TO.N,SAW_OUT*%
X182960000Y-94100000D02*
X182960000Y-72510000D01*
%TD*%
M02*
