%TF.GenerationSoftware,KiCad,Pcbnew,(5.1.7)-1*%
%TF.CreationDate,2020-11-22T12:34:15-07:00*%
%TF.ProjectId,cem3340_board_mount,63656d33-3334-4305-9f62-6f6172645f6d,rev?*%
%TF.SameCoordinates,Original*%
%TF.FileFunction,Copper,L2,Bot*%
%TF.FilePolarity,Positive*%
%FSLAX46Y46*%
G04 Gerber Fmt 4.6, Leading zero omitted, Abs format (unit mm)*
G04 Created by KiCad (PCBNEW (5.1.7)-1) date 2020-11-22 12:34:15*
%MOMM*%
%LPD*%
G01*
G04 APERTURE LIST*
%TA.AperFunction,NonConductor*%
%ADD10C,0.375000*%
%TD*%
%TA.AperFunction,ComponentPad*%
%ADD11O,1.950000X1.700000*%
%TD*%
%TA.AperFunction,WasherPad*%
%ADD12C,4.000000*%
%TD*%
%TA.AperFunction,ComponentPad*%
%ADD13C,1.800000*%
%TD*%
%TA.AperFunction,ComponentPad*%
%ADD14O,1.600000X1.600000*%
%TD*%
%TA.AperFunction,ComponentPad*%
%ADD15C,1.600000*%
%TD*%
%TA.AperFunction,ComponentPad*%
%ADD16O,1.700000X1.950000*%
%TD*%
%TA.AperFunction,ComponentPad*%
%ADD17O,1.600000X2.400000*%
%TD*%
%TA.AperFunction,ComponentPad*%
%ADD18R,1.600000X2.400000*%
%TD*%
%TA.AperFunction,ComponentPad*%
%ADD19O,1.727200X1.727200*%
%TD*%
%TA.AperFunction,ComponentPad*%
%ADD20R,1.727200X1.727200*%
%TD*%
%TA.AperFunction,ComponentPad*%
%ADD21C,1.440000*%
%TD*%
%TA.AperFunction,ComponentPad*%
%ADD22R,1.600000X1.600000*%
%TD*%
%TA.AperFunction,ViaPad*%
%ADD23C,1.600000*%
%TD*%
%TA.AperFunction,Conductor*%
%ADD24C,0.500000*%
%TD*%
%TA.AperFunction,Conductor*%
%ADD25C,0.254000*%
%TD*%
%TA.AperFunction,Conductor*%
%ADD26C,0.100000*%
%TD*%
G04 APERTURE END LIST*
D10*
X122042857Y-60459642D02*
X122257142Y-60388214D01*
X122328571Y-60316785D01*
X122400000Y-60173928D01*
X122400000Y-59959642D01*
X122328571Y-59816785D01*
X122257142Y-59745357D01*
X122114285Y-59673928D01*
X121542857Y-59673928D01*
X121542857Y-61173928D01*
X122042857Y-61173928D01*
X122185714Y-61102500D01*
X122257142Y-61031071D01*
X122328571Y-60888214D01*
X122328571Y-60745357D01*
X122257142Y-60602500D01*
X122185714Y-60531071D01*
X122042857Y-60459642D01*
X121542857Y-60459642D01*
X123685714Y-59673928D02*
X123685714Y-60459642D01*
X123614285Y-60602500D01*
X123471428Y-60673928D01*
X123185714Y-60673928D01*
X123042857Y-60602500D01*
X123685714Y-59745357D02*
X123542857Y-59673928D01*
X123185714Y-59673928D01*
X123042857Y-59745357D01*
X122971428Y-59888214D01*
X122971428Y-60031071D01*
X123042857Y-60173928D01*
X123185714Y-60245357D01*
X123542857Y-60245357D01*
X123685714Y-60316785D01*
X124328571Y-59745357D02*
X124471428Y-59673928D01*
X124757142Y-59673928D01*
X124900000Y-59745357D01*
X124971428Y-59888214D01*
X124971428Y-59959642D01*
X124900000Y-60102500D01*
X124757142Y-60173928D01*
X124542857Y-60173928D01*
X124400000Y-60245357D01*
X124328571Y-60388214D01*
X124328571Y-60459642D01*
X124400000Y-60602500D01*
X124542857Y-60673928D01*
X124757142Y-60673928D01*
X124900000Y-60602500D01*
X125614285Y-59673928D02*
X125614285Y-60673928D01*
X125614285Y-61173928D02*
X125542857Y-61102500D01*
X125614285Y-61031071D01*
X125685714Y-61102500D01*
X125614285Y-61173928D01*
X125614285Y-61031071D01*
X126971428Y-59745357D02*
X126828571Y-59673928D01*
X126542857Y-59673928D01*
X126400000Y-59745357D01*
X126328571Y-59816785D01*
X126257142Y-59959642D01*
X126257142Y-60388214D01*
X126328571Y-60531071D01*
X126400000Y-60602500D01*
X126542857Y-60673928D01*
X126828571Y-60673928D01*
X126971428Y-60602500D01*
X128614285Y-61173928D02*
X129542857Y-61173928D01*
X129042857Y-60602500D01*
X129257142Y-60602500D01*
X129400000Y-60531071D01*
X129471428Y-60459642D01*
X129542857Y-60316785D01*
X129542857Y-59959642D01*
X129471428Y-59816785D01*
X129400000Y-59745357D01*
X129257142Y-59673928D01*
X128828571Y-59673928D01*
X128685714Y-59745357D01*
X128614285Y-59816785D01*
X130042857Y-61173928D02*
X130971428Y-61173928D01*
X130471428Y-60602500D01*
X130685714Y-60602500D01*
X130828571Y-60531071D01*
X130900000Y-60459642D01*
X130971428Y-60316785D01*
X130971428Y-59959642D01*
X130900000Y-59816785D01*
X130828571Y-59745357D01*
X130685714Y-59673928D01*
X130257142Y-59673928D01*
X130114285Y-59745357D01*
X130042857Y-59816785D01*
X132257142Y-60673928D02*
X132257142Y-59673928D01*
X131900000Y-61245357D02*
X131542857Y-60173928D01*
X132471428Y-60173928D01*
X133328571Y-61173928D02*
X133471428Y-61173928D01*
X133614285Y-61102500D01*
X133685714Y-61031071D01*
X133757142Y-60888214D01*
X133828571Y-60602500D01*
X133828571Y-60245357D01*
X133757142Y-59959642D01*
X133685714Y-59816785D01*
X133614285Y-59745357D01*
X133471428Y-59673928D01*
X133328571Y-59673928D01*
X133185714Y-59745357D01*
X133114285Y-59816785D01*
X133042857Y-59959642D01*
X132971428Y-60245357D01*
X132971428Y-60602500D01*
X133042857Y-60888214D01*
X133114285Y-61031071D01*
X133185714Y-61102500D01*
X133328571Y-61173928D01*
X135400000Y-61173928D02*
X135900000Y-59673928D01*
X136400000Y-61173928D01*
X137757142Y-59816785D02*
X137685714Y-59745357D01*
X137471428Y-59673928D01*
X137328571Y-59673928D01*
X137114285Y-59745357D01*
X136971428Y-59888214D01*
X136900000Y-60031071D01*
X136828571Y-60316785D01*
X136828571Y-60531071D01*
X136900000Y-60816785D01*
X136971428Y-60959642D01*
X137114285Y-61102500D01*
X137328571Y-61173928D01*
X137471428Y-61173928D01*
X137685714Y-61102500D01*
X137757142Y-61031071D01*
X138685714Y-61173928D02*
X138971428Y-61173928D01*
X139114285Y-61102500D01*
X139257142Y-60959642D01*
X139328571Y-60673928D01*
X139328571Y-60173928D01*
X139257142Y-59888214D01*
X139114285Y-59745357D01*
X138971428Y-59673928D01*
X138685714Y-59673928D01*
X138542857Y-59745357D01*
X138400000Y-59888214D01*
X138328571Y-60173928D01*
X138328571Y-60673928D01*
X138400000Y-60959642D01*
X138542857Y-61102500D01*
X138685714Y-61173928D01*
X125292857Y-57048928D02*
X125292857Y-58548928D01*
X126150000Y-57048928D01*
X126150000Y-58548928D01*
X127078571Y-57048928D02*
X126935714Y-57120357D01*
X126864285Y-57191785D01*
X126792857Y-57334642D01*
X126792857Y-57763214D01*
X126864285Y-57906071D01*
X126935714Y-57977500D01*
X127078571Y-58048928D01*
X127292857Y-58048928D01*
X127435714Y-57977500D01*
X127507142Y-57906071D01*
X127578571Y-57763214D01*
X127578571Y-57334642D01*
X127507142Y-57191785D01*
X127435714Y-57120357D01*
X127292857Y-57048928D01*
X127078571Y-57048928D01*
X128078571Y-58048928D02*
X128435714Y-57048928D01*
X128792857Y-58048928D01*
X130435714Y-58406071D02*
X130507142Y-58477500D01*
X130650000Y-58548928D01*
X131007142Y-58548928D01*
X131150000Y-58477500D01*
X131221428Y-58406071D01*
X131292857Y-58263214D01*
X131292857Y-58120357D01*
X131221428Y-57906071D01*
X130364285Y-57048928D01*
X131292857Y-57048928D01*
X132221428Y-58548928D02*
X132364285Y-58548928D01*
X132507142Y-58477500D01*
X132578571Y-58406071D01*
X132650000Y-58263214D01*
X132721428Y-57977500D01*
X132721428Y-57620357D01*
X132650000Y-57334642D01*
X132578571Y-57191785D01*
X132507142Y-57120357D01*
X132364285Y-57048928D01*
X132221428Y-57048928D01*
X132078571Y-57120357D01*
X132007142Y-57191785D01*
X131935714Y-57334642D01*
X131864285Y-57620357D01*
X131864285Y-57977500D01*
X131935714Y-58263214D01*
X132007142Y-58406071D01*
X132078571Y-58477500D01*
X132221428Y-58548928D01*
X133292857Y-58406071D02*
X133364285Y-58477500D01*
X133507142Y-58548928D01*
X133864285Y-58548928D01*
X134007142Y-58477500D01*
X134078571Y-58406071D01*
X134150000Y-58263214D01*
X134150000Y-58120357D01*
X134078571Y-57906071D01*
X133221428Y-57048928D01*
X134150000Y-57048928D01*
X135078571Y-58548928D02*
X135221428Y-58548928D01*
X135364285Y-58477500D01*
X135435714Y-58406071D01*
X135507142Y-58263214D01*
X135578571Y-57977500D01*
X135578571Y-57620357D01*
X135507142Y-57334642D01*
X135435714Y-57191785D01*
X135364285Y-57120357D01*
X135221428Y-57048928D01*
X135078571Y-57048928D01*
X134935714Y-57120357D01*
X134864285Y-57191785D01*
X134792857Y-57334642D01*
X134721428Y-57620357D01*
X134721428Y-57977500D01*
X134792857Y-58263214D01*
X134864285Y-58406071D01*
X134935714Y-58477500D01*
X135078571Y-58548928D01*
D11*
%TO.P,J1,3*%
%TO.N,GND*%
X125000000Y-114000000D03*
%TO.P,J1,2*%
%TO.N,PWM_IN*%
X125000000Y-111500000D03*
%TO.P,J1,1*%
%TO.N,CV_IN*%
%TA.AperFunction,ComponentPad*%
G36*
G01*
X124275000Y-108150000D02*
X125725000Y-108150000D01*
G75*
G02*
X125975000Y-108400000I0J-250000D01*
G01*
X125975000Y-109600000D01*
G75*
G02*
X125725000Y-109850000I-250000J0D01*
G01*
X124275000Y-109850000D01*
G75*
G02*
X124025000Y-109600000I0J250000D01*
G01*
X124025000Y-108400000D01*
G75*
G02*
X124275000Y-108150000I250000J0D01*
G01*
G37*
%TD.AperFunction*%
%TD*%
D12*
%TO.P,PWM_CV1,*%
%TO.N,*%
X195000000Y-110500000D03*
X195000000Y-101700000D03*
D13*
%TO.P,PWM_CV1,1*%
%TO.N,PWM_IN*%
X202000000Y-108600000D03*
%TO.P,PWM_CV1,2*%
%TO.N,Net-(PWM_CV1-Pad2)*%
X202000000Y-106100000D03*
%TO.P,PWM_CV1,3*%
%TO.N,GND*%
X202000000Y-103600000D03*
%TD*%
D14*
%TO.P,R7,2*%
%TO.N,GND*%
X155020000Y-83940000D03*
D15*
%TO.P,R7,1*%
%TO.N,Net-(R11-Pad2)*%
X155020000Y-94100000D03*
%TD*%
D14*
%TO.P,R11,2*%
%TO.N,Net-(R11-Pad2)*%
X149940000Y-94100000D03*
D15*
%TO.P,R11,1*%
%TO.N,+12V*%
X149940000Y-83940000D03*
%TD*%
D14*
%TO.P,R13,2*%
%TO.N,Net-(Pulse_Width1-Pad3)*%
X170260000Y-76320000D03*
D15*
%TO.P,R13,1*%
%TO.N,GND*%
X170260000Y-66160000D03*
%TD*%
%TO.P,C1,2*%
%TO.N,+12V*%
X193000000Y-97500000D03*
%TO.P,C1,1*%
%TO.N,GND*%
X198000000Y-97500000D03*
%TD*%
D12*
%TO.P,Coarse_Tune1,*%
%TO.N,*%
X130000000Y-89500000D03*
X130000000Y-80700000D03*
D13*
%TO.P,Coarse_Tune1,1*%
%TO.N,+12V*%
X137000000Y-87600000D03*
%TO.P,Coarse_Tune1,2*%
%TO.N,Net-(Coarse_Tune1-Pad2)*%
X137000000Y-85100000D03*
%TO.P,Coarse_Tune1,3*%
%TO.N,Net-(Coarse_Tune1-Pad3)*%
X137000000Y-82600000D03*
%TD*%
D12*
%TO.P,Pulse_Width1,*%
%TO.N,*%
X165000000Y-89500000D03*
X165000000Y-80700000D03*
D13*
%TO.P,Pulse_Width1,1*%
%TO.N,Net-(Pulse_Width1-Pad1)*%
X172000000Y-87600000D03*
%TO.P,Pulse_Width1,2*%
%TO.N,Net-(Pulse_Width1-Pad2)*%
X172000000Y-85100000D03*
%TO.P,Pulse_Width1,3*%
%TO.N,Net-(Pulse_Width1-Pad3)*%
X172000000Y-82600000D03*
%TD*%
D14*
%TO.P,R15,2*%
%TO.N,+12V*%
X144860000Y-78860000D03*
D15*
%TO.P,R15,1*%
%TO.N,Net-(Pulse_Width1-Pad1)*%
X155020000Y-78860000D03*
%TD*%
D14*
%TO.P,R16,2*%
%TO.N,Net-(R16-Pad2)*%
X189310000Y-78860000D03*
D15*
%TO.P,R16,1*%
%TO.N,Net-(R16-Pad1)*%
X179150000Y-78860000D03*
%TD*%
D14*
%TO.P,R5,2*%
%TO.N,Net-(R16-Pad1)*%
X179150000Y-83940000D03*
D15*
%TO.P,R5,1*%
%TO.N,PWM*%
X179150000Y-94100000D03*
%TD*%
%TO.P,J2,1*%
%TO.N,SQUARE_OUT*%
%TA.AperFunction,ComponentPad*%
G36*
G01*
X199830000Y-68475000D02*
X199830000Y-69925000D01*
G75*
G02*
X199580000Y-70175000I-250000J0D01*
G01*
X198380000Y-70175000D01*
G75*
G02*
X198130000Y-69925000I0J250000D01*
G01*
X198130000Y-68475000D01*
G75*
G02*
X198380000Y-68225000I250000J0D01*
G01*
X199580000Y-68225000D01*
G75*
G02*
X199830000Y-68475000I0J-250000D01*
G01*
G37*
%TD.AperFunction*%
D16*
%TO.P,J2,2*%
%TO.N,TRI_OUT*%
X196480000Y-69200000D03*
%TO.P,J2,3*%
%TO.N,SAW_OUT*%
X193980000Y-69200000D03*
%TO.P,J2,4*%
%TO.N,GND*%
X191480000Y-69200000D03*
%TD*%
D17*
%TO.P,U1,14*%
%TO.N,Net-(R16-Pad1)*%
X185500000Y-86480000D03*
%TO.P,U1,7*%
%TO.N,SQUARE_OUT*%
X200740000Y-94100000D03*
%TO.P,U1,13*%
%TO.N,Net-(R16-Pad2)*%
X188040000Y-86480000D03*
%TO.P,U1,6*%
%TO.N,SQUARE_OUT*%
X198200000Y-94100000D03*
%TO.P,U1,12*%
%TO.N,Net-(R1-Pad1)*%
X190580000Y-86480000D03*
%TO.P,U1,5*%
%TO.N,SQUARE*%
X195660000Y-94100000D03*
%TO.P,U1,11*%
%TO.N,-12V*%
X193120000Y-86480000D03*
%TO.P,U1,4*%
%TO.N,+12V*%
X193120000Y-94100000D03*
%TO.P,U1,10*%
%TO.N,TRI*%
X195660000Y-86480000D03*
%TO.P,U1,3*%
%TO.N,SAW*%
X190580000Y-94100000D03*
%TO.P,U1,9*%
%TO.N,TRI_OUT*%
X198200000Y-86480000D03*
%TO.P,U1,2*%
%TO.N,SAW_OUT*%
X188040000Y-94100000D03*
%TO.P,U1,8*%
%TO.N,TRI_OUT*%
X200740000Y-86480000D03*
D18*
%TO.P,U1,1*%
%TO.N,SAW_OUT*%
X185500000Y-94100000D03*
%TD*%
D17*
%TO.P,U2,16*%
%TO.N,+12V*%
X152480000Y-99180000D03*
%TO.P,U2,8*%
%TO.N,SAW*%
X170260000Y-106800000D03*
%TO.P,U2,15*%
%TO.N,CV*%
X155020000Y-99180000D03*
%TO.P,U2,7*%
%TO.N,Net-(U2-Pad7)*%
X167720000Y-106800000D03*
%TO.P,U2,14*%
%TO.N,Net-(R10-Pad1)*%
X157560000Y-99180000D03*
%TO.P,U2,6*%
%TO.N,Net-(U2-Pad6)*%
X165180000Y-106800000D03*
%TO.P,U2,13*%
%TO.N,Net-(R11-Pad2)*%
X160100000Y-99180000D03*
%TO.P,U2,5*%
%TO.N,PWM*%
X162640000Y-106800000D03*
%TO.P,U2,12*%
%TO.N,GND*%
X162640000Y-99180000D03*
%TO.P,U2,4*%
%TO.N,SQUARE*%
X160100000Y-106800000D03*
%TO.P,U2,11*%
%TO.N,Net-(C6-Pad1)*%
X165180000Y-99180000D03*
%TO.P,U2,3*%
%TO.N,Net-(CAL1-Pad2)*%
X157560000Y-106800000D03*
%TO.P,U2,10*%
%TO.N,TRI*%
X167720000Y-99180000D03*
%TO.P,U2,2*%
%TO.N,Net-(R9-Pad2)*%
X155020000Y-106800000D03*
%TO.P,U2,9*%
%TO.N,Net-(U2-Pad9)*%
X170260000Y-99180000D03*
D18*
%TO.P,U2,1*%
%TO.N,Net-(R8-Pad2)*%
X152480000Y-106800000D03*
%TD*%
D14*
%TO.P,R14,2*%
%TO.N,GND*%
X180000000Y-111660000D03*
D15*
%TO.P,R14,1*%
%TO.N,SQUARE*%
X180000000Y-101500000D03*
%TD*%
D14*
%TO.P,R12,2*%
%TO.N,Net-(CAL1-Pad2)*%
X142320000Y-99180000D03*
D15*
%TO.P,R12,1*%
%TO.N,-12V*%
X132160000Y-99180000D03*
%TD*%
%TO.P,R10,1*%
%TO.N,Net-(R10-Pad1)*%
X160100000Y-76320000D03*
D14*
%TO.P,R10,2*%
%TO.N,GND*%
X160100000Y-66160000D03*
%TD*%
%TO.P,R9,2*%
%TO.N,Net-(R9-Pad2)*%
X148670000Y-111880000D03*
D15*
%TO.P,R9,1*%
%TO.N,Net-(CAL1-Pad2)*%
X158830000Y-111880000D03*
%TD*%
D14*
%TO.P,R8,2*%
%TO.N,Net-(R8-Pad2)*%
X147400000Y-102990000D03*
D15*
%TO.P,R8,1*%
%TO.N,Net-(CAL1-Pad1)*%
X137240000Y-102990000D03*
%TD*%
D14*
%TO.P,R6,2*%
%TO.N,Net-(Pulse_Width1-Pad2)*%
X175340000Y-85160000D03*
D15*
%TO.P,R6,1*%
%TO.N,Net-(R1-Pad1)*%
X175340000Y-75000000D03*
%TD*%
D14*
%TO.P,R4,2*%
%TO.N,CV*%
X170260000Y-61080000D03*
D15*
%TO.P,R4,1*%
%TO.N,Net-(C3-Pad2)*%
X160100000Y-61080000D03*
%TD*%
D14*
%TO.P,R3,2*%
%TO.N,Net-(Coarse_Tune1-Pad2)*%
X144860000Y-83940000D03*
D15*
%TO.P,R3,1*%
%TO.N,CV*%
X144860000Y-94100000D03*
%TD*%
D14*
%TO.P,R2,2*%
%TO.N,CV_IN*%
X185500000Y-61080000D03*
D15*
%TO.P,R2,1*%
%TO.N,CV*%
X175340000Y-61080000D03*
%TD*%
D14*
%TO.P,R1,2*%
%TO.N,Net-(PWM_CV1-Pad2)*%
X185500000Y-66160000D03*
D15*
%TO.P,R1,1*%
%TO.N,Net-(R1-Pad1)*%
X175340000Y-66160000D03*
%TD*%
D19*
%TO.P,J3,10*%
%TO.N,+12V*%
X114040000Y-90160000D03*
%TO.P,J3,9*%
X111500000Y-90160000D03*
%TO.P,J3,8*%
%TO.N,GND*%
X114040000Y-87620000D03*
%TO.P,J3,7*%
X111500000Y-87620000D03*
%TO.P,J3,6*%
X114040000Y-85080000D03*
%TO.P,J3,5*%
X111500000Y-85080000D03*
%TO.P,J3,4*%
X114040000Y-82540000D03*
%TO.P,J3,3*%
X111500000Y-82540000D03*
%TO.P,J3,2*%
%TO.N,-12V*%
X114040000Y-80000000D03*
D20*
%TO.P,J3,1*%
X111500000Y-80000000D03*
%TD*%
D21*
%TO.P,CAL1,3*%
%TO.N,Net-(CAL1-Pad2)*%
X142320000Y-109340000D03*
%TO.P,CAL1,2*%
X139780000Y-109340000D03*
%TO.P,CAL1,1*%
%TO.N,Net-(CAL1-Pad1)*%
X137240000Y-109340000D03*
%TD*%
D15*
%TO.P,C6,1*%
%TO.N,Net-(C6-Pad1)*%
X165180000Y-94100000D03*
%TO.P,C6,2*%
%TO.N,GND*%
X160180000Y-94100000D03*
%TD*%
%TO.P,C5,2*%
%TO.N,-12V*%
X111500000Y-70500000D03*
D22*
%TO.P,C5,1*%
%TO.N,GND*%
X114000000Y-70500000D03*
%TD*%
D15*
%TO.P,C4,2*%
%TO.N,GND*%
X114000000Y-100500000D03*
D22*
%TO.P,C4,1*%
%TO.N,+12V*%
X111500000Y-100500000D03*
%TD*%
D15*
%TO.P,C3,2*%
%TO.N,Net-(C3-Pad2)*%
X156210000Y-61080000D03*
%TO.P,C3,1*%
%TO.N,GND*%
X151210000Y-61080000D03*
%TD*%
%TO.P,C2,2*%
%TO.N,-12V*%
X193000000Y-83000000D03*
%TO.P,C2,1*%
%TO.N,GND*%
X188000000Y-83000000D03*
%TD*%
D23*
%TO.N,+12V*%
X186000000Y-97500000D03*
X186000000Y-117500000D03*
%TO.N,-12V*%
X190000000Y-74500000D03*
X189500000Y-62500000D03*
%TO.N,CV_IN*%
X140560000Y-89520000D03*
X140560000Y-81900000D03*
%TO.N,SAW_OUT*%
X182960000Y-94100000D03*
X182960000Y-72510000D03*
%TD*%
D24*
%TO.N,+12V*%
X144860000Y-78860000D02*
X149940000Y-83940000D01*
X146280000Y-87600000D02*
X149940000Y-83940000D01*
X137000000Y-87600000D02*
X146280000Y-87600000D01*
X193120000Y-97380000D02*
X193000000Y-97500000D01*
X193120000Y-94100000D02*
X193120000Y-97380000D01*
X143409999Y-94796001D02*
X143409999Y-90470001D01*
X147793998Y-99180000D02*
X143409999Y-94796001D01*
X152480000Y-99180000D02*
X147793998Y-99180000D01*
X143409999Y-90470001D02*
X146280000Y-87600000D01*
X111500000Y-100500000D02*
X111500000Y-90160000D01*
X111500000Y-90160000D02*
X114040000Y-90160000D01*
X132856001Y-100630001D02*
X137000000Y-96486002D01*
X124510001Y-100630001D02*
X132856001Y-100630001D01*
X137000000Y-96486002D02*
X137000000Y-87600000D01*
X114040000Y-90160000D02*
X124510001Y-100630001D01*
X193000000Y-97500000D02*
X186000000Y-97500000D01*
X111500000Y-108720000D02*
X111500000Y-100500000D01*
X120280000Y-117500000D02*
X111500000Y-108720000D01*
X186000000Y-117500000D02*
X120280000Y-117500000D01*
%TO.N,-12V*%
X193120000Y-86480000D02*
X193120000Y-83120000D01*
X111500000Y-70500000D02*
X111500000Y-80000000D01*
X111500000Y-80000000D02*
X114040000Y-80000000D01*
X132160000Y-98120000D02*
X132160000Y-99180000D01*
X114040000Y-80000000D02*
X132160000Y-98120000D01*
X192132786Y-74500000D02*
X190000000Y-74500000D01*
X193000000Y-75367214D02*
X192132786Y-74500000D01*
X193000000Y-83000000D02*
X193000000Y-75367214D01*
X189500000Y-59720000D02*
X189500000Y-62500000D01*
X183740000Y-53960000D02*
X189500000Y-59720000D01*
X153260000Y-53960000D02*
X183740000Y-53960000D01*
X132959999Y-74260001D02*
X153260000Y-53960000D01*
X132959999Y-98380001D02*
X132959999Y-74260001D01*
X132160000Y-99180000D02*
X132959999Y-98380001D01*
%TO.N,Net-(C3-Pad2)*%
X156210000Y-61080000D02*
X160100000Y-61080000D01*
%TO.N,Net-(C6-Pad1)*%
X165180000Y-94100000D02*
X165180000Y-99180000D01*
%TO.N,Net-(CAL1-Pad2)*%
X139780000Y-109340000D02*
X142320000Y-109340000D01*
X157560000Y-110610000D02*
X158830000Y-111880000D01*
X157560000Y-106800000D02*
X157560000Y-110610000D01*
X157279999Y-113430001D02*
X158830000Y-111880000D01*
X146410001Y-113430001D02*
X157279999Y-113430001D01*
X142320000Y-109340000D02*
X146410001Y-113430001D01*
X142320000Y-99180000D02*
X142320000Y-109340000D01*
%TO.N,Net-(CAL1-Pad1)*%
X137240000Y-102990000D02*
X137240000Y-109340000D01*
%TO.N,Net-(R1-Pad1)*%
X175340000Y-66160000D02*
X175340000Y-75000000D01*
X187596002Y-75000000D02*
X175340000Y-75000000D01*
X191010009Y-78414007D02*
X187596002Y-75000000D01*
X191010009Y-84782797D02*
X191010009Y-78414007D01*
X190580000Y-85212806D02*
X191010009Y-84782797D01*
X190580000Y-86480000D02*
X190580000Y-85212806D01*
%TO.N,CV*%
X148089990Y-97329990D02*
X144860000Y-94100000D01*
X153169990Y-97329990D02*
X148089990Y-97329990D01*
X155020000Y-99180000D02*
X153169990Y-97329990D01*
X175340000Y-61080000D02*
X170260000Y-61080000D01*
X151390001Y-87569999D02*
X151390001Y-79949999D01*
X151390001Y-79949999D02*
X170260000Y-61080000D01*
X144860000Y-94100000D02*
X151390001Y-87569999D01*
%TO.N,Net-(R11-Pad2)*%
X155020000Y-94100000D02*
X149940000Y-94100000D01*
X155020000Y-94100000D02*
X160100000Y-99180000D01*
%TO.N,Net-(R8-Pad2)*%
X148670000Y-102990000D02*
X152480000Y-106800000D01*
X147400000Y-102990000D02*
X148670000Y-102990000D01*
%TO.N,Net-(R9-Pad2)*%
X151640000Y-111880000D02*
X148670000Y-111880000D01*
X155020000Y-108500000D02*
X151640000Y-111880000D01*
X155020000Y-106800000D02*
X155020000Y-108500000D01*
%TO.N,Net-(R10-Pad1)*%
X153569999Y-86662807D02*
X153569999Y-82850001D01*
X148489999Y-91742807D02*
X153569999Y-86662807D01*
X148489999Y-94796001D02*
X148489999Y-91742807D01*
X150123978Y-96429980D02*
X148489999Y-94796001D01*
X153569999Y-82850001D02*
X160100000Y-76320000D01*
X154809980Y-96429980D02*
X150123978Y-96429980D01*
X157560000Y-99180000D02*
X154809980Y-96429980D01*
%TO.N,SQUARE*%
X172849990Y-108650010D02*
X180000000Y-101500000D01*
X161950010Y-108650010D02*
X172849990Y-108650010D01*
X160100000Y-106800000D02*
X161950010Y-108650010D01*
X195660000Y-96986002D02*
X195660000Y-94100000D01*
X193596003Y-99049999D02*
X195660000Y-96986002D01*
X182450001Y-99049999D02*
X193596003Y-99049999D01*
X180000000Y-101500000D02*
X182450001Y-99049999D01*
%TO.N,PWM*%
X168409990Y-101030010D02*
X162640000Y-106800000D01*
X172219990Y-101030010D02*
X168409990Y-101030010D01*
X179150000Y-94100000D02*
X172219990Y-101030010D01*
%TO.N,TRI*%
X178569990Y-88330010D02*
X167720000Y-99180000D01*
X193809990Y-88330010D02*
X178569990Y-88330010D01*
X195660000Y-86480000D02*
X193809990Y-88330010D01*
%TO.N,SAW*%
X181109999Y-95950001D02*
X170260000Y-106800000D01*
X188729999Y-95950001D02*
X181109999Y-95950001D01*
X190580000Y-94100000D02*
X188729999Y-95950001D01*
%TO.N,PWM_IN*%
X196269989Y-114330011D02*
X202000000Y-108600000D01*
X127830011Y-114330011D02*
X196269989Y-114330011D01*
X125000000Y-111500000D02*
X127830011Y-114330011D01*
%TO.N,CV_IN*%
X140560000Y-94415000D02*
X140560000Y-89520000D01*
X125975000Y-109000000D02*
X140560000Y-94415000D01*
X125000000Y-109000000D02*
X125975000Y-109000000D01*
X184049999Y-59629999D02*
X185500000Y-61080000D01*
X140560000Y-73876002D02*
X154806003Y-59629999D01*
X140560000Y-81900000D02*
X140560000Y-73876002D01*
X154806003Y-59629999D02*
X154806003Y-57493997D01*
X154806003Y-57493997D02*
X155800000Y-56500000D01*
X180920000Y-56500000D02*
X184049999Y-59629999D01*
X155800000Y-56500000D02*
X180920000Y-56500000D01*
%TO.N,SAW_OUT*%
X185500000Y-94100000D02*
X188040000Y-94100000D01*
X185500000Y-94100000D02*
X182960000Y-94100000D01*
X190670000Y-72510000D02*
X193980000Y-69200000D01*
X182960000Y-72510000D02*
X190670000Y-72510000D01*
%TO.N,TRI_OUT*%
X198110623Y-86480000D02*
X198200000Y-86480000D01*
X196480000Y-84849377D02*
X198110623Y-86480000D01*
X196480000Y-69200000D02*
X196480000Y-84849377D01*
X198200000Y-86480000D02*
X200740000Y-86480000D01*
%TO.N,SQUARE_OUT*%
X200740000Y-94100000D02*
X198200000Y-94100000D01*
X202190010Y-92649990D02*
X200740000Y-94100000D01*
X202190010Y-72410010D02*
X202190010Y-92649990D01*
X198980000Y-69200000D02*
X202190010Y-72410010D01*
%TO.N,Net-(Coarse_Tune1-Pad2)*%
X137000000Y-85000000D02*
X143800000Y-85000000D01*
X143800000Y-85000000D02*
X144860000Y-83940000D01*
%TO.N,Net-(Pulse_Width1-Pad2)*%
X175280000Y-85100000D02*
X175340000Y-85160000D01*
X172000000Y-85100000D02*
X175280000Y-85100000D01*
%TO.N,Net-(PWM_CV1-Pad2)*%
X201500000Y-66000000D02*
X185500000Y-66160000D01*
X204000000Y-71000000D02*
X201500000Y-66000000D01*
X204000000Y-104500000D02*
X204000000Y-71000000D01*
X202000000Y-106100000D02*
X204000000Y-104500000D01*
%TO.N,Net-(Pulse_Width1-Pad3)*%
X172000000Y-78060000D02*
X172000000Y-82600000D01*
X170260000Y-76320000D02*
X172000000Y-78060000D01*
%TO.N,Net-(Pulse_Width1-Pad1)*%
X170449999Y-86049999D02*
X172000000Y-87600000D01*
X170449999Y-82227997D02*
X170449999Y-86049999D01*
X163092001Y-74869999D02*
X170449999Y-82227997D01*
X159010001Y-74869999D02*
X163092001Y-74869999D01*
X155020000Y-78860000D02*
X159010001Y-74869999D01*
%TO.N,Net-(R16-Pad1)*%
X179150000Y-78860000D02*
X179150000Y-83940000D01*
X182960000Y-83940000D02*
X185500000Y-86480000D01*
X179150000Y-83940000D02*
X182960000Y-83940000D01*
%TO.N,Net-(R16-Pad2)*%
X190109999Y-84410001D02*
X188040000Y-86480000D01*
X190109999Y-79659999D02*
X190109999Y-84410001D01*
X189310000Y-78860000D02*
X190109999Y-79659999D01*
%TD*%
D25*
%TO.N,GND*%
X204373000Y-52552606D02*
X204373000Y-70008576D01*
X202222673Y-65707923D01*
X202218303Y-65694019D01*
X202188508Y-65639592D01*
X202177901Y-65618379D01*
X202170180Y-65606114D01*
X202144807Y-65559765D01*
X202129499Y-65541488D01*
X202116794Y-65521305D01*
X202080454Y-65482930D01*
X202046531Y-65442428D01*
X202027952Y-65427489D01*
X202011554Y-65410173D01*
X201968425Y-65379625D01*
X201927252Y-65346519D01*
X201906114Y-65335491D01*
X201886655Y-65321708D01*
X201838406Y-65300165D01*
X201791556Y-65275722D01*
X201768672Y-65269029D01*
X201746897Y-65259307D01*
X201695369Y-65247591D01*
X201644654Y-65232759D01*
X201620900Y-65230659D01*
X201597651Y-65225373D01*
X201544833Y-65223934D01*
X201530394Y-65222658D01*
X201506675Y-65222895D01*
X201444654Y-65221206D01*
X201430287Y-65223659D01*
X186569622Y-65372265D01*
X186530748Y-65314087D01*
X186345913Y-65129252D01*
X186128570Y-64984028D01*
X185887072Y-64883996D01*
X185630698Y-64833000D01*
X185369302Y-64833000D01*
X185112928Y-64883996D01*
X184871430Y-64984028D01*
X184654087Y-65129252D01*
X184469252Y-65314087D01*
X184324028Y-65531430D01*
X184223996Y-65772928D01*
X184173000Y-66029302D01*
X184173000Y-66290698D01*
X184223996Y-66547072D01*
X184324028Y-66788570D01*
X184469252Y-67005913D01*
X184654087Y-67190748D01*
X184871430Y-67335972D01*
X185112928Y-67436004D01*
X185369302Y-67487000D01*
X185630698Y-67487000D01*
X185887072Y-67436004D01*
X186128570Y-67335972D01*
X186345913Y-67190748D01*
X186530748Y-67005913D01*
X186584012Y-66926198D01*
X201022196Y-66781816D01*
X203223001Y-71183427D01*
X203223000Y-102767846D01*
X203064080Y-102715525D01*
X202179605Y-103600000D01*
X202193748Y-103614143D01*
X202014143Y-103793748D01*
X202000000Y-103779605D01*
X201115525Y-104664080D01*
X201199208Y-104918261D01*
X201199706Y-104918500D01*
X201090340Y-104991576D01*
X200891576Y-105190340D01*
X200735409Y-105424062D01*
X200627838Y-105683759D01*
X200573000Y-105959453D01*
X200573000Y-106240547D01*
X200627838Y-106516241D01*
X200735409Y-106775938D01*
X200891576Y-107009660D01*
X201090340Y-107208424D01*
X201302225Y-107350000D01*
X201090340Y-107491576D01*
X200891576Y-107690340D01*
X200735409Y-107924062D01*
X200627838Y-108183759D01*
X200573000Y-108459453D01*
X200573000Y-108740547D01*
X200604126Y-108897030D01*
X195948146Y-113553011D01*
X158255832Y-113553011D01*
X158618013Y-113190831D01*
X158699302Y-113207000D01*
X158960698Y-113207000D01*
X159217072Y-113156004D01*
X159458570Y-113055972D01*
X159675913Y-112910748D01*
X159860748Y-112725913D01*
X160005972Y-112508570D01*
X160106004Y-112267072D01*
X160157000Y-112010698D01*
X160157000Y-112009040D01*
X178608091Y-112009040D01*
X178702930Y-112273881D01*
X178847615Y-112515131D01*
X179036586Y-112723519D01*
X179262580Y-112891037D01*
X179516913Y-113011246D01*
X179650961Y-113051904D01*
X179873000Y-112929915D01*
X179873000Y-111787000D01*
X180127000Y-111787000D01*
X180127000Y-112929915D01*
X180349039Y-113051904D01*
X180483087Y-113011246D01*
X180737420Y-112891037D01*
X180963414Y-112723519D01*
X181152385Y-112515131D01*
X181297070Y-112273881D01*
X181391909Y-112009040D01*
X181270624Y-111787000D01*
X180127000Y-111787000D01*
X179873000Y-111787000D01*
X178729376Y-111787000D01*
X178608091Y-112009040D01*
X160157000Y-112009040D01*
X160157000Y-111749302D01*
X160106004Y-111492928D01*
X160030631Y-111310960D01*
X178608091Y-111310960D01*
X178729376Y-111533000D01*
X179873000Y-111533000D01*
X179873000Y-110390085D01*
X180127000Y-110390085D01*
X180127000Y-111533000D01*
X181270624Y-111533000D01*
X181391909Y-111310960D01*
X181297070Y-111046119D01*
X181152385Y-110804869D01*
X180963414Y-110596481D01*
X180737420Y-110428963D01*
X180483087Y-110308754D01*
X180349039Y-110268096D01*
X180127000Y-110390085D01*
X179873000Y-110390085D01*
X179650961Y-110268096D01*
X179516913Y-110308754D01*
X179262580Y-110428963D01*
X179036586Y-110596481D01*
X178847615Y-110804869D01*
X178702930Y-111046119D01*
X178608091Y-111310960D01*
X160030631Y-111310960D01*
X160005972Y-111251430D01*
X159860748Y-111034087D01*
X159675913Y-110849252D01*
X159458570Y-110704028D01*
X159217072Y-110603996D01*
X158960698Y-110553000D01*
X158699302Y-110553000D01*
X158618013Y-110569169D01*
X158337000Y-110288157D01*
X158337000Y-110251112D01*
X192473000Y-110251112D01*
X192473000Y-110748888D01*
X192570111Y-111237099D01*
X192760602Y-111696983D01*
X193037151Y-112110869D01*
X193389131Y-112462849D01*
X193803017Y-112739398D01*
X194262901Y-112929889D01*
X194751112Y-113027000D01*
X195248888Y-113027000D01*
X195737099Y-112929889D01*
X196196983Y-112739398D01*
X196610869Y-112462849D01*
X196962849Y-112110869D01*
X197239398Y-111696983D01*
X197429889Y-111237099D01*
X197527000Y-110748888D01*
X197527000Y-110251112D01*
X197429889Y-109762901D01*
X197239398Y-109303017D01*
X196962849Y-108889131D01*
X196610869Y-108537151D01*
X196196983Y-108260602D01*
X195737099Y-108070111D01*
X195248888Y-107973000D01*
X194751112Y-107973000D01*
X194262901Y-108070111D01*
X193803017Y-108260602D01*
X193389131Y-108537151D01*
X193037151Y-108889131D01*
X192760602Y-109303017D01*
X192570111Y-109762901D01*
X192473000Y-110251112D01*
X158337000Y-110251112D01*
X158337000Y-108278996D01*
X158502870Y-108142870D01*
X158668698Y-107940808D01*
X158791919Y-107710278D01*
X158830000Y-107584743D01*
X158868081Y-107710278D01*
X158991302Y-107940808D01*
X159157131Y-108142870D01*
X159359193Y-108308698D01*
X159589723Y-108431919D01*
X159839864Y-108507799D01*
X160100000Y-108533420D01*
X160360137Y-108507799D01*
X160610278Y-108431919D01*
X160625134Y-108423978D01*
X161373602Y-109172446D01*
X161397930Y-109202090D01*
X161427574Y-109226418D01*
X161427575Y-109226419D01*
X161516243Y-109299187D01*
X161592599Y-109340000D01*
X161651226Y-109371337D01*
X161797691Y-109415767D01*
X161911844Y-109427010D01*
X161911853Y-109427010D01*
X161950009Y-109430768D01*
X161988165Y-109427010D01*
X172811827Y-109427010D01*
X172849990Y-109430769D01*
X172888153Y-109427010D01*
X172888156Y-109427010D01*
X173002309Y-109415767D01*
X173148774Y-109371337D01*
X173283756Y-109299187D01*
X173402070Y-109202090D01*
X173426403Y-109172440D01*
X179788013Y-102810831D01*
X179869302Y-102827000D01*
X180130698Y-102827000D01*
X180387072Y-102776004D01*
X180628570Y-102675972D01*
X180845913Y-102530748D01*
X181030748Y-102345913D01*
X181175972Y-102128570D01*
X181276004Y-101887072D01*
X181327000Y-101630698D01*
X181327000Y-101369302D01*
X181310831Y-101288013D01*
X182771845Y-99826999D01*
X193299283Y-99826999D01*
X193037151Y-100089131D01*
X192760602Y-100503017D01*
X192570111Y-100962901D01*
X192473000Y-101451112D01*
X192473000Y-101948888D01*
X192570111Y-102437099D01*
X192760602Y-102896983D01*
X193037151Y-103310869D01*
X193389131Y-103662849D01*
X193803017Y-103939398D01*
X194262901Y-104129889D01*
X194751112Y-104227000D01*
X195248888Y-104227000D01*
X195737099Y-104129889D01*
X196196983Y-103939398D01*
X196605325Y-103666553D01*
X200459009Y-103666553D01*
X200501603Y-103965907D01*
X200601778Y-104251199D01*
X200681739Y-104400792D01*
X200935920Y-104484475D01*
X201820395Y-103600000D01*
X200935920Y-102715525D01*
X200681739Y-102799208D01*
X200550842Y-103071775D01*
X200475635Y-103364642D01*
X200459009Y-103666553D01*
X196605325Y-103666553D01*
X196610869Y-103662849D01*
X196962849Y-103310869D01*
X197239398Y-102896983D01*
X197388955Y-102535920D01*
X201115525Y-102535920D01*
X202000000Y-103420395D01*
X202884475Y-102535920D01*
X202800792Y-102281739D01*
X202528225Y-102150842D01*
X202235358Y-102075635D01*
X201933447Y-102059009D01*
X201634093Y-102101603D01*
X201348801Y-102201778D01*
X201199208Y-102281739D01*
X201115525Y-102535920D01*
X197388955Y-102535920D01*
X197429889Y-102437099D01*
X197527000Y-101948888D01*
X197527000Y-101451112D01*
X197429889Y-100962901D01*
X197239398Y-100503017D01*
X196962849Y-100089131D01*
X196610869Y-99737151D01*
X196196983Y-99460602D01*
X195737099Y-99270111D01*
X195248888Y-99173000D01*
X194751112Y-99173000D01*
X194527333Y-99217512D01*
X195252143Y-98492702D01*
X197186903Y-98492702D01*
X197258486Y-98736671D01*
X197513996Y-98857571D01*
X197788184Y-98926300D01*
X198070512Y-98940217D01*
X198350130Y-98898787D01*
X198616292Y-98803603D01*
X198741514Y-98736671D01*
X198813097Y-98492702D01*
X198000000Y-97679605D01*
X197186903Y-98492702D01*
X195252143Y-98492702D01*
X196174333Y-97570512D01*
X196559783Y-97570512D01*
X196601213Y-97850130D01*
X196696397Y-98116292D01*
X196763329Y-98241514D01*
X197007298Y-98313097D01*
X197820395Y-97500000D01*
X198179605Y-97500000D01*
X198992702Y-98313097D01*
X199236671Y-98241514D01*
X199357571Y-97986004D01*
X199426300Y-97711816D01*
X199440217Y-97429488D01*
X199398787Y-97149870D01*
X199303603Y-96883708D01*
X199236671Y-96758486D01*
X198992702Y-96686903D01*
X198179605Y-97500000D01*
X197820395Y-97500000D01*
X197007298Y-96686903D01*
X196763329Y-96758486D01*
X196642429Y-97013996D01*
X196573700Y-97288184D01*
X196559783Y-97570512D01*
X196174333Y-97570512D01*
X196182437Y-97562409D01*
X196212080Y-97538082D01*
X196243333Y-97500000D01*
X196309178Y-97419768D01*
X196362293Y-97320395D01*
X196381327Y-97284786D01*
X196425757Y-97138321D01*
X196437000Y-97024168D01*
X196437000Y-97024166D01*
X196440759Y-96986002D01*
X196437000Y-96947839D01*
X196437000Y-96507298D01*
X197186903Y-96507298D01*
X198000000Y-97320395D01*
X198813097Y-96507298D01*
X198741514Y-96263329D01*
X198486004Y-96142429D01*
X198211816Y-96073700D01*
X197929488Y-96059783D01*
X197649870Y-96101213D01*
X197383708Y-96196397D01*
X197258486Y-96263329D01*
X197186903Y-96507298D01*
X196437000Y-96507298D01*
X196437000Y-95578996D01*
X196602870Y-95442870D01*
X196768698Y-95240808D01*
X196891919Y-95010278D01*
X196930000Y-94884743D01*
X196968081Y-95010278D01*
X197091302Y-95240808D01*
X197257131Y-95442870D01*
X197459193Y-95608698D01*
X197689723Y-95731919D01*
X197939864Y-95807799D01*
X198200000Y-95833420D01*
X198460137Y-95807799D01*
X198710278Y-95731919D01*
X198940808Y-95608698D01*
X199142870Y-95442870D01*
X199308698Y-95240808D01*
X199431919Y-95010278D01*
X199470000Y-94884743D01*
X199508081Y-95010278D01*
X199631302Y-95240808D01*
X199797131Y-95442870D01*
X199999193Y-95608698D01*
X200229723Y-95731919D01*
X200479864Y-95807799D01*
X200740000Y-95833420D01*
X201000137Y-95807799D01*
X201250278Y-95731919D01*
X201480808Y-95608698D01*
X201682870Y-95442870D01*
X201848698Y-95240808D01*
X201971919Y-95010278D01*
X202047799Y-94760137D01*
X202067000Y-94565183D01*
X202067000Y-93871844D01*
X202712446Y-93226398D01*
X202742090Y-93202070D01*
X202819867Y-93107298D01*
X202839187Y-93083757D01*
X202875262Y-93016265D01*
X202911337Y-92948774D01*
X202955767Y-92802309D01*
X202967010Y-92688156D01*
X202967010Y-92688154D01*
X202970769Y-92649990D01*
X202967010Y-92611827D01*
X202967010Y-72448173D01*
X202970769Y-72410010D01*
X202965615Y-72357681D01*
X202955767Y-72257691D01*
X202911337Y-72111226D01*
X202839187Y-71976244D01*
X202742090Y-71857930D01*
X202712447Y-71833603D01*
X200359549Y-69480706D01*
X200359549Y-68475000D01*
X200344570Y-68322918D01*
X200300209Y-68176680D01*
X200228171Y-68041906D01*
X200131224Y-67923776D01*
X200013094Y-67826829D01*
X199878320Y-67754791D01*
X199732082Y-67710430D01*
X199580000Y-67695451D01*
X198380000Y-67695451D01*
X198227918Y-67710430D01*
X198081680Y-67754791D01*
X197946906Y-67826829D01*
X197828776Y-67923776D01*
X197731829Y-68041906D01*
X197659791Y-68176680D01*
X197623175Y-68297387D01*
X197458397Y-68096603D01*
X197248721Y-67924527D01*
X197009505Y-67796663D01*
X196749939Y-67717925D01*
X196480000Y-67691338D01*
X196210062Y-67717925D01*
X195950496Y-67796663D01*
X195711280Y-67924527D01*
X195501604Y-68096603D01*
X195329527Y-68306279D01*
X195230000Y-68492481D01*
X195130473Y-68306280D01*
X194958397Y-68096603D01*
X194748721Y-67924527D01*
X194509505Y-67796663D01*
X194249939Y-67717925D01*
X193980000Y-67691338D01*
X193710062Y-67717925D01*
X193450496Y-67796663D01*
X193211280Y-67924527D01*
X193001604Y-68096603D01*
X192829527Y-68306279D01*
X192787567Y-68384781D01*
X192745053Y-68297430D01*
X192569049Y-68065571D01*
X192351193Y-67872504D01*
X192099858Y-67725648D01*
X191836890Y-67633524D01*
X191607000Y-67754845D01*
X191607000Y-69073000D01*
X191627000Y-69073000D01*
X191627000Y-69327000D01*
X191607000Y-69327000D01*
X191607000Y-69347000D01*
X191353000Y-69347000D01*
X191353000Y-69327000D01*
X190153835Y-69327000D01*
X190013680Y-69559267D01*
X190087558Y-69840830D01*
X190214947Y-70102570D01*
X190390951Y-70334429D01*
X190608807Y-70527496D01*
X190860142Y-70674352D01*
X191123110Y-70766476D01*
X191352998Y-70645156D01*
X191352998Y-70728159D01*
X190348157Y-71733000D01*
X184036794Y-71733000D01*
X183990748Y-71664087D01*
X183805913Y-71479252D01*
X183588570Y-71334028D01*
X183347072Y-71233996D01*
X183090698Y-71183000D01*
X182829302Y-71183000D01*
X182572928Y-71233996D01*
X182331430Y-71334028D01*
X182114087Y-71479252D01*
X181929252Y-71664087D01*
X181784028Y-71881430D01*
X181683996Y-72122928D01*
X181633000Y-72379302D01*
X181633000Y-72640698D01*
X181683996Y-72897072D01*
X181784028Y-73138570D01*
X181929252Y-73355913D01*
X182114087Y-73540748D01*
X182331430Y-73685972D01*
X182572928Y-73786004D01*
X182829302Y-73837000D01*
X183090698Y-73837000D01*
X183347072Y-73786004D01*
X183588570Y-73685972D01*
X183805913Y-73540748D01*
X183990748Y-73355913D01*
X184036794Y-73287000D01*
X189460823Y-73287000D01*
X189371430Y-73324028D01*
X189154087Y-73469252D01*
X188969252Y-73654087D01*
X188824028Y-73871430D01*
X188723996Y-74112928D01*
X188673000Y-74369302D01*
X188673000Y-74630698D01*
X188723996Y-74887072D01*
X188824028Y-75128570D01*
X188825262Y-75130417D01*
X188172415Y-74477570D01*
X188148082Y-74447920D01*
X188029768Y-74350823D01*
X187894786Y-74278673D01*
X187748321Y-74234243D01*
X187634168Y-74223000D01*
X187634165Y-74223000D01*
X187596002Y-74219241D01*
X187557839Y-74223000D01*
X176416794Y-74223000D01*
X176370748Y-74154087D01*
X176185913Y-73969252D01*
X176117000Y-73923206D01*
X176117000Y-68840733D01*
X190013680Y-68840733D01*
X190153835Y-69073000D01*
X191353000Y-69073000D01*
X191353000Y-67754845D01*
X191123110Y-67633524D01*
X190860142Y-67725648D01*
X190608807Y-67872504D01*
X190390951Y-68065571D01*
X190214947Y-68297430D01*
X190087558Y-68559170D01*
X190013680Y-68840733D01*
X176117000Y-68840733D01*
X176117000Y-67236794D01*
X176185913Y-67190748D01*
X176370748Y-67005913D01*
X176515972Y-66788570D01*
X176616004Y-66547072D01*
X176667000Y-66290698D01*
X176667000Y-66029302D01*
X176616004Y-65772928D01*
X176515972Y-65531430D01*
X176370748Y-65314087D01*
X176185913Y-65129252D01*
X175968570Y-64984028D01*
X175727072Y-64883996D01*
X175470698Y-64833000D01*
X175209302Y-64833000D01*
X174952928Y-64883996D01*
X174711430Y-64984028D01*
X174494087Y-65129252D01*
X174309252Y-65314087D01*
X174164028Y-65531430D01*
X174063996Y-65772928D01*
X174013000Y-66029302D01*
X174013000Y-66290698D01*
X174063996Y-66547072D01*
X174164028Y-66788570D01*
X174309252Y-67005913D01*
X174494087Y-67190748D01*
X174563000Y-67236794D01*
X174563001Y-73923205D01*
X174494087Y-73969252D01*
X174309252Y-74154087D01*
X174164028Y-74371430D01*
X174063996Y-74612928D01*
X174013000Y-74869302D01*
X174013000Y-75130698D01*
X174063996Y-75387072D01*
X174164028Y-75628570D01*
X174309252Y-75845913D01*
X174494087Y-76030748D01*
X174711430Y-76175972D01*
X174952928Y-76276004D01*
X175209302Y-76327000D01*
X175470698Y-76327000D01*
X175727072Y-76276004D01*
X175968570Y-76175972D01*
X176185913Y-76030748D01*
X176370748Y-75845913D01*
X176416794Y-75777000D01*
X187274159Y-75777000D01*
X189054903Y-77557745D01*
X188922928Y-77583996D01*
X188681430Y-77684028D01*
X188464087Y-77829252D01*
X188279252Y-78014087D01*
X188134028Y-78231430D01*
X188033996Y-78472928D01*
X187983000Y-78729302D01*
X187983000Y-78990698D01*
X188033996Y-79247072D01*
X188134028Y-79488570D01*
X188279252Y-79705913D01*
X188464087Y-79890748D01*
X188681430Y-80035972D01*
X188922928Y-80136004D01*
X189179302Y-80187000D01*
X189332999Y-80187000D01*
X189333000Y-82465909D01*
X189303603Y-82383708D01*
X189236671Y-82258486D01*
X188992702Y-82186903D01*
X188179605Y-83000000D01*
X188992702Y-83813097D01*
X189236671Y-83741514D01*
X189333000Y-83537933D01*
X189333000Y-84088156D01*
X188565134Y-84856022D01*
X188550277Y-84848081D01*
X188300136Y-84772201D01*
X188040000Y-84746580D01*
X187779863Y-84772201D01*
X187529722Y-84848081D01*
X187299192Y-84971302D01*
X187097130Y-85137130D01*
X186931302Y-85339193D01*
X186808081Y-85569723D01*
X186770000Y-85695258D01*
X186731919Y-85569722D01*
X186608698Y-85339192D01*
X186442870Y-85137130D01*
X186240807Y-84971302D01*
X186010277Y-84848081D01*
X185760136Y-84772201D01*
X185500000Y-84746580D01*
X185239863Y-84772201D01*
X184989722Y-84848081D01*
X184974866Y-84856022D01*
X184111546Y-83992702D01*
X187186903Y-83992702D01*
X187258486Y-84236671D01*
X187513996Y-84357571D01*
X187788184Y-84426300D01*
X188070512Y-84440217D01*
X188350130Y-84398787D01*
X188616292Y-84303603D01*
X188741514Y-84236671D01*
X188813097Y-83992702D01*
X188000000Y-83179605D01*
X187186903Y-83992702D01*
X184111546Y-83992702D01*
X183536413Y-83417569D01*
X183512080Y-83387920D01*
X183393766Y-83290823D01*
X183258784Y-83218673D01*
X183112319Y-83174243D01*
X182998166Y-83163000D01*
X182998163Y-83163000D01*
X182960000Y-83159241D01*
X182921837Y-83163000D01*
X180226794Y-83163000D01*
X180180748Y-83094087D01*
X180157173Y-83070512D01*
X186559783Y-83070512D01*
X186601213Y-83350130D01*
X186696397Y-83616292D01*
X186763329Y-83741514D01*
X187007298Y-83813097D01*
X187820395Y-83000000D01*
X187007298Y-82186903D01*
X186763329Y-82258486D01*
X186642429Y-82513996D01*
X186573700Y-82788184D01*
X186559783Y-83070512D01*
X180157173Y-83070512D01*
X179995913Y-82909252D01*
X179927000Y-82863206D01*
X179927000Y-82007298D01*
X187186903Y-82007298D01*
X188000000Y-82820395D01*
X188813097Y-82007298D01*
X188741514Y-81763329D01*
X188486004Y-81642429D01*
X188211816Y-81573700D01*
X187929488Y-81559783D01*
X187649870Y-81601213D01*
X187383708Y-81696397D01*
X187258486Y-81763329D01*
X187186903Y-82007298D01*
X179927000Y-82007298D01*
X179927000Y-79936794D01*
X179995913Y-79890748D01*
X180180748Y-79705913D01*
X180325972Y-79488570D01*
X180426004Y-79247072D01*
X180477000Y-78990698D01*
X180477000Y-78729302D01*
X180426004Y-78472928D01*
X180325972Y-78231430D01*
X180180748Y-78014087D01*
X179995913Y-77829252D01*
X179778570Y-77684028D01*
X179537072Y-77583996D01*
X179280698Y-77533000D01*
X179019302Y-77533000D01*
X178762928Y-77583996D01*
X178521430Y-77684028D01*
X178304087Y-77829252D01*
X178119252Y-78014087D01*
X177974028Y-78231430D01*
X177873996Y-78472928D01*
X177823000Y-78729302D01*
X177823000Y-78990698D01*
X177873996Y-79247072D01*
X177974028Y-79488570D01*
X178119252Y-79705913D01*
X178304087Y-79890748D01*
X178373000Y-79936794D01*
X178373001Y-82863205D01*
X178304087Y-82909252D01*
X178119252Y-83094087D01*
X177974028Y-83311430D01*
X177873996Y-83552928D01*
X177823000Y-83809302D01*
X177823000Y-84070698D01*
X177873996Y-84327072D01*
X177974028Y-84568570D01*
X178119252Y-84785913D01*
X178304087Y-84970748D01*
X178521430Y-85115972D01*
X178762928Y-85216004D01*
X179019302Y-85267000D01*
X179280698Y-85267000D01*
X179537072Y-85216004D01*
X179778570Y-85115972D01*
X179995913Y-84970748D01*
X180180748Y-84785913D01*
X180226794Y-84717000D01*
X182638157Y-84717000D01*
X184173000Y-86251844D01*
X184173000Y-86945184D01*
X184192201Y-87140137D01*
X184268081Y-87390278D01*
X184355063Y-87553010D01*
X178608153Y-87553010D01*
X178569989Y-87549251D01*
X178531826Y-87553010D01*
X178531824Y-87553010D01*
X178417671Y-87564253D01*
X178299830Y-87600000D01*
X178271206Y-87608683D01*
X178136223Y-87680833D01*
X178049117Y-87752319D01*
X178017910Y-87777930D01*
X177993582Y-87807574D01*
X168245134Y-97556022D01*
X168230277Y-97548081D01*
X167980136Y-97472201D01*
X167720000Y-97446580D01*
X167459863Y-97472201D01*
X167209722Y-97548081D01*
X166979192Y-97671302D01*
X166777130Y-97837130D01*
X166611302Y-98039193D01*
X166488081Y-98269723D01*
X166450000Y-98395258D01*
X166411919Y-98269722D01*
X166288698Y-98039192D01*
X166122870Y-97837130D01*
X165957000Y-97701005D01*
X165957000Y-95176794D01*
X166025913Y-95130748D01*
X166210748Y-94945913D01*
X166355972Y-94728570D01*
X166456004Y-94487072D01*
X166507000Y-94230698D01*
X166507000Y-93969302D01*
X166456004Y-93712928D01*
X166355972Y-93471430D01*
X166210748Y-93254087D01*
X166025913Y-93069252D01*
X165808570Y-92924028D01*
X165567072Y-92823996D01*
X165310698Y-92773000D01*
X165049302Y-92773000D01*
X164792928Y-92823996D01*
X164551430Y-92924028D01*
X164334087Y-93069252D01*
X164149252Y-93254087D01*
X164004028Y-93471430D01*
X163903996Y-93712928D01*
X163853000Y-93969302D01*
X163853000Y-94230698D01*
X163903996Y-94487072D01*
X164004028Y-94728570D01*
X164149252Y-94945913D01*
X164334087Y-95130748D01*
X164403000Y-95176794D01*
X164403001Y-97701003D01*
X164237130Y-97837130D01*
X164071302Y-98039193D01*
X163966322Y-98235596D01*
X163917166Y-98113517D01*
X163762601Y-97877161D01*
X163564895Y-97675500D01*
X163331646Y-97516285D01*
X163071818Y-97405633D01*
X162989039Y-97388096D01*
X162767000Y-97510085D01*
X162767000Y-99053000D01*
X162787000Y-99053000D01*
X162787000Y-99307000D01*
X162767000Y-99307000D01*
X162767000Y-100849915D01*
X162989039Y-100971904D01*
X163071818Y-100954367D01*
X163331646Y-100843715D01*
X163564895Y-100684500D01*
X163762601Y-100482839D01*
X163917166Y-100246483D01*
X163966322Y-100124404D01*
X164071302Y-100320808D01*
X164237131Y-100522870D01*
X164439193Y-100688698D01*
X164669723Y-100811919D01*
X164919864Y-100887799D01*
X165180000Y-100913420D01*
X165440137Y-100887799D01*
X165690278Y-100811919D01*
X165920808Y-100688698D01*
X166122870Y-100522870D01*
X166288698Y-100320808D01*
X166411919Y-100090278D01*
X166450000Y-99964743D01*
X166488081Y-100090278D01*
X166611302Y-100320808D01*
X166777131Y-100522870D01*
X166979193Y-100688698D01*
X167209723Y-100811919D01*
X167454872Y-100886285D01*
X163165134Y-105176022D01*
X163150277Y-105168081D01*
X162900136Y-105092201D01*
X162640000Y-105066580D01*
X162379863Y-105092201D01*
X162129722Y-105168081D01*
X161899192Y-105291302D01*
X161697130Y-105457130D01*
X161531302Y-105659193D01*
X161408081Y-105889723D01*
X161370000Y-106015258D01*
X161331919Y-105889722D01*
X161208698Y-105659192D01*
X161042870Y-105457130D01*
X160840807Y-105291302D01*
X160610277Y-105168081D01*
X160360136Y-105092201D01*
X160100000Y-105066580D01*
X159839863Y-105092201D01*
X159589722Y-105168081D01*
X159359192Y-105291302D01*
X159157130Y-105457130D01*
X158991302Y-105659193D01*
X158868081Y-105889723D01*
X158830000Y-106015258D01*
X158791919Y-105889722D01*
X158668698Y-105659192D01*
X158502870Y-105457130D01*
X158300807Y-105291302D01*
X158070277Y-105168081D01*
X157820136Y-105092201D01*
X157560000Y-105066580D01*
X157299863Y-105092201D01*
X157049722Y-105168081D01*
X156819192Y-105291302D01*
X156617130Y-105457130D01*
X156451302Y-105659193D01*
X156328081Y-105889723D01*
X156290000Y-106015258D01*
X156251919Y-105889722D01*
X156128698Y-105659192D01*
X155962870Y-105457130D01*
X155760807Y-105291302D01*
X155530277Y-105168081D01*
X155280136Y-105092201D01*
X155020000Y-105066580D01*
X154759863Y-105092201D01*
X154509722Y-105168081D01*
X154279192Y-105291302D01*
X154077130Y-105457130D01*
X153911302Y-105659193D01*
X153809549Y-105849559D01*
X153809549Y-105600000D01*
X153799374Y-105496690D01*
X153769239Y-105397350D01*
X153720304Y-105305798D01*
X153654448Y-105225552D01*
X153574202Y-105159696D01*
X153482650Y-105110761D01*
X153383310Y-105080626D01*
X153280000Y-105070451D01*
X151849295Y-105070451D01*
X149246413Y-102467570D01*
X149222080Y-102437920D01*
X149103766Y-102340823D01*
X148968784Y-102268673D01*
X148822319Y-102224243D01*
X148708166Y-102213000D01*
X148708163Y-102213000D01*
X148670000Y-102209241D01*
X148631837Y-102213000D01*
X148476794Y-102213000D01*
X148430748Y-102144087D01*
X148245913Y-101959252D01*
X148028570Y-101814028D01*
X147787072Y-101713996D01*
X147530698Y-101663000D01*
X147269302Y-101663000D01*
X147012928Y-101713996D01*
X146771430Y-101814028D01*
X146554087Y-101959252D01*
X146369252Y-102144087D01*
X146224028Y-102361430D01*
X146123996Y-102602928D01*
X146073000Y-102859302D01*
X146073000Y-103120698D01*
X146123996Y-103377072D01*
X146224028Y-103618570D01*
X146369252Y-103835913D01*
X146554087Y-104020748D01*
X146771430Y-104165972D01*
X147012928Y-104266004D01*
X147269302Y-104317000D01*
X147530698Y-104317000D01*
X147787072Y-104266004D01*
X148028570Y-104165972D01*
X148245913Y-104020748D01*
X148423909Y-103842752D01*
X151150451Y-106569295D01*
X151150451Y-108000000D01*
X151160626Y-108103310D01*
X151190761Y-108202650D01*
X151239696Y-108294202D01*
X151305552Y-108374448D01*
X151385798Y-108440304D01*
X151477350Y-108489239D01*
X151576690Y-108519374D01*
X151680000Y-108529549D01*
X153280000Y-108529549D01*
X153383310Y-108519374D01*
X153482650Y-108489239D01*
X153574202Y-108440304D01*
X153654448Y-108374448D01*
X153720304Y-108294202D01*
X153769239Y-108202650D01*
X153799374Y-108103310D01*
X153809549Y-108000000D01*
X153809549Y-107750442D01*
X153911302Y-107940808D01*
X154077131Y-108142870D01*
X154187615Y-108233542D01*
X151318157Y-111103000D01*
X149746794Y-111103000D01*
X149700748Y-111034087D01*
X149515913Y-110849252D01*
X149298570Y-110704028D01*
X149057072Y-110603996D01*
X148800698Y-110553000D01*
X148539302Y-110553000D01*
X148282928Y-110603996D01*
X148041430Y-110704028D01*
X147824087Y-110849252D01*
X147639252Y-111034087D01*
X147494028Y-111251430D01*
X147393996Y-111492928D01*
X147343000Y-111749302D01*
X147343000Y-112010698D01*
X147393996Y-112267072D01*
X147494028Y-112508570D01*
X147590534Y-112653001D01*
X146731845Y-112653001D01*
X143562796Y-109483953D01*
X143567000Y-109462819D01*
X143567000Y-109217181D01*
X143519079Y-108976263D01*
X143425077Y-108749324D01*
X143288608Y-108545084D01*
X143114916Y-108371392D01*
X143097000Y-108359421D01*
X143097000Y-100256794D01*
X143165913Y-100210748D01*
X143350748Y-100025913D01*
X143495972Y-99808570D01*
X143596004Y-99567072D01*
X143647000Y-99310698D01*
X143647000Y-99049302D01*
X143596004Y-98792928D01*
X143495972Y-98551430D01*
X143350748Y-98334087D01*
X143165913Y-98149252D01*
X142948570Y-98004028D01*
X142707072Y-97903996D01*
X142450698Y-97853000D01*
X142189302Y-97853000D01*
X141932928Y-97903996D01*
X141691430Y-98004028D01*
X141474087Y-98149252D01*
X141289252Y-98334087D01*
X141144028Y-98551430D01*
X141043996Y-98792928D01*
X140993000Y-99049302D01*
X140993000Y-99310698D01*
X141043996Y-99567072D01*
X141144028Y-99808570D01*
X141289252Y-100025913D01*
X141474087Y-100210748D01*
X141543000Y-100256794D01*
X141543001Y-108359420D01*
X141525084Y-108371392D01*
X141351392Y-108545084D01*
X141339421Y-108563000D01*
X140760579Y-108563000D01*
X140748608Y-108545084D01*
X140574916Y-108371392D01*
X140370676Y-108234923D01*
X140143737Y-108140921D01*
X139902819Y-108093000D01*
X139657181Y-108093000D01*
X139416263Y-108140921D01*
X139189324Y-108234923D01*
X138985084Y-108371392D01*
X138811392Y-108545084D01*
X138674923Y-108749324D01*
X138580921Y-108976263D01*
X138533000Y-109217181D01*
X138533000Y-109462819D01*
X138580921Y-109703737D01*
X138674923Y-109930676D01*
X138811392Y-110134916D01*
X138985084Y-110308608D01*
X139189324Y-110445077D01*
X139416263Y-110539079D01*
X139657181Y-110587000D01*
X139902819Y-110587000D01*
X140143737Y-110539079D01*
X140370676Y-110445077D01*
X140574916Y-110308608D01*
X140748608Y-110134916D01*
X140760579Y-110117000D01*
X141339421Y-110117000D01*
X141351392Y-110134916D01*
X141525084Y-110308608D01*
X141729324Y-110445077D01*
X141956263Y-110539079D01*
X142197181Y-110587000D01*
X142442819Y-110587000D01*
X142463953Y-110582796D01*
X145434167Y-113553011D01*
X128151855Y-113553011D01*
X126455707Y-111856864D01*
X126482075Y-111769939D01*
X126508662Y-111500000D01*
X126482075Y-111230061D01*
X126403337Y-110970495D01*
X126275473Y-110731279D01*
X126103397Y-110521603D01*
X125902614Y-110356825D01*
X126023320Y-110320209D01*
X126158094Y-110248171D01*
X126276224Y-110151224D01*
X126373171Y-110033094D01*
X126445209Y-109898320D01*
X126489570Y-109752082D01*
X126504549Y-109600000D01*
X126504549Y-109570571D01*
X126527080Y-109552080D01*
X126551413Y-109522430D01*
X133214541Y-102859302D01*
X135913000Y-102859302D01*
X135913000Y-103120698D01*
X135963996Y-103377072D01*
X136064028Y-103618570D01*
X136209252Y-103835913D01*
X136394087Y-104020748D01*
X136463000Y-104066794D01*
X136463001Y-108359420D01*
X136445084Y-108371392D01*
X136271392Y-108545084D01*
X136134923Y-108749324D01*
X136040921Y-108976263D01*
X135993000Y-109217181D01*
X135993000Y-109462819D01*
X136040921Y-109703737D01*
X136134923Y-109930676D01*
X136271392Y-110134916D01*
X136445084Y-110308608D01*
X136649324Y-110445077D01*
X136876263Y-110539079D01*
X137117181Y-110587000D01*
X137362819Y-110587000D01*
X137603737Y-110539079D01*
X137830676Y-110445077D01*
X138034916Y-110308608D01*
X138208608Y-110134916D01*
X138345077Y-109930676D01*
X138439079Y-109703737D01*
X138487000Y-109462819D01*
X138487000Y-109217181D01*
X138439079Y-108976263D01*
X138345077Y-108749324D01*
X138208608Y-108545084D01*
X138034916Y-108371392D01*
X138017000Y-108359421D01*
X138017000Y-104066794D01*
X138085913Y-104020748D01*
X138270748Y-103835913D01*
X138415972Y-103618570D01*
X138516004Y-103377072D01*
X138567000Y-103120698D01*
X138567000Y-102859302D01*
X138516004Y-102602928D01*
X138415972Y-102361430D01*
X138270748Y-102144087D01*
X138085913Y-101959252D01*
X137868570Y-101814028D01*
X137627072Y-101713996D01*
X137370698Y-101663000D01*
X137109302Y-101663000D01*
X136852928Y-101713996D01*
X136611430Y-101814028D01*
X136394087Y-101959252D01*
X136209252Y-102144087D01*
X136064028Y-102361430D01*
X135963996Y-102602928D01*
X135913000Y-102859302D01*
X133214541Y-102859302D01*
X141082437Y-94991407D01*
X141112080Y-94967080D01*
X141136409Y-94937435D01*
X141209177Y-94848767D01*
X141245252Y-94781275D01*
X141281327Y-94713784D01*
X141325757Y-94567319D01*
X141337000Y-94453166D01*
X141337000Y-94453164D01*
X141340759Y-94415000D01*
X141337000Y-94376837D01*
X141337000Y-90596794D01*
X141405913Y-90550748D01*
X141590748Y-90365913D01*
X141735972Y-90148570D01*
X141836004Y-89907072D01*
X141887000Y-89650698D01*
X141887000Y-89389302D01*
X141836004Y-89132928D01*
X141735972Y-88891430D01*
X141590748Y-88674087D01*
X141405913Y-88489252D01*
X141237916Y-88377000D01*
X144404156Y-88377000D01*
X142887564Y-89893593D01*
X142857920Y-89917921D01*
X142833592Y-89947565D01*
X142833590Y-89947567D01*
X142760822Y-90036235D01*
X142688672Y-90171218D01*
X142668688Y-90237099D01*
X142650529Y-90296962D01*
X142644243Y-90317683D01*
X142629240Y-90470001D01*
X142633000Y-90508174D01*
X142632999Y-94757838D01*
X142629240Y-94796001D01*
X142632999Y-94834164D01*
X142632999Y-94834166D01*
X142644242Y-94948319D01*
X142688040Y-95092702D01*
X142688672Y-95094784D01*
X142760822Y-95229767D01*
X142808202Y-95287500D01*
X142857919Y-95348081D01*
X142887569Y-95372414D01*
X147217590Y-99702436D01*
X147241918Y-99732080D01*
X147271562Y-99756408D01*
X147271563Y-99756409D01*
X147360231Y-99829177D01*
X147400728Y-99850823D01*
X147495214Y-99901327D01*
X147641679Y-99945757D01*
X147755832Y-99957000D01*
X147755834Y-99957000D01*
X147793998Y-99960759D01*
X147832161Y-99957000D01*
X151207651Y-99957000D01*
X151248081Y-100090278D01*
X151371302Y-100320808D01*
X151537131Y-100522870D01*
X151739193Y-100688698D01*
X151969723Y-100811919D01*
X152219864Y-100887799D01*
X152480000Y-100913420D01*
X152740137Y-100887799D01*
X152990278Y-100811919D01*
X153220808Y-100688698D01*
X153422870Y-100522870D01*
X153588698Y-100320808D01*
X153711919Y-100090278D01*
X153750000Y-99964743D01*
X153788081Y-100090278D01*
X153911302Y-100320808D01*
X154077131Y-100522870D01*
X154279193Y-100688698D01*
X154509723Y-100811919D01*
X154759864Y-100887799D01*
X155020000Y-100913420D01*
X155280137Y-100887799D01*
X155530278Y-100811919D01*
X155760808Y-100688698D01*
X155962870Y-100522870D01*
X156128698Y-100320808D01*
X156251919Y-100090278D01*
X156290000Y-99964743D01*
X156328081Y-100090278D01*
X156451302Y-100320808D01*
X156617131Y-100522870D01*
X156819193Y-100688698D01*
X157049723Y-100811919D01*
X157299864Y-100887799D01*
X157560000Y-100913420D01*
X157820137Y-100887799D01*
X158070278Y-100811919D01*
X158300808Y-100688698D01*
X158502870Y-100522870D01*
X158668698Y-100320808D01*
X158791919Y-100090278D01*
X158830000Y-99964743D01*
X158868081Y-100090278D01*
X158991302Y-100320808D01*
X159157131Y-100522870D01*
X159359193Y-100688698D01*
X159589723Y-100811919D01*
X159839864Y-100887799D01*
X160100000Y-100913420D01*
X160360137Y-100887799D01*
X160610278Y-100811919D01*
X160840808Y-100688698D01*
X161042870Y-100522870D01*
X161208698Y-100320808D01*
X161313678Y-100124404D01*
X161362834Y-100246483D01*
X161517399Y-100482839D01*
X161715105Y-100684500D01*
X161948354Y-100843715D01*
X162208182Y-100954367D01*
X162290961Y-100971904D01*
X162513000Y-100849915D01*
X162513000Y-99307000D01*
X162493000Y-99307000D01*
X162493000Y-99053000D01*
X162513000Y-99053000D01*
X162513000Y-97510085D01*
X162290961Y-97388096D01*
X162208182Y-97405633D01*
X161948354Y-97516285D01*
X161715105Y-97675500D01*
X161517399Y-97877161D01*
X161362834Y-98113517D01*
X161313678Y-98235596D01*
X161208698Y-98039192D01*
X161042870Y-97837130D01*
X160840807Y-97671302D01*
X160610277Y-97548081D01*
X160360136Y-97472201D01*
X160100000Y-97446580D01*
X159839863Y-97472201D01*
X159589722Y-97548081D01*
X159574866Y-97556022D01*
X157111546Y-95092702D01*
X159366903Y-95092702D01*
X159438486Y-95336671D01*
X159693996Y-95457571D01*
X159968184Y-95526300D01*
X160250512Y-95540217D01*
X160530130Y-95498787D01*
X160796292Y-95403603D01*
X160921514Y-95336671D01*
X160993097Y-95092702D01*
X160180000Y-94279605D01*
X159366903Y-95092702D01*
X157111546Y-95092702D01*
X156330831Y-94311987D01*
X156347000Y-94230698D01*
X156347000Y-94170512D01*
X158739783Y-94170512D01*
X158781213Y-94450130D01*
X158876397Y-94716292D01*
X158943329Y-94841514D01*
X159187298Y-94913097D01*
X160000395Y-94100000D01*
X160359605Y-94100000D01*
X161172702Y-94913097D01*
X161416671Y-94841514D01*
X161537571Y-94586004D01*
X161606300Y-94311816D01*
X161620217Y-94029488D01*
X161578787Y-93749870D01*
X161483603Y-93483708D01*
X161416671Y-93358486D01*
X161172702Y-93286903D01*
X160359605Y-94100000D01*
X160000395Y-94100000D01*
X159187298Y-93286903D01*
X158943329Y-93358486D01*
X158822429Y-93613996D01*
X158753700Y-93888184D01*
X158739783Y-94170512D01*
X156347000Y-94170512D01*
X156347000Y-93969302D01*
X156296004Y-93712928D01*
X156195972Y-93471430D01*
X156050748Y-93254087D01*
X155903959Y-93107298D01*
X159366903Y-93107298D01*
X160180000Y-93920395D01*
X160993097Y-93107298D01*
X160921514Y-92863329D01*
X160666004Y-92742429D01*
X160391816Y-92673700D01*
X160109488Y-92659783D01*
X159829870Y-92701213D01*
X159563708Y-92796397D01*
X159438486Y-92863329D01*
X159366903Y-93107298D01*
X155903959Y-93107298D01*
X155865913Y-93069252D01*
X155648570Y-92924028D01*
X155407072Y-92823996D01*
X155150698Y-92773000D01*
X154889302Y-92773000D01*
X154632928Y-92823996D01*
X154391430Y-92924028D01*
X154174087Y-93069252D01*
X153989252Y-93254087D01*
X153943206Y-93323000D01*
X151016794Y-93323000D01*
X150970748Y-93254087D01*
X150785913Y-93069252D01*
X150568570Y-92924028D01*
X150327072Y-92823996D01*
X150070698Y-92773000D01*
X149809302Y-92773000D01*
X149552928Y-92823996D01*
X149311430Y-92924028D01*
X149266999Y-92953716D01*
X149266999Y-92064650D01*
X152080537Y-89251112D01*
X162473000Y-89251112D01*
X162473000Y-89748888D01*
X162570111Y-90237099D01*
X162760602Y-90696983D01*
X163037151Y-91110869D01*
X163389131Y-91462849D01*
X163803017Y-91739398D01*
X164262901Y-91929889D01*
X164751112Y-92027000D01*
X165248888Y-92027000D01*
X165737099Y-91929889D01*
X166196983Y-91739398D01*
X166610869Y-91462849D01*
X166962849Y-91110869D01*
X167239398Y-90696983D01*
X167429889Y-90237099D01*
X167527000Y-89748888D01*
X167527000Y-89251112D01*
X167429889Y-88762901D01*
X167239398Y-88303017D01*
X166962849Y-87889131D01*
X166610869Y-87537151D01*
X166196983Y-87260602D01*
X165737099Y-87070111D01*
X165248888Y-86973000D01*
X164751112Y-86973000D01*
X164262901Y-87070111D01*
X163803017Y-87260602D01*
X163389131Y-87537151D01*
X163037151Y-87889131D01*
X162760602Y-88303017D01*
X162570111Y-88762901D01*
X162473000Y-89251112D01*
X152080537Y-89251112D01*
X154092436Y-87239214D01*
X154122079Y-87214887D01*
X154147625Y-87183759D01*
X154219176Y-87096574D01*
X154274222Y-86993590D01*
X154291326Y-86961591D01*
X154335756Y-86815126D01*
X154346999Y-86700973D01*
X154346999Y-86700971D01*
X154350758Y-86662807D01*
X154346999Y-86624644D01*
X154346999Y-85201484D01*
X154536913Y-85291246D01*
X154670961Y-85331904D01*
X154893000Y-85209915D01*
X154893000Y-84067000D01*
X155147000Y-84067000D01*
X155147000Y-85209915D01*
X155369039Y-85331904D01*
X155503087Y-85291246D01*
X155757420Y-85171037D01*
X155983414Y-85003519D01*
X156172385Y-84795131D01*
X156317070Y-84553881D01*
X156411909Y-84289040D01*
X156290624Y-84067000D01*
X155147000Y-84067000D01*
X154893000Y-84067000D01*
X154873000Y-84067000D01*
X154873000Y-83813000D01*
X154893000Y-83813000D01*
X154893000Y-82670085D01*
X155147000Y-82670085D01*
X155147000Y-83813000D01*
X156290624Y-83813000D01*
X156411909Y-83590960D01*
X156317070Y-83326119D01*
X156172385Y-83084869D01*
X155983414Y-82876481D01*
X155757420Y-82708963D01*
X155503087Y-82588754D01*
X155369039Y-82548096D01*
X155147000Y-82670085D01*
X154893000Y-82670085D01*
X154864446Y-82654397D01*
X159888013Y-77630831D01*
X159969302Y-77647000D01*
X160230698Y-77647000D01*
X160487072Y-77596004D01*
X160728570Y-77495972D01*
X160945913Y-77350748D01*
X161130748Y-77165913D01*
X161275972Y-76948570D01*
X161376004Y-76707072D01*
X161427000Y-76450698D01*
X161427000Y-76189302D01*
X161376004Y-75932928D01*
X161275972Y-75691430D01*
X161246284Y-75646999D01*
X162770158Y-75646999D01*
X165307896Y-78184737D01*
X165248888Y-78173000D01*
X164751112Y-78173000D01*
X164262901Y-78270111D01*
X163803017Y-78460602D01*
X163389131Y-78737151D01*
X163037151Y-79089131D01*
X162760602Y-79503017D01*
X162570111Y-79962901D01*
X162473000Y-80451112D01*
X162473000Y-80948888D01*
X162570111Y-81437099D01*
X162760602Y-81896983D01*
X163037151Y-82310869D01*
X163389131Y-82662849D01*
X163803017Y-82939398D01*
X164262901Y-83129889D01*
X164751112Y-83227000D01*
X165248888Y-83227000D01*
X165737099Y-83129889D01*
X166196983Y-82939398D01*
X166610869Y-82662849D01*
X166962849Y-82310869D01*
X167239398Y-81896983D01*
X167429889Y-81437099D01*
X167527000Y-80948888D01*
X167527000Y-80451112D01*
X167515263Y-80392104D01*
X169672999Y-82549841D01*
X169673000Y-86011826D01*
X169669240Y-86049999D01*
X169675222Y-86110727D01*
X169684243Y-86202318D01*
X169697720Y-86246747D01*
X169728672Y-86348782D01*
X169800822Y-86483765D01*
X169873590Y-86572433D01*
X169897920Y-86602079D01*
X169927564Y-86626407D01*
X170604126Y-87302969D01*
X170573000Y-87459453D01*
X170573000Y-87740547D01*
X170627838Y-88016241D01*
X170735409Y-88275938D01*
X170891576Y-88509660D01*
X171090340Y-88708424D01*
X171324062Y-88864591D01*
X171583759Y-88972162D01*
X171859453Y-89027000D01*
X172140547Y-89027000D01*
X172416241Y-88972162D01*
X172675938Y-88864591D01*
X172909660Y-88708424D01*
X173108424Y-88509660D01*
X173264591Y-88275938D01*
X173372162Y-88016241D01*
X173427000Y-87740547D01*
X173427000Y-87459453D01*
X173372162Y-87183759D01*
X173264591Y-86924062D01*
X173108424Y-86690340D01*
X172909660Y-86491576D01*
X172697775Y-86350000D01*
X172909660Y-86208424D01*
X173108424Y-86009660D01*
X173197064Y-85877000D01*
X174223115Y-85877000D01*
X174309252Y-86005913D01*
X174494087Y-86190748D01*
X174711430Y-86335972D01*
X174952928Y-86436004D01*
X175209302Y-86487000D01*
X175470698Y-86487000D01*
X175727072Y-86436004D01*
X175968570Y-86335972D01*
X176185913Y-86190748D01*
X176370748Y-86005913D01*
X176515972Y-85788570D01*
X176616004Y-85547072D01*
X176667000Y-85290698D01*
X176667000Y-85029302D01*
X176616004Y-84772928D01*
X176515972Y-84531430D01*
X176370748Y-84314087D01*
X176185913Y-84129252D01*
X175968570Y-83984028D01*
X175727072Y-83883996D01*
X175470698Y-83833000D01*
X175209302Y-83833000D01*
X174952928Y-83883996D01*
X174711430Y-83984028D01*
X174494087Y-84129252D01*
X174309252Y-84314087D01*
X174303297Y-84323000D01*
X173197064Y-84323000D01*
X173108424Y-84190340D01*
X172909660Y-83991576D01*
X172697775Y-83850000D01*
X172909660Y-83708424D01*
X173108424Y-83509660D01*
X173264591Y-83275938D01*
X173372162Y-83016241D01*
X173427000Y-82740547D01*
X173427000Y-82459453D01*
X173372162Y-82183759D01*
X173264591Y-81924062D01*
X173108424Y-81690340D01*
X172909660Y-81491576D01*
X172777000Y-81402936D01*
X172777000Y-78098163D01*
X172780759Y-78060000D01*
X172772903Y-77980240D01*
X172765757Y-77907681D01*
X172721327Y-77761216D01*
X172696195Y-77714199D01*
X172649178Y-77626234D01*
X172576409Y-77537565D01*
X172576408Y-77537564D01*
X172552080Y-77507920D01*
X172522437Y-77483593D01*
X171570831Y-76531987D01*
X171587000Y-76450698D01*
X171587000Y-76189302D01*
X171536004Y-75932928D01*
X171435972Y-75691430D01*
X171290748Y-75474087D01*
X171105913Y-75289252D01*
X170888570Y-75144028D01*
X170647072Y-75043996D01*
X170390698Y-74993000D01*
X170129302Y-74993000D01*
X169872928Y-75043996D01*
X169631430Y-75144028D01*
X169414087Y-75289252D01*
X169229252Y-75474087D01*
X169084028Y-75691430D01*
X168983996Y-75932928D01*
X168933000Y-76189302D01*
X168933000Y-76450698D01*
X168983996Y-76707072D01*
X169084028Y-76948570D01*
X169229252Y-77165913D01*
X169414087Y-77350748D01*
X169631430Y-77495972D01*
X169872928Y-77596004D01*
X170129302Y-77647000D01*
X170390698Y-77647000D01*
X170471987Y-77630831D01*
X171223000Y-78381844D01*
X171223001Y-81402936D01*
X171090340Y-81491576D01*
X170951381Y-81630535D01*
X163668414Y-74347569D01*
X163644081Y-74317919D01*
X163525767Y-74220822D01*
X163390785Y-74148672D01*
X163244320Y-74104242D01*
X163130167Y-74092999D01*
X163130164Y-74092999D01*
X163092001Y-74089240D01*
X163053838Y-74092999D01*
X159048164Y-74092999D01*
X159010001Y-74089240D01*
X158971837Y-74092999D01*
X158971835Y-74092999D01*
X158857682Y-74104242D01*
X158711217Y-74148672D01*
X158664200Y-74173804D01*
X158576235Y-74220821D01*
X158487566Y-74293590D01*
X158457921Y-74317919D01*
X158433593Y-74347563D01*
X155231987Y-77549169D01*
X155150698Y-77533000D01*
X154905843Y-77533000D01*
X165286141Y-67152702D01*
X169446903Y-67152702D01*
X169518486Y-67396671D01*
X169773996Y-67517571D01*
X170048184Y-67586300D01*
X170330512Y-67600217D01*
X170610130Y-67558787D01*
X170876292Y-67463603D01*
X171001514Y-67396671D01*
X171073097Y-67152702D01*
X170260000Y-66339605D01*
X169446903Y-67152702D01*
X165286141Y-67152702D01*
X166208331Y-66230512D01*
X168819783Y-66230512D01*
X168861213Y-66510130D01*
X168956397Y-66776292D01*
X169023329Y-66901514D01*
X169267298Y-66973097D01*
X170080395Y-66160000D01*
X170439605Y-66160000D01*
X171252702Y-66973097D01*
X171496671Y-66901514D01*
X171617571Y-66646004D01*
X171686300Y-66371816D01*
X171700217Y-66089488D01*
X171658787Y-65809870D01*
X171563603Y-65543708D01*
X171496671Y-65418486D01*
X171252702Y-65346903D01*
X170439605Y-66160000D01*
X170080395Y-66160000D01*
X169267298Y-65346903D01*
X169023329Y-65418486D01*
X168902429Y-65673996D01*
X168833700Y-65948184D01*
X168819783Y-66230512D01*
X166208331Y-66230512D01*
X167271545Y-65167298D01*
X169446903Y-65167298D01*
X170260000Y-65980395D01*
X171073097Y-65167298D01*
X171001514Y-64923329D01*
X170746004Y-64802429D01*
X170471816Y-64733700D01*
X170189488Y-64719783D01*
X169909870Y-64761213D01*
X169643708Y-64856397D01*
X169518486Y-64923329D01*
X169446903Y-65167298D01*
X167271545Y-65167298D01*
X170048013Y-62390831D01*
X170129302Y-62407000D01*
X170390698Y-62407000D01*
X170647072Y-62356004D01*
X170888570Y-62255972D01*
X171105913Y-62110748D01*
X171290748Y-61925913D01*
X171336794Y-61857000D01*
X174263206Y-61857000D01*
X174309252Y-61925913D01*
X174494087Y-62110748D01*
X174711430Y-62255972D01*
X174952928Y-62356004D01*
X175209302Y-62407000D01*
X175470698Y-62407000D01*
X175727072Y-62356004D01*
X175968570Y-62255972D01*
X176185913Y-62110748D01*
X176370748Y-61925913D01*
X176515972Y-61708570D01*
X176616004Y-61467072D01*
X176667000Y-61210698D01*
X176667000Y-60949302D01*
X176616004Y-60692928D01*
X176515972Y-60451430D01*
X176370748Y-60234087D01*
X176185913Y-60049252D01*
X175968570Y-59904028D01*
X175727072Y-59803996D01*
X175470698Y-59753000D01*
X175209302Y-59753000D01*
X174952928Y-59803996D01*
X174711430Y-59904028D01*
X174494087Y-60049252D01*
X174309252Y-60234087D01*
X174263206Y-60303000D01*
X171336794Y-60303000D01*
X171290748Y-60234087D01*
X171105913Y-60049252D01*
X170888570Y-59904028D01*
X170647072Y-59803996D01*
X170390698Y-59753000D01*
X170129302Y-59753000D01*
X169872928Y-59803996D01*
X169631430Y-59904028D01*
X169414087Y-60049252D01*
X169229252Y-60234087D01*
X169084028Y-60451430D01*
X168983996Y-60692928D01*
X168933000Y-60949302D01*
X168933000Y-61210698D01*
X168949169Y-61291987D01*
X150867566Y-79373591D01*
X150837922Y-79397919D01*
X150813594Y-79427563D01*
X150813592Y-79427565D01*
X150740824Y-79516233D01*
X150668674Y-79651216D01*
X150624245Y-79797681D01*
X150609242Y-79949999D01*
X150613002Y-79988172D01*
X150613002Y-82793716D01*
X150568570Y-82764028D01*
X150327072Y-82663996D01*
X150070698Y-82613000D01*
X149809302Y-82613000D01*
X149728013Y-82629169D01*
X146170831Y-79071987D01*
X146187000Y-78990698D01*
X146187000Y-78729302D01*
X146136004Y-78472928D01*
X146035972Y-78231430D01*
X145890748Y-78014087D01*
X145705913Y-77829252D01*
X145488570Y-77684028D01*
X145247072Y-77583996D01*
X144990698Y-77533000D01*
X144729302Y-77533000D01*
X144472928Y-77583996D01*
X144231430Y-77684028D01*
X144014087Y-77829252D01*
X143829252Y-78014087D01*
X143684028Y-78231430D01*
X143583996Y-78472928D01*
X143533000Y-78729302D01*
X143533000Y-78990698D01*
X143583996Y-79247072D01*
X143684028Y-79488570D01*
X143829252Y-79705913D01*
X144014087Y-79890748D01*
X144231430Y-80035972D01*
X144472928Y-80136004D01*
X144729302Y-80187000D01*
X144990698Y-80187000D01*
X145071987Y-80170831D01*
X148629169Y-83728013D01*
X148613000Y-83809302D01*
X148613000Y-84070698D01*
X148629169Y-84151987D01*
X145958157Y-86823000D01*
X138197064Y-86823000D01*
X138108424Y-86690340D01*
X137909660Y-86491576D01*
X137697775Y-86350000D01*
X137909660Y-86208424D01*
X138108424Y-86009660D01*
X138263881Y-85777000D01*
X143761837Y-85777000D01*
X143800000Y-85780759D01*
X143838163Y-85777000D01*
X143838166Y-85777000D01*
X143952319Y-85765757D01*
X144098784Y-85721327D01*
X144233766Y-85649177D01*
X144352080Y-85552080D01*
X144376412Y-85522431D01*
X144648013Y-85250831D01*
X144729302Y-85267000D01*
X144990698Y-85267000D01*
X145247072Y-85216004D01*
X145488570Y-85115972D01*
X145705913Y-84970748D01*
X145890748Y-84785913D01*
X146035972Y-84568570D01*
X146136004Y-84327072D01*
X146187000Y-84070698D01*
X146187000Y-83809302D01*
X146136004Y-83552928D01*
X146035972Y-83311430D01*
X145890748Y-83094087D01*
X145705913Y-82909252D01*
X145488570Y-82764028D01*
X145247072Y-82663996D01*
X144990698Y-82613000D01*
X144729302Y-82613000D01*
X144472928Y-82663996D01*
X144231430Y-82764028D01*
X144014087Y-82909252D01*
X143829252Y-83094087D01*
X143684028Y-83311430D01*
X143583996Y-83552928D01*
X143533000Y-83809302D01*
X143533000Y-84070698D01*
X143549169Y-84151987D01*
X143478157Y-84223000D01*
X138130247Y-84223000D01*
X138108424Y-84190340D01*
X137909660Y-83991576D01*
X137697775Y-83850000D01*
X137909660Y-83708424D01*
X138108424Y-83509660D01*
X138264591Y-83275938D01*
X138372162Y-83016241D01*
X138427000Y-82740547D01*
X138427000Y-82459453D01*
X138372162Y-82183759D01*
X138264591Y-81924062D01*
X138161185Y-81769302D01*
X139233000Y-81769302D01*
X139233000Y-82030698D01*
X139283996Y-82287072D01*
X139384028Y-82528570D01*
X139529252Y-82745913D01*
X139714087Y-82930748D01*
X139931430Y-83075972D01*
X140172928Y-83176004D01*
X140429302Y-83227000D01*
X140690698Y-83227000D01*
X140947072Y-83176004D01*
X141188570Y-83075972D01*
X141405913Y-82930748D01*
X141590748Y-82745913D01*
X141735972Y-82528570D01*
X141836004Y-82287072D01*
X141887000Y-82030698D01*
X141887000Y-81769302D01*
X141836004Y-81512928D01*
X141735972Y-81271430D01*
X141590748Y-81054087D01*
X141405913Y-80869252D01*
X141337000Y-80823206D01*
X141337000Y-74197845D01*
X149025805Y-66509040D01*
X158708091Y-66509040D01*
X158802930Y-66773881D01*
X158947615Y-67015131D01*
X159136586Y-67223519D01*
X159362580Y-67391037D01*
X159616913Y-67511246D01*
X159750961Y-67551904D01*
X159973000Y-67429915D01*
X159973000Y-66287000D01*
X160227000Y-66287000D01*
X160227000Y-67429915D01*
X160449039Y-67551904D01*
X160583087Y-67511246D01*
X160837420Y-67391037D01*
X161063414Y-67223519D01*
X161252385Y-67015131D01*
X161397070Y-66773881D01*
X161491909Y-66509040D01*
X161370624Y-66287000D01*
X160227000Y-66287000D01*
X159973000Y-66287000D01*
X158829376Y-66287000D01*
X158708091Y-66509040D01*
X149025805Y-66509040D01*
X149723885Y-65810960D01*
X158708091Y-65810960D01*
X158829376Y-66033000D01*
X159973000Y-66033000D01*
X159973000Y-64890085D01*
X160227000Y-64890085D01*
X160227000Y-66033000D01*
X161370624Y-66033000D01*
X161491909Y-65810960D01*
X161397070Y-65546119D01*
X161252385Y-65304869D01*
X161063414Y-65096481D01*
X160837420Y-64928963D01*
X160583087Y-64808754D01*
X160449039Y-64768096D01*
X160227000Y-64890085D01*
X159973000Y-64890085D01*
X159750961Y-64768096D01*
X159616913Y-64808754D01*
X159362580Y-64928963D01*
X159136586Y-65096481D01*
X158947615Y-65304869D01*
X158802930Y-65546119D01*
X158708091Y-65810960D01*
X149723885Y-65810960D01*
X154999105Y-60535741D01*
X154933996Y-60692928D01*
X154883000Y-60949302D01*
X154883000Y-61210698D01*
X154933996Y-61467072D01*
X155034028Y-61708570D01*
X155179252Y-61925913D01*
X155364087Y-62110748D01*
X155581430Y-62255972D01*
X155822928Y-62356004D01*
X156079302Y-62407000D01*
X156340698Y-62407000D01*
X156597072Y-62356004D01*
X156838570Y-62255972D01*
X157055913Y-62110748D01*
X157240748Y-61925913D01*
X157286794Y-61857000D01*
X159023206Y-61857000D01*
X159069252Y-61925913D01*
X159254087Y-62110748D01*
X159471430Y-62255972D01*
X159712928Y-62356004D01*
X159969302Y-62407000D01*
X160230698Y-62407000D01*
X160487072Y-62356004D01*
X160728570Y-62255972D01*
X160945913Y-62110748D01*
X161130748Y-61925913D01*
X161275972Y-61708570D01*
X161376004Y-61467072D01*
X161427000Y-61210698D01*
X161427000Y-60949302D01*
X161376004Y-60692928D01*
X161275972Y-60451430D01*
X161130748Y-60234087D01*
X160945913Y-60049252D01*
X160728570Y-59904028D01*
X160487072Y-59803996D01*
X160230698Y-59753000D01*
X159969302Y-59753000D01*
X159712928Y-59803996D01*
X159471430Y-59904028D01*
X159254087Y-60049252D01*
X159069252Y-60234087D01*
X159023206Y-60303000D01*
X157286794Y-60303000D01*
X157240748Y-60234087D01*
X157055913Y-60049252D01*
X156838570Y-59904028D01*
X156597072Y-59803996D01*
X156340698Y-59753000D01*
X156079302Y-59753000D01*
X155822928Y-59803996D01*
X155581430Y-59904028D01*
X155517857Y-59946506D01*
X155527330Y-59928783D01*
X155571760Y-59782318D01*
X155583003Y-59668165D01*
X155583003Y-59668163D01*
X155586762Y-59629999D01*
X155583003Y-59591836D01*
X155583003Y-57815840D01*
X156121844Y-57277000D01*
X180598157Y-57277000D01*
X183527564Y-60206408D01*
X183527569Y-60206412D01*
X184189169Y-60868013D01*
X184173000Y-60949302D01*
X184173000Y-61210698D01*
X184223996Y-61467072D01*
X184324028Y-61708570D01*
X184469252Y-61925913D01*
X184654087Y-62110748D01*
X184871430Y-62255972D01*
X185112928Y-62356004D01*
X185369302Y-62407000D01*
X185630698Y-62407000D01*
X185887072Y-62356004D01*
X186128570Y-62255972D01*
X186345913Y-62110748D01*
X186530748Y-61925913D01*
X186675972Y-61708570D01*
X186776004Y-61467072D01*
X186827000Y-61210698D01*
X186827000Y-60949302D01*
X186776004Y-60692928D01*
X186675972Y-60451430D01*
X186530748Y-60234087D01*
X186345913Y-60049252D01*
X186128570Y-59904028D01*
X185887072Y-59803996D01*
X185630698Y-59753000D01*
X185369302Y-59753000D01*
X185288013Y-59769169D01*
X184626412Y-59107569D01*
X184626408Y-59107564D01*
X181496413Y-55977570D01*
X181472080Y-55947920D01*
X181353766Y-55850823D01*
X181218784Y-55778673D01*
X181072319Y-55734243D01*
X180958166Y-55723000D01*
X180958163Y-55723000D01*
X180920000Y-55719241D01*
X180881837Y-55723000D01*
X155838155Y-55723000D01*
X155799999Y-55719242D01*
X155761843Y-55723000D01*
X155761834Y-55723000D01*
X155647681Y-55734243D01*
X155501216Y-55778673D01*
X155366233Y-55850823D01*
X155277565Y-55923591D01*
X155247920Y-55947920D01*
X155223592Y-55977564D01*
X154283568Y-56917589D01*
X154253924Y-56941917D01*
X154229596Y-56971561D01*
X154229594Y-56971563D01*
X154156826Y-57060231D01*
X154084676Y-57195214D01*
X154040247Y-57341679D01*
X154025244Y-57493997D01*
X154029004Y-57532170D01*
X154029003Y-59308155D01*
X152608392Y-60728766D01*
X152513603Y-60463708D01*
X152446671Y-60338486D01*
X152202702Y-60266903D01*
X151389605Y-61080000D01*
X151403748Y-61094143D01*
X151224143Y-61273748D01*
X151210000Y-61259605D01*
X150396903Y-62072702D01*
X150468486Y-62316671D01*
X150723996Y-62437571D01*
X150864394Y-62472764D01*
X140037565Y-73299594D01*
X140007921Y-73323922D01*
X139983593Y-73353566D01*
X139983591Y-73353568D01*
X139910823Y-73442236D01*
X139838673Y-73577219D01*
X139815356Y-73654087D01*
X139795592Y-73719241D01*
X139794244Y-73723684D01*
X139779241Y-73876002D01*
X139783001Y-73914175D01*
X139783000Y-80823206D01*
X139714087Y-80869252D01*
X139529252Y-81054087D01*
X139384028Y-81271430D01*
X139283996Y-81512928D01*
X139233000Y-81769302D01*
X138161185Y-81769302D01*
X138108424Y-81690340D01*
X137909660Y-81491576D01*
X137675938Y-81335409D01*
X137416241Y-81227838D01*
X137140547Y-81173000D01*
X136859453Y-81173000D01*
X136583759Y-81227838D01*
X136324062Y-81335409D01*
X136090340Y-81491576D01*
X135891576Y-81690340D01*
X135735409Y-81924062D01*
X135627838Y-82183759D01*
X135573000Y-82459453D01*
X135573000Y-82740547D01*
X135627838Y-83016241D01*
X135735409Y-83275938D01*
X135891576Y-83509660D01*
X136090340Y-83708424D01*
X136302225Y-83850000D01*
X136090340Y-83991576D01*
X135891576Y-84190340D01*
X135735409Y-84424062D01*
X135627838Y-84683759D01*
X135573000Y-84959453D01*
X135573000Y-85240547D01*
X135627838Y-85516241D01*
X135735409Y-85775938D01*
X135891576Y-86009660D01*
X136090340Y-86208424D01*
X136302225Y-86350000D01*
X136090340Y-86491576D01*
X135891576Y-86690340D01*
X135735409Y-86924062D01*
X135627838Y-87183759D01*
X135573000Y-87459453D01*
X135573000Y-87740547D01*
X135627838Y-88016241D01*
X135735409Y-88275938D01*
X135891576Y-88509660D01*
X136090340Y-88708424D01*
X136223001Y-88797065D01*
X136223000Y-96164158D01*
X133650268Y-98736891D01*
X133681326Y-98678785D01*
X133689148Y-98653000D01*
X133725756Y-98532320D01*
X133736999Y-98418167D01*
X133736999Y-98418158D01*
X133740757Y-98380002D01*
X133736999Y-98341846D01*
X133736999Y-74581844D01*
X147168331Y-61150512D01*
X149769783Y-61150512D01*
X149811213Y-61430130D01*
X149906397Y-61696292D01*
X149973329Y-61821514D01*
X150217298Y-61893097D01*
X151030395Y-61080000D01*
X150217298Y-60266903D01*
X149973329Y-60338486D01*
X149852429Y-60593996D01*
X149783700Y-60868184D01*
X149769783Y-61150512D01*
X147168331Y-61150512D01*
X148231545Y-60087298D01*
X150396903Y-60087298D01*
X151210000Y-60900395D01*
X152023097Y-60087298D01*
X151951514Y-59843329D01*
X151696004Y-59722429D01*
X151421816Y-59653700D01*
X151139488Y-59639783D01*
X150859870Y-59681213D01*
X150593708Y-59776397D01*
X150468486Y-59843329D01*
X150396903Y-60087298D01*
X148231545Y-60087298D01*
X153581844Y-54737000D01*
X183418157Y-54737000D01*
X188723000Y-60041844D01*
X188723001Y-61423205D01*
X188654087Y-61469252D01*
X188469252Y-61654087D01*
X188324028Y-61871430D01*
X188223996Y-62112928D01*
X188173000Y-62369302D01*
X188173000Y-62630698D01*
X188223996Y-62887072D01*
X188324028Y-63128570D01*
X188469252Y-63345913D01*
X188654087Y-63530748D01*
X188871430Y-63675972D01*
X189112928Y-63776004D01*
X189369302Y-63827000D01*
X189630698Y-63827000D01*
X189887072Y-63776004D01*
X190128570Y-63675972D01*
X190345913Y-63530748D01*
X190530748Y-63345913D01*
X190675972Y-63128570D01*
X190776004Y-62887072D01*
X190827000Y-62630698D01*
X190827000Y-62369302D01*
X190776004Y-62112928D01*
X190675972Y-61871430D01*
X190530748Y-61654087D01*
X190345913Y-61469252D01*
X190277000Y-61423206D01*
X190277000Y-59758155D01*
X190280758Y-59719999D01*
X190277000Y-59681843D01*
X190277000Y-59681834D01*
X190265757Y-59567681D01*
X190221327Y-59421216D01*
X190149178Y-59286235D01*
X190149177Y-59286233D01*
X190076409Y-59197565D01*
X190076408Y-59197564D01*
X190052080Y-59167920D01*
X190022437Y-59143593D01*
X184316413Y-53437570D01*
X184292080Y-53407920D01*
X184173766Y-53310823D01*
X184038784Y-53238673D01*
X183892319Y-53194243D01*
X183778166Y-53183000D01*
X183778163Y-53183000D01*
X183740000Y-53179241D01*
X183701837Y-53183000D01*
X153298163Y-53183000D01*
X153260000Y-53179241D01*
X153221836Y-53183000D01*
X153221834Y-53183000D01*
X153107681Y-53194243D01*
X152961216Y-53238673D01*
X152826234Y-53310823D01*
X152707920Y-53407920D01*
X152683592Y-53437564D01*
X132437564Y-73683593D01*
X132407920Y-73707921D01*
X132383592Y-73737565D01*
X132383590Y-73737567D01*
X132310822Y-73826235D01*
X132238672Y-73961218D01*
X132218317Y-74028320D01*
X132199838Y-74089240D01*
X132194243Y-74107683D01*
X132179240Y-74260001D01*
X132183000Y-74298174D01*
X132183000Y-79418611D01*
X131962849Y-79089131D01*
X131610869Y-78737151D01*
X131196983Y-78460602D01*
X130737099Y-78270111D01*
X130248888Y-78173000D01*
X129751112Y-78173000D01*
X129262901Y-78270111D01*
X128803017Y-78460602D01*
X128389131Y-78737151D01*
X128037151Y-79089131D01*
X127760602Y-79503017D01*
X127570111Y-79962901D01*
X127473000Y-80451112D01*
X127473000Y-80948888D01*
X127570111Y-81437099D01*
X127760602Y-81896983D01*
X128037151Y-82310869D01*
X128389131Y-82662849D01*
X128803017Y-82939398D01*
X129262901Y-83129889D01*
X129751112Y-83227000D01*
X130248888Y-83227000D01*
X130737099Y-83129889D01*
X131196983Y-82939398D01*
X131610869Y-82662849D01*
X131962849Y-82310869D01*
X132183000Y-81981389D01*
X132182999Y-88218610D01*
X131962849Y-87889131D01*
X131610869Y-87537151D01*
X131196983Y-87260602D01*
X130737099Y-87070111D01*
X130248888Y-86973000D01*
X129751112Y-86973000D01*
X129262901Y-87070111D01*
X128803017Y-87260602D01*
X128389131Y-87537151D01*
X128037151Y-87889131D01*
X127760602Y-88303017D01*
X127570111Y-88762901D01*
X127473000Y-89251112D01*
X127473000Y-89748888D01*
X127570111Y-90237099D01*
X127760602Y-90696983D01*
X128037151Y-91110869D01*
X128389131Y-91462849D01*
X128803017Y-91739398D01*
X129262901Y-91929889D01*
X129751112Y-92027000D01*
X130248888Y-92027000D01*
X130737099Y-91929889D01*
X131196983Y-91739398D01*
X131610869Y-91462849D01*
X131962849Y-91110869D01*
X132182999Y-90781390D01*
X132182999Y-97044155D01*
X115404918Y-80266075D01*
X115430600Y-80136962D01*
X115430600Y-79863038D01*
X115377160Y-79594377D01*
X115272334Y-79341304D01*
X115120150Y-79113544D01*
X114926456Y-78919850D01*
X114698696Y-78767666D01*
X114445623Y-78662840D01*
X114176962Y-78609400D01*
X113903038Y-78609400D01*
X113634377Y-78662840D01*
X113381304Y-78767666D01*
X113153544Y-78919850D01*
X112959850Y-79113544D01*
X112893149Y-79213369D01*
X112893149Y-79136400D01*
X112882974Y-79033090D01*
X112852839Y-78933750D01*
X112803904Y-78842198D01*
X112738048Y-78761952D01*
X112657802Y-78696096D01*
X112566250Y-78647161D01*
X112466910Y-78617026D01*
X112363600Y-78606851D01*
X112277000Y-78606851D01*
X112277000Y-71576794D01*
X112345913Y-71530748D01*
X112530748Y-71345913D01*
X112561933Y-71299242D01*
X112561928Y-71300000D01*
X112574188Y-71424482D01*
X112610498Y-71544180D01*
X112669463Y-71654494D01*
X112748815Y-71751185D01*
X112845506Y-71830537D01*
X112955820Y-71889502D01*
X113075518Y-71925812D01*
X113200000Y-71938072D01*
X113714250Y-71935000D01*
X113873000Y-71776250D01*
X113873000Y-70627000D01*
X114127000Y-70627000D01*
X114127000Y-71776250D01*
X114285750Y-71935000D01*
X114800000Y-71938072D01*
X114924482Y-71925812D01*
X115044180Y-71889502D01*
X115154494Y-71830537D01*
X115251185Y-71751185D01*
X115330537Y-71654494D01*
X115389502Y-71544180D01*
X115425812Y-71424482D01*
X115438072Y-71300000D01*
X115435000Y-70785750D01*
X115276250Y-70627000D01*
X114127000Y-70627000D01*
X113873000Y-70627000D01*
X113853000Y-70627000D01*
X113853000Y-70373000D01*
X113873000Y-70373000D01*
X113873000Y-69223750D01*
X114127000Y-69223750D01*
X114127000Y-70373000D01*
X115276250Y-70373000D01*
X115435000Y-70214250D01*
X115438072Y-69700000D01*
X115425812Y-69575518D01*
X115389502Y-69455820D01*
X115330537Y-69345506D01*
X115251185Y-69248815D01*
X115154494Y-69169463D01*
X115044180Y-69110498D01*
X114924482Y-69074188D01*
X114800000Y-69061928D01*
X114285750Y-69065000D01*
X114127000Y-69223750D01*
X113873000Y-69223750D01*
X113714250Y-69065000D01*
X113200000Y-69061928D01*
X113075518Y-69074188D01*
X112955820Y-69110498D01*
X112845506Y-69169463D01*
X112748815Y-69248815D01*
X112669463Y-69345506D01*
X112610498Y-69455820D01*
X112574188Y-69575518D01*
X112561928Y-69700000D01*
X112561933Y-69700758D01*
X112530748Y-69654087D01*
X112345913Y-69469252D01*
X112128570Y-69324028D01*
X111887072Y-69223996D01*
X111630698Y-69173000D01*
X111369302Y-69173000D01*
X111112928Y-69223996D01*
X110871430Y-69324028D01*
X110654087Y-69469252D01*
X110469252Y-69654087D01*
X110324028Y-69871430D01*
X110223996Y-70112928D01*
X110173000Y-70369302D01*
X110173000Y-70630698D01*
X110223996Y-70887072D01*
X110324028Y-71128570D01*
X110469252Y-71345913D01*
X110654087Y-71530748D01*
X110723000Y-71576794D01*
X110723001Y-78606851D01*
X110636400Y-78606851D01*
X110533090Y-78617026D01*
X110433750Y-78647161D01*
X110342198Y-78696096D01*
X110261952Y-78761952D01*
X110196096Y-78842198D01*
X110147161Y-78933750D01*
X110117026Y-79033090D01*
X110106851Y-79136400D01*
X110106851Y-80863600D01*
X110117026Y-80966910D01*
X110147161Y-81066250D01*
X110196096Y-81157802D01*
X110261952Y-81238048D01*
X110342198Y-81303904D01*
X110433750Y-81352839D01*
X110533090Y-81382974D01*
X110553909Y-81385024D01*
X110393146Y-81529707D01*
X110217316Y-81765056D01*
X110090778Y-82030186D01*
X110045042Y-82180974D01*
X110166183Y-82413000D01*
X111373000Y-82413000D01*
X111373000Y-82393000D01*
X111627000Y-82393000D01*
X111627000Y-82413000D01*
X113913000Y-82413000D01*
X113913000Y-82393000D01*
X114167000Y-82393000D01*
X114167000Y-82413000D01*
X114187000Y-82413000D01*
X114187000Y-82667000D01*
X114167000Y-82667000D01*
X114167000Y-84953000D01*
X115373817Y-84953000D01*
X115494958Y-84720974D01*
X115449222Y-84570186D01*
X115322684Y-84305056D01*
X115146854Y-84069707D01*
X114928488Y-83873183D01*
X114822230Y-83810000D01*
X114928488Y-83746817D01*
X115146854Y-83550293D01*
X115322684Y-83314944D01*
X115449222Y-83049814D01*
X115494958Y-82899026D01*
X115373818Y-82667002D01*
X115538600Y-82667002D01*
X115538600Y-82597443D01*
X131202248Y-98261091D01*
X131129252Y-98334087D01*
X130984028Y-98551430D01*
X130883996Y-98792928D01*
X130833000Y-99049302D01*
X130833000Y-99310698D01*
X130883996Y-99567072D01*
X130984028Y-99808570D01*
X131013716Y-99853001D01*
X124831845Y-99853001D01*
X115404918Y-90426075D01*
X115430600Y-90296962D01*
X115430600Y-90023038D01*
X115377160Y-89754377D01*
X115272334Y-89501304D01*
X115120150Y-89273544D01*
X114926456Y-89079850D01*
X114727037Y-88946603D01*
X114928488Y-88826817D01*
X115146854Y-88630293D01*
X115322684Y-88394944D01*
X115449222Y-88129814D01*
X115494958Y-87979026D01*
X115373817Y-87747000D01*
X114167000Y-87747000D01*
X114167000Y-87767000D01*
X113913000Y-87767000D01*
X113913000Y-87747000D01*
X111627000Y-87747000D01*
X111627000Y-87767000D01*
X111373000Y-87767000D01*
X111373000Y-87747000D01*
X110166183Y-87747000D01*
X110045042Y-87979026D01*
X110090778Y-88129814D01*
X110217316Y-88394944D01*
X110393146Y-88630293D01*
X110611512Y-88826817D01*
X110812963Y-88946603D01*
X110613544Y-89079850D01*
X110419850Y-89273544D01*
X110267666Y-89501304D01*
X110162840Y-89754377D01*
X110109400Y-90023038D01*
X110109400Y-90296962D01*
X110162840Y-90565623D01*
X110267666Y-90818696D01*
X110419850Y-91046456D01*
X110613544Y-91240150D01*
X110723001Y-91313287D01*
X110723000Y-99170451D01*
X110700000Y-99170451D01*
X110596690Y-99180626D01*
X110497350Y-99210761D01*
X110405798Y-99259696D01*
X110325552Y-99325552D01*
X110259696Y-99405798D01*
X110210761Y-99497350D01*
X110180626Y-99596690D01*
X110170451Y-99700000D01*
X110170451Y-101300000D01*
X110180626Y-101403310D01*
X110210761Y-101502650D01*
X110259696Y-101594202D01*
X110325552Y-101674448D01*
X110405798Y-101740304D01*
X110497350Y-101789239D01*
X110596690Y-101819374D01*
X110700000Y-101829549D01*
X110723001Y-101829549D01*
X110723000Y-108681837D01*
X110719241Y-108720000D01*
X110723000Y-108758163D01*
X110723000Y-108758165D01*
X110734243Y-108872318D01*
X110757442Y-108948793D01*
X110778673Y-109018783D01*
X110850823Y-109153766D01*
X110890481Y-109202089D01*
X110947920Y-109272080D01*
X110977570Y-109296413D01*
X119703592Y-118022436D01*
X119727920Y-118052080D01*
X119757564Y-118076408D01*
X119757565Y-118076409D01*
X119846233Y-118149177D01*
X119981216Y-118221327D01*
X120127681Y-118265757D01*
X120241834Y-118277000D01*
X120241843Y-118277000D01*
X120279999Y-118280758D01*
X120318155Y-118277000D01*
X184923206Y-118277000D01*
X184969252Y-118345913D01*
X185154087Y-118530748D01*
X185371430Y-118675972D01*
X185612928Y-118776004D01*
X185869302Y-118827000D01*
X186130698Y-118827000D01*
X186387072Y-118776004D01*
X186628570Y-118675972D01*
X186845913Y-118530748D01*
X187030748Y-118345913D01*
X187175972Y-118128570D01*
X187276004Y-117887072D01*
X187327000Y-117630698D01*
X187327000Y-117369302D01*
X187276004Y-117112928D01*
X187175972Y-116871430D01*
X187030748Y-116654087D01*
X186845913Y-116469252D01*
X186628570Y-116324028D01*
X186387072Y-116223996D01*
X186130698Y-116173000D01*
X185869302Y-116173000D01*
X185612928Y-116223996D01*
X185371430Y-116324028D01*
X185154087Y-116469252D01*
X184969252Y-116654087D01*
X184923206Y-116723000D01*
X120601844Y-116723000D01*
X118235734Y-114356890D01*
X123433524Y-114356890D01*
X123525648Y-114619858D01*
X123672504Y-114871193D01*
X123865571Y-115089049D01*
X124097430Y-115265053D01*
X124359170Y-115392442D01*
X124640733Y-115466320D01*
X124873000Y-115326165D01*
X124873000Y-114127000D01*
X123554845Y-114127000D01*
X123433524Y-114356890D01*
X118235734Y-114356890D01*
X112277000Y-108398157D01*
X112277000Y-101829549D01*
X112300000Y-101829549D01*
X112403310Y-101819374D01*
X112502650Y-101789239D01*
X112594202Y-101740304D01*
X112674448Y-101674448D01*
X112740304Y-101594202D01*
X112789239Y-101502650D01*
X112792256Y-101492702D01*
X113186903Y-101492702D01*
X113258486Y-101736671D01*
X113513996Y-101857571D01*
X113788184Y-101926300D01*
X114070512Y-101940217D01*
X114350130Y-101898787D01*
X114616292Y-101803603D01*
X114741514Y-101736671D01*
X114813097Y-101492702D01*
X114000000Y-100679605D01*
X113186903Y-101492702D01*
X112792256Y-101492702D01*
X112819374Y-101403310D01*
X112829549Y-101300000D01*
X112829549Y-101260944D01*
X113007298Y-101313097D01*
X113820395Y-100500000D01*
X114179605Y-100500000D01*
X114992702Y-101313097D01*
X115236671Y-101241514D01*
X115357571Y-100986004D01*
X115426300Y-100711816D01*
X115440217Y-100429488D01*
X115398787Y-100149870D01*
X115303603Y-99883708D01*
X115236671Y-99758486D01*
X114992702Y-99686903D01*
X114179605Y-100500000D01*
X113820395Y-100500000D01*
X113007298Y-99686903D01*
X112829549Y-99739056D01*
X112829549Y-99700000D01*
X112819374Y-99596690D01*
X112792257Y-99507298D01*
X113186903Y-99507298D01*
X114000000Y-100320395D01*
X114813097Y-99507298D01*
X114741514Y-99263329D01*
X114486004Y-99142429D01*
X114211816Y-99073700D01*
X113929488Y-99059783D01*
X113649870Y-99101213D01*
X113383708Y-99196397D01*
X113258486Y-99263329D01*
X113186903Y-99507298D01*
X112792257Y-99507298D01*
X112789239Y-99497350D01*
X112740304Y-99405798D01*
X112674448Y-99325552D01*
X112594202Y-99259696D01*
X112502650Y-99210761D01*
X112403310Y-99180626D01*
X112300000Y-99170451D01*
X112277000Y-99170451D01*
X112277000Y-91313286D01*
X112386456Y-91240150D01*
X112580150Y-91046456D01*
X112653286Y-90937000D01*
X112886714Y-90937000D01*
X112959850Y-91046456D01*
X113153544Y-91240150D01*
X113381304Y-91392334D01*
X113634377Y-91497160D01*
X113903038Y-91550600D01*
X114176962Y-91550600D01*
X114306075Y-91524918D01*
X123933593Y-101152437D01*
X123957921Y-101182081D01*
X123987565Y-101206409D01*
X123987566Y-101206410D01*
X124076234Y-101279178D01*
X124139692Y-101313097D01*
X124211217Y-101351328D01*
X124357682Y-101395758D01*
X124471835Y-101407001D01*
X124471844Y-101407001D01*
X124510000Y-101410759D01*
X124548156Y-101407001D01*
X132469156Y-101407001D01*
X126136090Y-107740067D01*
X126023320Y-107679791D01*
X125877082Y-107635430D01*
X125725000Y-107620451D01*
X124275000Y-107620451D01*
X124122918Y-107635430D01*
X123976680Y-107679791D01*
X123841906Y-107751829D01*
X123723776Y-107848776D01*
X123626829Y-107966906D01*
X123554791Y-108101680D01*
X123510430Y-108247918D01*
X123495451Y-108400000D01*
X123495451Y-109600000D01*
X123510430Y-109752082D01*
X123554791Y-109898320D01*
X123626829Y-110033094D01*
X123723776Y-110151224D01*
X123841906Y-110248171D01*
X123976680Y-110320209D01*
X124097386Y-110356825D01*
X123896603Y-110521603D01*
X123724527Y-110731279D01*
X123596663Y-110970495D01*
X123517925Y-111230061D01*
X123491338Y-111500000D01*
X123517925Y-111769939D01*
X123596663Y-112029505D01*
X123724527Y-112268721D01*
X123896603Y-112478397D01*
X124106279Y-112650473D01*
X124184781Y-112692433D01*
X124097430Y-112734947D01*
X123865571Y-112910951D01*
X123672504Y-113128807D01*
X123525648Y-113380142D01*
X123433524Y-113643110D01*
X123554845Y-113873000D01*
X124873000Y-113873000D01*
X124873000Y-113853000D01*
X125127000Y-113853000D01*
X125127000Y-113873000D01*
X125147000Y-113873000D01*
X125147000Y-114127000D01*
X125127000Y-114127000D01*
X125127000Y-115326165D01*
X125359267Y-115466320D01*
X125640830Y-115392442D01*
X125902570Y-115265053D01*
X126134429Y-115089049D01*
X126327496Y-114871193D01*
X126474352Y-114619858D01*
X126566476Y-114356890D01*
X126445156Y-114127002D01*
X126528158Y-114127002D01*
X127253603Y-114852447D01*
X127277931Y-114882091D01*
X127307575Y-114906419D01*
X127307576Y-114906420D01*
X127396244Y-114979188D01*
X127463736Y-115015263D01*
X127531227Y-115051338D01*
X127677692Y-115095768D01*
X127791845Y-115107011D01*
X127791847Y-115107011D01*
X127830011Y-115110770D01*
X127868174Y-115107011D01*
X196231826Y-115107011D01*
X196269989Y-115110770D01*
X196308152Y-115107011D01*
X196308155Y-115107011D01*
X196422308Y-115095768D01*
X196568773Y-115051338D01*
X196703755Y-114979188D01*
X196822069Y-114882091D01*
X196846402Y-114852441D01*
X201702970Y-109995874D01*
X201859453Y-110027000D01*
X202140547Y-110027000D01*
X202416241Y-109972162D01*
X202675938Y-109864591D01*
X202909660Y-109708424D01*
X203108424Y-109509660D01*
X203264591Y-109275938D01*
X203372162Y-109016241D01*
X203427000Y-108740547D01*
X203427000Y-108459453D01*
X203372162Y-108183759D01*
X203264591Y-107924062D01*
X203108424Y-107690340D01*
X202909660Y-107491576D01*
X202697775Y-107350000D01*
X202909660Y-107208424D01*
X203108424Y-107009660D01*
X203264591Y-106775938D01*
X203372162Y-106516241D01*
X203427000Y-106240547D01*
X203427000Y-105959453D01*
X203425969Y-105954270D01*
X204373000Y-105196645D01*
X204373000Y-117447394D01*
X202447394Y-119373000D01*
X107552606Y-119373000D01*
X105627000Y-117447394D01*
X105627000Y-85439026D01*
X110045042Y-85439026D01*
X110090778Y-85589814D01*
X110217316Y-85854944D01*
X110393146Y-86090293D01*
X110611512Y-86286817D01*
X110717770Y-86350000D01*
X110611512Y-86413183D01*
X110393146Y-86609707D01*
X110217316Y-86845056D01*
X110090778Y-87110186D01*
X110045042Y-87260974D01*
X110166183Y-87493000D01*
X111373000Y-87493000D01*
X111373000Y-85207000D01*
X111627000Y-85207000D01*
X111627000Y-87493000D01*
X113913000Y-87493000D01*
X113913000Y-85207000D01*
X114167000Y-85207000D01*
X114167000Y-87493000D01*
X115373817Y-87493000D01*
X115494958Y-87260974D01*
X115449222Y-87110186D01*
X115322684Y-86845056D01*
X115146854Y-86609707D01*
X114928488Y-86413183D01*
X114822230Y-86350000D01*
X114928488Y-86286817D01*
X115146854Y-86090293D01*
X115322684Y-85854944D01*
X115449222Y-85589814D01*
X115494958Y-85439026D01*
X115373817Y-85207000D01*
X114167000Y-85207000D01*
X113913000Y-85207000D01*
X111627000Y-85207000D01*
X111373000Y-85207000D01*
X110166183Y-85207000D01*
X110045042Y-85439026D01*
X105627000Y-85439026D01*
X105627000Y-82899026D01*
X110045042Y-82899026D01*
X110090778Y-83049814D01*
X110217316Y-83314944D01*
X110393146Y-83550293D01*
X110611512Y-83746817D01*
X110717770Y-83810000D01*
X110611512Y-83873183D01*
X110393146Y-84069707D01*
X110217316Y-84305056D01*
X110090778Y-84570186D01*
X110045042Y-84720974D01*
X110166183Y-84953000D01*
X111373000Y-84953000D01*
X111373000Y-82667000D01*
X111627000Y-82667000D01*
X111627000Y-84953000D01*
X113913000Y-84953000D01*
X113913000Y-82667000D01*
X111627000Y-82667000D01*
X111373000Y-82667000D01*
X110166183Y-82667000D01*
X110045042Y-82899026D01*
X105627000Y-82899026D01*
X105627000Y-55749250D01*
X120471214Y-55749250D01*
X120471214Y-62053250D01*
X140328785Y-62053250D01*
X140328785Y-55749250D01*
X120471214Y-55749250D01*
X105627000Y-55749250D01*
X105627000Y-52552606D01*
X107552606Y-50627000D01*
X202447394Y-50627000D01*
X204373000Y-52552606D01*
%TA.AperFunction,Conductor*%
D26*
G36*
X204373000Y-52552606D02*
G01*
X204373000Y-70008576D01*
X202222673Y-65707923D01*
X202218303Y-65694019D01*
X202188508Y-65639592D01*
X202177901Y-65618379D01*
X202170180Y-65606114D01*
X202144807Y-65559765D01*
X202129499Y-65541488D01*
X202116794Y-65521305D01*
X202080454Y-65482930D01*
X202046531Y-65442428D01*
X202027952Y-65427489D01*
X202011554Y-65410173D01*
X201968425Y-65379625D01*
X201927252Y-65346519D01*
X201906114Y-65335491D01*
X201886655Y-65321708D01*
X201838406Y-65300165D01*
X201791556Y-65275722D01*
X201768672Y-65269029D01*
X201746897Y-65259307D01*
X201695369Y-65247591D01*
X201644654Y-65232759D01*
X201620900Y-65230659D01*
X201597651Y-65225373D01*
X201544833Y-65223934D01*
X201530394Y-65222658D01*
X201506675Y-65222895D01*
X201444654Y-65221206D01*
X201430287Y-65223659D01*
X186569622Y-65372265D01*
X186530748Y-65314087D01*
X186345913Y-65129252D01*
X186128570Y-64984028D01*
X185887072Y-64883996D01*
X185630698Y-64833000D01*
X185369302Y-64833000D01*
X185112928Y-64883996D01*
X184871430Y-64984028D01*
X184654087Y-65129252D01*
X184469252Y-65314087D01*
X184324028Y-65531430D01*
X184223996Y-65772928D01*
X184173000Y-66029302D01*
X184173000Y-66290698D01*
X184223996Y-66547072D01*
X184324028Y-66788570D01*
X184469252Y-67005913D01*
X184654087Y-67190748D01*
X184871430Y-67335972D01*
X185112928Y-67436004D01*
X185369302Y-67487000D01*
X185630698Y-67487000D01*
X185887072Y-67436004D01*
X186128570Y-67335972D01*
X186345913Y-67190748D01*
X186530748Y-67005913D01*
X186584012Y-66926198D01*
X201022196Y-66781816D01*
X203223001Y-71183427D01*
X203223000Y-102767846D01*
X203064080Y-102715525D01*
X202179605Y-103600000D01*
X202193748Y-103614143D01*
X202014143Y-103793748D01*
X202000000Y-103779605D01*
X201115525Y-104664080D01*
X201199208Y-104918261D01*
X201199706Y-104918500D01*
X201090340Y-104991576D01*
X200891576Y-105190340D01*
X200735409Y-105424062D01*
X200627838Y-105683759D01*
X200573000Y-105959453D01*
X200573000Y-106240547D01*
X200627838Y-106516241D01*
X200735409Y-106775938D01*
X200891576Y-107009660D01*
X201090340Y-107208424D01*
X201302225Y-107350000D01*
X201090340Y-107491576D01*
X200891576Y-107690340D01*
X200735409Y-107924062D01*
X200627838Y-108183759D01*
X200573000Y-108459453D01*
X200573000Y-108740547D01*
X200604126Y-108897030D01*
X195948146Y-113553011D01*
X158255832Y-113553011D01*
X158618013Y-113190831D01*
X158699302Y-113207000D01*
X158960698Y-113207000D01*
X159217072Y-113156004D01*
X159458570Y-113055972D01*
X159675913Y-112910748D01*
X159860748Y-112725913D01*
X160005972Y-112508570D01*
X160106004Y-112267072D01*
X160157000Y-112010698D01*
X160157000Y-112009040D01*
X178608091Y-112009040D01*
X178702930Y-112273881D01*
X178847615Y-112515131D01*
X179036586Y-112723519D01*
X179262580Y-112891037D01*
X179516913Y-113011246D01*
X179650961Y-113051904D01*
X179873000Y-112929915D01*
X179873000Y-111787000D01*
X180127000Y-111787000D01*
X180127000Y-112929915D01*
X180349039Y-113051904D01*
X180483087Y-113011246D01*
X180737420Y-112891037D01*
X180963414Y-112723519D01*
X181152385Y-112515131D01*
X181297070Y-112273881D01*
X181391909Y-112009040D01*
X181270624Y-111787000D01*
X180127000Y-111787000D01*
X179873000Y-111787000D01*
X178729376Y-111787000D01*
X178608091Y-112009040D01*
X160157000Y-112009040D01*
X160157000Y-111749302D01*
X160106004Y-111492928D01*
X160030631Y-111310960D01*
X178608091Y-111310960D01*
X178729376Y-111533000D01*
X179873000Y-111533000D01*
X179873000Y-110390085D01*
X180127000Y-110390085D01*
X180127000Y-111533000D01*
X181270624Y-111533000D01*
X181391909Y-111310960D01*
X181297070Y-111046119D01*
X181152385Y-110804869D01*
X180963414Y-110596481D01*
X180737420Y-110428963D01*
X180483087Y-110308754D01*
X180349039Y-110268096D01*
X180127000Y-110390085D01*
X179873000Y-110390085D01*
X179650961Y-110268096D01*
X179516913Y-110308754D01*
X179262580Y-110428963D01*
X179036586Y-110596481D01*
X178847615Y-110804869D01*
X178702930Y-111046119D01*
X178608091Y-111310960D01*
X160030631Y-111310960D01*
X160005972Y-111251430D01*
X159860748Y-111034087D01*
X159675913Y-110849252D01*
X159458570Y-110704028D01*
X159217072Y-110603996D01*
X158960698Y-110553000D01*
X158699302Y-110553000D01*
X158618013Y-110569169D01*
X158337000Y-110288157D01*
X158337000Y-110251112D01*
X192473000Y-110251112D01*
X192473000Y-110748888D01*
X192570111Y-111237099D01*
X192760602Y-111696983D01*
X193037151Y-112110869D01*
X193389131Y-112462849D01*
X193803017Y-112739398D01*
X194262901Y-112929889D01*
X194751112Y-113027000D01*
X195248888Y-113027000D01*
X195737099Y-112929889D01*
X196196983Y-112739398D01*
X196610869Y-112462849D01*
X196962849Y-112110869D01*
X197239398Y-111696983D01*
X197429889Y-111237099D01*
X197527000Y-110748888D01*
X197527000Y-110251112D01*
X197429889Y-109762901D01*
X197239398Y-109303017D01*
X196962849Y-108889131D01*
X196610869Y-108537151D01*
X196196983Y-108260602D01*
X195737099Y-108070111D01*
X195248888Y-107973000D01*
X194751112Y-107973000D01*
X194262901Y-108070111D01*
X193803017Y-108260602D01*
X193389131Y-108537151D01*
X193037151Y-108889131D01*
X192760602Y-109303017D01*
X192570111Y-109762901D01*
X192473000Y-110251112D01*
X158337000Y-110251112D01*
X158337000Y-108278996D01*
X158502870Y-108142870D01*
X158668698Y-107940808D01*
X158791919Y-107710278D01*
X158830000Y-107584743D01*
X158868081Y-107710278D01*
X158991302Y-107940808D01*
X159157131Y-108142870D01*
X159359193Y-108308698D01*
X159589723Y-108431919D01*
X159839864Y-108507799D01*
X160100000Y-108533420D01*
X160360137Y-108507799D01*
X160610278Y-108431919D01*
X160625134Y-108423978D01*
X161373602Y-109172446D01*
X161397930Y-109202090D01*
X161427574Y-109226418D01*
X161427575Y-109226419D01*
X161516243Y-109299187D01*
X161592599Y-109340000D01*
X161651226Y-109371337D01*
X161797691Y-109415767D01*
X161911844Y-109427010D01*
X161911853Y-109427010D01*
X161950009Y-109430768D01*
X161988165Y-109427010D01*
X172811827Y-109427010D01*
X172849990Y-109430769D01*
X172888153Y-109427010D01*
X172888156Y-109427010D01*
X173002309Y-109415767D01*
X173148774Y-109371337D01*
X173283756Y-109299187D01*
X173402070Y-109202090D01*
X173426403Y-109172440D01*
X179788013Y-102810831D01*
X179869302Y-102827000D01*
X180130698Y-102827000D01*
X180387072Y-102776004D01*
X180628570Y-102675972D01*
X180845913Y-102530748D01*
X181030748Y-102345913D01*
X181175972Y-102128570D01*
X181276004Y-101887072D01*
X181327000Y-101630698D01*
X181327000Y-101369302D01*
X181310831Y-101288013D01*
X182771845Y-99826999D01*
X193299283Y-99826999D01*
X193037151Y-100089131D01*
X192760602Y-100503017D01*
X192570111Y-100962901D01*
X192473000Y-101451112D01*
X192473000Y-101948888D01*
X192570111Y-102437099D01*
X192760602Y-102896983D01*
X193037151Y-103310869D01*
X193389131Y-103662849D01*
X193803017Y-103939398D01*
X194262901Y-104129889D01*
X194751112Y-104227000D01*
X195248888Y-104227000D01*
X195737099Y-104129889D01*
X196196983Y-103939398D01*
X196605325Y-103666553D01*
X200459009Y-103666553D01*
X200501603Y-103965907D01*
X200601778Y-104251199D01*
X200681739Y-104400792D01*
X200935920Y-104484475D01*
X201820395Y-103600000D01*
X200935920Y-102715525D01*
X200681739Y-102799208D01*
X200550842Y-103071775D01*
X200475635Y-103364642D01*
X200459009Y-103666553D01*
X196605325Y-103666553D01*
X196610869Y-103662849D01*
X196962849Y-103310869D01*
X197239398Y-102896983D01*
X197388955Y-102535920D01*
X201115525Y-102535920D01*
X202000000Y-103420395D01*
X202884475Y-102535920D01*
X202800792Y-102281739D01*
X202528225Y-102150842D01*
X202235358Y-102075635D01*
X201933447Y-102059009D01*
X201634093Y-102101603D01*
X201348801Y-102201778D01*
X201199208Y-102281739D01*
X201115525Y-102535920D01*
X197388955Y-102535920D01*
X197429889Y-102437099D01*
X197527000Y-101948888D01*
X197527000Y-101451112D01*
X197429889Y-100962901D01*
X197239398Y-100503017D01*
X196962849Y-100089131D01*
X196610869Y-99737151D01*
X196196983Y-99460602D01*
X195737099Y-99270111D01*
X195248888Y-99173000D01*
X194751112Y-99173000D01*
X194527333Y-99217512D01*
X195252143Y-98492702D01*
X197186903Y-98492702D01*
X197258486Y-98736671D01*
X197513996Y-98857571D01*
X197788184Y-98926300D01*
X198070512Y-98940217D01*
X198350130Y-98898787D01*
X198616292Y-98803603D01*
X198741514Y-98736671D01*
X198813097Y-98492702D01*
X198000000Y-97679605D01*
X197186903Y-98492702D01*
X195252143Y-98492702D01*
X196174333Y-97570512D01*
X196559783Y-97570512D01*
X196601213Y-97850130D01*
X196696397Y-98116292D01*
X196763329Y-98241514D01*
X197007298Y-98313097D01*
X197820395Y-97500000D01*
X198179605Y-97500000D01*
X198992702Y-98313097D01*
X199236671Y-98241514D01*
X199357571Y-97986004D01*
X199426300Y-97711816D01*
X199440217Y-97429488D01*
X199398787Y-97149870D01*
X199303603Y-96883708D01*
X199236671Y-96758486D01*
X198992702Y-96686903D01*
X198179605Y-97500000D01*
X197820395Y-97500000D01*
X197007298Y-96686903D01*
X196763329Y-96758486D01*
X196642429Y-97013996D01*
X196573700Y-97288184D01*
X196559783Y-97570512D01*
X196174333Y-97570512D01*
X196182437Y-97562409D01*
X196212080Y-97538082D01*
X196243333Y-97500000D01*
X196309178Y-97419768D01*
X196362293Y-97320395D01*
X196381327Y-97284786D01*
X196425757Y-97138321D01*
X196437000Y-97024168D01*
X196437000Y-97024166D01*
X196440759Y-96986002D01*
X196437000Y-96947839D01*
X196437000Y-96507298D01*
X197186903Y-96507298D01*
X198000000Y-97320395D01*
X198813097Y-96507298D01*
X198741514Y-96263329D01*
X198486004Y-96142429D01*
X198211816Y-96073700D01*
X197929488Y-96059783D01*
X197649870Y-96101213D01*
X197383708Y-96196397D01*
X197258486Y-96263329D01*
X197186903Y-96507298D01*
X196437000Y-96507298D01*
X196437000Y-95578996D01*
X196602870Y-95442870D01*
X196768698Y-95240808D01*
X196891919Y-95010278D01*
X196930000Y-94884743D01*
X196968081Y-95010278D01*
X197091302Y-95240808D01*
X197257131Y-95442870D01*
X197459193Y-95608698D01*
X197689723Y-95731919D01*
X197939864Y-95807799D01*
X198200000Y-95833420D01*
X198460137Y-95807799D01*
X198710278Y-95731919D01*
X198940808Y-95608698D01*
X199142870Y-95442870D01*
X199308698Y-95240808D01*
X199431919Y-95010278D01*
X199470000Y-94884743D01*
X199508081Y-95010278D01*
X199631302Y-95240808D01*
X199797131Y-95442870D01*
X199999193Y-95608698D01*
X200229723Y-95731919D01*
X200479864Y-95807799D01*
X200740000Y-95833420D01*
X201000137Y-95807799D01*
X201250278Y-95731919D01*
X201480808Y-95608698D01*
X201682870Y-95442870D01*
X201848698Y-95240808D01*
X201971919Y-95010278D01*
X202047799Y-94760137D01*
X202067000Y-94565183D01*
X202067000Y-93871844D01*
X202712446Y-93226398D01*
X202742090Y-93202070D01*
X202819867Y-93107298D01*
X202839187Y-93083757D01*
X202875262Y-93016265D01*
X202911337Y-92948774D01*
X202955767Y-92802309D01*
X202967010Y-92688156D01*
X202967010Y-92688154D01*
X202970769Y-92649990D01*
X202967010Y-92611827D01*
X202967010Y-72448173D01*
X202970769Y-72410010D01*
X202965615Y-72357681D01*
X202955767Y-72257691D01*
X202911337Y-72111226D01*
X202839187Y-71976244D01*
X202742090Y-71857930D01*
X202712447Y-71833603D01*
X200359549Y-69480706D01*
X200359549Y-68475000D01*
X200344570Y-68322918D01*
X200300209Y-68176680D01*
X200228171Y-68041906D01*
X200131224Y-67923776D01*
X200013094Y-67826829D01*
X199878320Y-67754791D01*
X199732082Y-67710430D01*
X199580000Y-67695451D01*
X198380000Y-67695451D01*
X198227918Y-67710430D01*
X198081680Y-67754791D01*
X197946906Y-67826829D01*
X197828776Y-67923776D01*
X197731829Y-68041906D01*
X197659791Y-68176680D01*
X197623175Y-68297387D01*
X197458397Y-68096603D01*
X197248721Y-67924527D01*
X197009505Y-67796663D01*
X196749939Y-67717925D01*
X196480000Y-67691338D01*
X196210062Y-67717925D01*
X195950496Y-67796663D01*
X195711280Y-67924527D01*
X195501604Y-68096603D01*
X195329527Y-68306279D01*
X195230000Y-68492481D01*
X195130473Y-68306280D01*
X194958397Y-68096603D01*
X194748721Y-67924527D01*
X194509505Y-67796663D01*
X194249939Y-67717925D01*
X193980000Y-67691338D01*
X193710062Y-67717925D01*
X193450496Y-67796663D01*
X193211280Y-67924527D01*
X193001604Y-68096603D01*
X192829527Y-68306279D01*
X192787567Y-68384781D01*
X192745053Y-68297430D01*
X192569049Y-68065571D01*
X192351193Y-67872504D01*
X192099858Y-67725648D01*
X191836890Y-67633524D01*
X191607000Y-67754845D01*
X191607000Y-69073000D01*
X191627000Y-69073000D01*
X191627000Y-69327000D01*
X191607000Y-69327000D01*
X191607000Y-69347000D01*
X191353000Y-69347000D01*
X191353000Y-69327000D01*
X190153835Y-69327000D01*
X190013680Y-69559267D01*
X190087558Y-69840830D01*
X190214947Y-70102570D01*
X190390951Y-70334429D01*
X190608807Y-70527496D01*
X190860142Y-70674352D01*
X191123110Y-70766476D01*
X191352998Y-70645156D01*
X191352998Y-70728159D01*
X190348157Y-71733000D01*
X184036794Y-71733000D01*
X183990748Y-71664087D01*
X183805913Y-71479252D01*
X183588570Y-71334028D01*
X183347072Y-71233996D01*
X183090698Y-71183000D01*
X182829302Y-71183000D01*
X182572928Y-71233996D01*
X182331430Y-71334028D01*
X182114087Y-71479252D01*
X181929252Y-71664087D01*
X181784028Y-71881430D01*
X181683996Y-72122928D01*
X181633000Y-72379302D01*
X181633000Y-72640698D01*
X181683996Y-72897072D01*
X181784028Y-73138570D01*
X181929252Y-73355913D01*
X182114087Y-73540748D01*
X182331430Y-73685972D01*
X182572928Y-73786004D01*
X182829302Y-73837000D01*
X183090698Y-73837000D01*
X183347072Y-73786004D01*
X183588570Y-73685972D01*
X183805913Y-73540748D01*
X183990748Y-73355913D01*
X184036794Y-73287000D01*
X189460823Y-73287000D01*
X189371430Y-73324028D01*
X189154087Y-73469252D01*
X188969252Y-73654087D01*
X188824028Y-73871430D01*
X188723996Y-74112928D01*
X188673000Y-74369302D01*
X188673000Y-74630698D01*
X188723996Y-74887072D01*
X188824028Y-75128570D01*
X188825262Y-75130417D01*
X188172415Y-74477570D01*
X188148082Y-74447920D01*
X188029768Y-74350823D01*
X187894786Y-74278673D01*
X187748321Y-74234243D01*
X187634168Y-74223000D01*
X187634165Y-74223000D01*
X187596002Y-74219241D01*
X187557839Y-74223000D01*
X176416794Y-74223000D01*
X176370748Y-74154087D01*
X176185913Y-73969252D01*
X176117000Y-73923206D01*
X176117000Y-68840733D01*
X190013680Y-68840733D01*
X190153835Y-69073000D01*
X191353000Y-69073000D01*
X191353000Y-67754845D01*
X191123110Y-67633524D01*
X190860142Y-67725648D01*
X190608807Y-67872504D01*
X190390951Y-68065571D01*
X190214947Y-68297430D01*
X190087558Y-68559170D01*
X190013680Y-68840733D01*
X176117000Y-68840733D01*
X176117000Y-67236794D01*
X176185913Y-67190748D01*
X176370748Y-67005913D01*
X176515972Y-66788570D01*
X176616004Y-66547072D01*
X176667000Y-66290698D01*
X176667000Y-66029302D01*
X176616004Y-65772928D01*
X176515972Y-65531430D01*
X176370748Y-65314087D01*
X176185913Y-65129252D01*
X175968570Y-64984028D01*
X175727072Y-64883996D01*
X175470698Y-64833000D01*
X175209302Y-64833000D01*
X174952928Y-64883996D01*
X174711430Y-64984028D01*
X174494087Y-65129252D01*
X174309252Y-65314087D01*
X174164028Y-65531430D01*
X174063996Y-65772928D01*
X174013000Y-66029302D01*
X174013000Y-66290698D01*
X174063996Y-66547072D01*
X174164028Y-66788570D01*
X174309252Y-67005913D01*
X174494087Y-67190748D01*
X174563000Y-67236794D01*
X174563001Y-73923205D01*
X174494087Y-73969252D01*
X174309252Y-74154087D01*
X174164028Y-74371430D01*
X174063996Y-74612928D01*
X174013000Y-74869302D01*
X174013000Y-75130698D01*
X174063996Y-75387072D01*
X174164028Y-75628570D01*
X174309252Y-75845913D01*
X174494087Y-76030748D01*
X174711430Y-76175972D01*
X174952928Y-76276004D01*
X175209302Y-76327000D01*
X175470698Y-76327000D01*
X175727072Y-76276004D01*
X175968570Y-76175972D01*
X176185913Y-76030748D01*
X176370748Y-75845913D01*
X176416794Y-75777000D01*
X187274159Y-75777000D01*
X189054903Y-77557745D01*
X188922928Y-77583996D01*
X188681430Y-77684028D01*
X188464087Y-77829252D01*
X188279252Y-78014087D01*
X188134028Y-78231430D01*
X188033996Y-78472928D01*
X187983000Y-78729302D01*
X187983000Y-78990698D01*
X188033996Y-79247072D01*
X188134028Y-79488570D01*
X188279252Y-79705913D01*
X188464087Y-79890748D01*
X188681430Y-80035972D01*
X188922928Y-80136004D01*
X189179302Y-80187000D01*
X189332999Y-80187000D01*
X189333000Y-82465909D01*
X189303603Y-82383708D01*
X189236671Y-82258486D01*
X188992702Y-82186903D01*
X188179605Y-83000000D01*
X188992702Y-83813097D01*
X189236671Y-83741514D01*
X189333000Y-83537933D01*
X189333000Y-84088156D01*
X188565134Y-84856022D01*
X188550277Y-84848081D01*
X188300136Y-84772201D01*
X188040000Y-84746580D01*
X187779863Y-84772201D01*
X187529722Y-84848081D01*
X187299192Y-84971302D01*
X187097130Y-85137130D01*
X186931302Y-85339193D01*
X186808081Y-85569723D01*
X186770000Y-85695258D01*
X186731919Y-85569722D01*
X186608698Y-85339192D01*
X186442870Y-85137130D01*
X186240807Y-84971302D01*
X186010277Y-84848081D01*
X185760136Y-84772201D01*
X185500000Y-84746580D01*
X185239863Y-84772201D01*
X184989722Y-84848081D01*
X184974866Y-84856022D01*
X184111546Y-83992702D01*
X187186903Y-83992702D01*
X187258486Y-84236671D01*
X187513996Y-84357571D01*
X187788184Y-84426300D01*
X188070512Y-84440217D01*
X188350130Y-84398787D01*
X188616292Y-84303603D01*
X188741514Y-84236671D01*
X188813097Y-83992702D01*
X188000000Y-83179605D01*
X187186903Y-83992702D01*
X184111546Y-83992702D01*
X183536413Y-83417569D01*
X183512080Y-83387920D01*
X183393766Y-83290823D01*
X183258784Y-83218673D01*
X183112319Y-83174243D01*
X182998166Y-83163000D01*
X182998163Y-83163000D01*
X182960000Y-83159241D01*
X182921837Y-83163000D01*
X180226794Y-83163000D01*
X180180748Y-83094087D01*
X180157173Y-83070512D01*
X186559783Y-83070512D01*
X186601213Y-83350130D01*
X186696397Y-83616292D01*
X186763329Y-83741514D01*
X187007298Y-83813097D01*
X187820395Y-83000000D01*
X187007298Y-82186903D01*
X186763329Y-82258486D01*
X186642429Y-82513996D01*
X186573700Y-82788184D01*
X186559783Y-83070512D01*
X180157173Y-83070512D01*
X179995913Y-82909252D01*
X179927000Y-82863206D01*
X179927000Y-82007298D01*
X187186903Y-82007298D01*
X188000000Y-82820395D01*
X188813097Y-82007298D01*
X188741514Y-81763329D01*
X188486004Y-81642429D01*
X188211816Y-81573700D01*
X187929488Y-81559783D01*
X187649870Y-81601213D01*
X187383708Y-81696397D01*
X187258486Y-81763329D01*
X187186903Y-82007298D01*
X179927000Y-82007298D01*
X179927000Y-79936794D01*
X179995913Y-79890748D01*
X180180748Y-79705913D01*
X180325972Y-79488570D01*
X180426004Y-79247072D01*
X180477000Y-78990698D01*
X180477000Y-78729302D01*
X180426004Y-78472928D01*
X180325972Y-78231430D01*
X180180748Y-78014087D01*
X179995913Y-77829252D01*
X179778570Y-77684028D01*
X179537072Y-77583996D01*
X179280698Y-77533000D01*
X179019302Y-77533000D01*
X178762928Y-77583996D01*
X178521430Y-77684028D01*
X178304087Y-77829252D01*
X178119252Y-78014087D01*
X177974028Y-78231430D01*
X177873996Y-78472928D01*
X177823000Y-78729302D01*
X177823000Y-78990698D01*
X177873996Y-79247072D01*
X177974028Y-79488570D01*
X178119252Y-79705913D01*
X178304087Y-79890748D01*
X178373000Y-79936794D01*
X178373001Y-82863205D01*
X178304087Y-82909252D01*
X178119252Y-83094087D01*
X177974028Y-83311430D01*
X177873996Y-83552928D01*
X177823000Y-83809302D01*
X177823000Y-84070698D01*
X177873996Y-84327072D01*
X177974028Y-84568570D01*
X178119252Y-84785913D01*
X178304087Y-84970748D01*
X178521430Y-85115972D01*
X178762928Y-85216004D01*
X179019302Y-85267000D01*
X179280698Y-85267000D01*
X179537072Y-85216004D01*
X179778570Y-85115972D01*
X179995913Y-84970748D01*
X180180748Y-84785913D01*
X180226794Y-84717000D01*
X182638157Y-84717000D01*
X184173000Y-86251844D01*
X184173000Y-86945184D01*
X184192201Y-87140137D01*
X184268081Y-87390278D01*
X184355063Y-87553010D01*
X178608153Y-87553010D01*
X178569989Y-87549251D01*
X178531826Y-87553010D01*
X178531824Y-87553010D01*
X178417671Y-87564253D01*
X178299830Y-87600000D01*
X178271206Y-87608683D01*
X178136223Y-87680833D01*
X178049117Y-87752319D01*
X178017910Y-87777930D01*
X177993582Y-87807574D01*
X168245134Y-97556022D01*
X168230277Y-97548081D01*
X167980136Y-97472201D01*
X167720000Y-97446580D01*
X167459863Y-97472201D01*
X167209722Y-97548081D01*
X166979192Y-97671302D01*
X166777130Y-97837130D01*
X166611302Y-98039193D01*
X166488081Y-98269723D01*
X166450000Y-98395258D01*
X166411919Y-98269722D01*
X166288698Y-98039192D01*
X166122870Y-97837130D01*
X165957000Y-97701005D01*
X165957000Y-95176794D01*
X166025913Y-95130748D01*
X166210748Y-94945913D01*
X166355972Y-94728570D01*
X166456004Y-94487072D01*
X166507000Y-94230698D01*
X166507000Y-93969302D01*
X166456004Y-93712928D01*
X166355972Y-93471430D01*
X166210748Y-93254087D01*
X166025913Y-93069252D01*
X165808570Y-92924028D01*
X165567072Y-92823996D01*
X165310698Y-92773000D01*
X165049302Y-92773000D01*
X164792928Y-92823996D01*
X164551430Y-92924028D01*
X164334087Y-93069252D01*
X164149252Y-93254087D01*
X164004028Y-93471430D01*
X163903996Y-93712928D01*
X163853000Y-93969302D01*
X163853000Y-94230698D01*
X163903996Y-94487072D01*
X164004028Y-94728570D01*
X164149252Y-94945913D01*
X164334087Y-95130748D01*
X164403000Y-95176794D01*
X164403001Y-97701003D01*
X164237130Y-97837130D01*
X164071302Y-98039193D01*
X163966322Y-98235596D01*
X163917166Y-98113517D01*
X163762601Y-97877161D01*
X163564895Y-97675500D01*
X163331646Y-97516285D01*
X163071818Y-97405633D01*
X162989039Y-97388096D01*
X162767000Y-97510085D01*
X162767000Y-99053000D01*
X162787000Y-99053000D01*
X162787000Y-99307000D01*
X162767000Y-99307000D01*
X162767000Y-100849915D01*
X162989039Y-100971904D01*
X163071818Y-100954367D01*
X163331646Y-100843715D01*
X163564895Y-100684500D01*
X163762601Y-100482839D01*
X163917166Y-100246483D01*
X163966322Y-100124404D01*
X164071302Y-100320808D01*
X164237131Y-100522870D01*
X164439193Y-100688698D01*
X164669723Y-100811919D01*
X164919864Y-100887799D01*
X165180000Y-100913420D01*
X165440137Y-100887799D01*
X165690278Y-100811919D01*
X165920808Y-100688698D01*
X166122870Y-100522870D01*
X166288698Y-100320808D01*
X166411919Y-100090278D01*
X166450000Y-99964743D01*
X166488081Y-100090278D01*
X166611302Y-100320808D01*
X166777131Y-100522870D01*
X166979193Y-100688698D01*
X167209723Y-100811919D01*
X167454872Y-100886285D01*
X163165134Y-105176022D01*
X163150277Y-105168081D01*
X162900136Y-105092201D01*
X162640000Y-105066580D01*
X162379863Y-105092201D01*
X162129722Y-105168081D01*
X161899192Y-105291302D01*
X161697130Y-105457130D01*
X161531302Y-105659193D01*
X161408081Y-105889723D01*
X161370000Y-106015258D01*
X161331919Y-105889722D01*
X161208698Y-105659192D01*
X161042870Y-105457130D01*
X160840807Y-105291302D01*
X160610277Y-105168081D01*
X160360136Y-105092201D01*
X160100000Y-105066580D01*
X159839863Y-105092201D01*
X159589722Y-105168081D01*
X159359192Y-105291302D01*
X159157130Y-105457130D01*
X158991302Y-105659193D01*
X158868081Y-105889723D01*
X158830000Y-106015258D01*
X158791919Y-105889722D01*
X158668698Y-105659192D01*
X158502870Y-105457130D01*
X158300807Y-105291302D01*
X158070277Y-105168081D01*
X157820136Y-105092201D01*
X157560000Y-105066580D01*
X157299863Y-105092201D01*
X157049722Y-105168081D01*
X156819192Y-105291302D01*
X156617130Y-105457130D01*
X156451302Y-105659193D01*
X156328081Y-105889723D01*
X156290000Y-106015258D01*
X156251919Y-105889722D01*
X156128698Y-105659192D01*
X155962870Y-105457130D01*
X155760807Y-105291302D01*
X155530277Y-105168081D01*
X155280136Y-105092201D01*
X155020000Y-105066580D01*
X154759863Y-105092201D01*
X154509722Y-105168081D01*
X154279192Y-105291302D01*
X154077130Y-105457130D01*
X153911302Y-105659193D01*
X153809549Y-105849559D01*
X153809549Y-105600000D01*
X153799374Y-105496690D01*
X153769239Y-105397350D01*
X153720304Y-105305798D01*
X153654448Y-105225552D01*
X153574202Y-105159696D01*
X153482650Y-105110761D01*
X153383310Y-105080626D01*
X153280000Y-105070451D01*
X151849295Y-105070451D01*
X149246413Y-102467570D01*
X149222080Y-102437920D01*
X149103766Y-102340823D01*
X148968784Y-102268673D01*
X148822319Y-102224243D01*
X148708166Y-102213000D01*
X148708163Y-102213000D01*
X148670000Y-102209241D01*
X148631837Y-102213000D01*
X148476794Y-102213000D01*
X148430748Y-102144087D01*
X148245913Y-101959252D01*
X148028570Y-101814028D01*
X147787072Y-101713996D01*
X147530698Y-101663000D01*
X147269302Y-101663000D01*
X147012928Y-101713996D01*
X146771430Y-101814028D01*
X146554087Y-101959252D01*
X146369252Y-102144087D01*
X146224028Y-102361430D01*
X146123996Y-102602928D01*
X146073000Y-102859302D01*
X146073000Y-103120698D01*
X146123996Y-103377072D01*
X146224028Y-103618570D01*
X146369252Y-103835913D01*
X146554087Y-104020748D01*
X146771430Y-104165972D01*
X147012928Y-104266004D01*
X147269302Y-104317000D01*
X147530698Y-104317000D01*
X147787072Y-104266004D01*
X148028570Y-104165972D01*
X148245913Y-104020748D01*
X148423909Y-103842752D01*
X151150451Y-106569295D01*
X151150451Y-108000000D01*
X151160626Y-108103310D01*
X151190761Y-108202650D01*
X151239696Y-108294202D01*
X151305552Y-108374448D01*
X151385798Y-108440304D01*
X151477350Y-108489239D01*
X151576690Y-108519374D01*
X151680000Y-108529549D01*
X153280000Y-108529549D01*
X153383310Y-108519374D01*
X153482650Y-108489239D01*
X153574202Y-108440304D01*
X153654448Y-108374448D01*
X153720304Y-108294202D01*
X153769239Y-108202650D01*
X153799374Y-108103310D01*
X153809549Y-108000000D01*
X153809549Y-107750442D01*
X153911302Y-107940808D01*
X154077131Y-108142870D01*
X154187615Y-108233542D01*
X151318157Y-111103000D01*
X149746794Y-111103000D01*
X149700748Y-111034087D01*
X149515913Y-110849252D01*
X149298570Y-110704028D01*
X149057072Y-110603996D01*
X148800698Y-110553000D01*
X148539302Y-110553000D01*
X148282928Y-110603996D01*
X148041430Y-110704028D01*
X147824087Y-110849252D01*
X147639252Y-111034087D01*
X147494028Y-111251430D01*
X147393996Y-111492928D01*
X147343000Y-111749302D01*
X147343000Y-112010698D01*
X147393996Y-112267072D01*
X147494028Y-112508570D01*
X147590534Y-112653001D01*
X146731845Y-112653001D01*
X143562796Y-109483953D01*
X143567000Y-109462819D01*
X143567000Y-109217181D01*
X143519079Y-108976263D01*
X143425077Y-108749324D01*
X143288608Y-108545084D01*
X143114916Y-108371392D01*
X143097000Y-108359421D01*
X143097000Y-100256794D01*
X143165913Y-100210748D01*
X143350748Y-100025913D01*
X143495972Y-99808570D01*
X143596004Y-99567072D01*
X143647000Y-99310698D01*
X143647000Y-99049302D01*
X143596004Y-98792928D01*
X143495972Y-98551430D01*
X143350748Y-98334087D01*
X143165913Y-98149252D01*
X142948570Y-98004028D01*
X142707072Y-97903996D01*
X142450698Y-97853000D01*
X142189302Y-97853000D01*
X141932928Y-97903996D01*
X141691430Y-98004028D01*
X141474087Y-98149252D01*
X141289252Y-98334087D01*
X141144028Y-98551430D01*
X141043996Y-98792928D01*
X140993000Y-99049302D01*
X140993000Y-99310698D01*
X141043996Y-99567072D01*
X141144028Y-99808570D01*
X141289252Y-100025913D01*
X141474087Y-100210748D01*
X141543000Y-100256794D01*
X141543001Y-108359420D01*
X141525084Y-108371392D01*
X141351392Y-108545084D01*
X141339421Y-108563000D01*
X140760579Y-108563000D01*
X140748608Y-108545084D01*
X140574916Y-108371392D01*
X140370676Y-108234923D01*
X140143737Y-108140921D01*
X139902819Y-108093000D01*
X139657181Y-108093000D01*
X139416263Y-108140921D01*
X139189324Y-108234923D01*
X138985084Y-108371392D01*
X138811392Y-108545084D01*
X138674923Y-108749324D01*
X138580921Y-108976263D01*
X138533000Y-109217181D01*
X138533000Y-109462819D01*
X138580921Y-109703737D01*
X138674923Y-109930676D01*
X138811392Y-110134916D01*
X138985084Y-110308608D01*
X139189324Y-110445077D01*
X139416263Y-110539079D01*
X139657181Y-110587000D01*
X139902819Y-110587000D01*
X140143737Y-110539079D01*
X140370676Y-110445077D01*
X140574916Y-110308608D01*
X140748608Y-110134916D01*
X140760579Y-110117000D01*
X141339421Y-110117000D01*
X141351392Y-110134916D01*
X141525084Y-110308608D01*
X141729324Y-110445077D01*
X141956263Y-110539079D01*
X142197181Y-110587000D01*
X142442819Y-110587000D01*
X142463953Y-110582796D01*
X145434167Y-113553011D01*
X128151855Y-113553011D01*
X126455707Y-111856864D01*
X126482075Y-111769939D01*
X126508662Y-111500000D01*
X126482075Y-111230061D01*
X126403337Y-110970495D01*
X126275473Y-110731279D01*
X126103397Y-110521603D01*
X125902614Y-110356825D01*
X126023320Y-110320209D01*
X126158094Y-110248171D01*
X126276224Y-110151224D01*
X126373171Y-110033094D01*
X126445209Y-109898320D01*
X126489570Y-109752082D01*
X126504549Y-109600000D01*
X126504549Y-109570571D01*
X126527080Y-109552080D01*
X126551413Y-109522430D01*
X133214541Y-102859302D01*
X135913000Y-102859302D01*
X135913000Y-103120698D01*
X135963996Y-103377072D01*
X136064028Y-103618570D01*
X136209252Y-103835913D01*
X136394087Y-104020748D01*
X136463000Y-104066794D01*
X136463001Y-108359420D01*
X136445084Y-108371392D01*
X136271392Y-108545084D01*
X136134923Y-108749324D01*
X136040921Y-108976263D01*
X135993000Y-109217181D01*
X135993000Y-109462819D01*
X136040921Y-109703737D01*
X136134923Y-109930676D01*
X136271392Y-110134916D01*
X136445084Y-110308608D01*
X136649324Y-110445077D01*
X136876263Y-110539079D01*
X137117181Y-110587000D01*
X137362819Y-110587000D01*
X137603737Y-110539079D01*
X137830676Y-110445077D01*
X138034916Y-110308608D01*
X138208608Y-110134916D01*
X138345077Y-109930676D01*
X138439079Y-109703737D01*
X138487000Y-109462819D01*
X138487000Y-109217181D01*
X138439079Y-108976263D01*
X138345077Y-108749324D01*
X138208608Y-108545084D01*
X138034916Y-108371392D01*
X138017000Y-108359421D01*
X138017000Y-104066794D01*
X138085913Y-104020748D01*
X138270748Y-103835913D01*
X138415972Y-103618570D01*
X138516004Y-103377072D01*
X138567000Y-103120698D01*
X138567000Y-102859302D01*
X138516004Y-102602928D01*
X138415972Y-102361430D01*
X138270748Y-102144087D01*
X138085913Y-101959252D01*
X137868570Y-101814028D01*
X137627072Y-101713996D01*
X137370698Y-101663000D01*
X137109302Y-101663000D01*
X136852928Y-101713996D01*
X136611430Y-101814028D01*
X136394087Y-101959252D01*
X136209252Y-102144087D01*
X136064028Y-102361430D01*
X135963996Y-102602928D01*
X135913000Y-102859302D01*
X133214541Y-102859302D01*
X141082437Y-94991407D01*
X141112080Y-94967080D01*
X141136409Y-94937435D01*
X141209177Y-94848767D01*
X141245252Y-94781275D01*
X141281327Y-94713784D01*
X141325757Y-94567319D01*
X141337000Y-94453166D01*
X141337000Y-94453164D01*
X141340759Y-94415000D01*
X141337000Y-94376837D01*
X141337000Y-90596794D01*
X141405913Y-90550748D01*
X141590748Y-90365913D01*
X141735972Y-90148570D01*
X141836004Y-89907072D01*
X141887000Y-89650698D01*
X141887000Y-89389302D01*
X141836004Y-89132928D01*
X141735972Y-88891430D01*
X141590748Y-88674087D01*
X141405913Y-88489252D01*
X141237916Y-88377000D01*
X144404156Y-88377000D01*
X142887564Y-89893593D01*
X142857920Y-89917921D01*
X142833592Y-89947565D01*
X142833590Y-89947567D01*
X142760822Y-90036235D01*
X142688672Y-90171218D01*
X142668688Y-90237099D01*
X142650529Y-90296962D01*
X142644243Y-90317683D01*
X142629240Y-90470001D01*
X142633000Y-90508174D01*
X142632999Y-94757838D01*
X142629240Y-94796001D01*
X142632999Y-94834164D01*
X142632999Y-94834166D01*
X142644242Y-94948319D01*
X142688040Y-95092702D01*
X142688672Y-95094784D01*
X142760822Y-95229767D01*
X142808202Y-95287500D01*
X142857919Y-95348081D01*
X142887569Y-95372414D01*
X147217590Y-99702436D01*
X147241918Y-99732080D01*
X147271562Y-99756408D01*
X147271563Y-99756409D01*
X147360231Y-99829177D01*
X147400728Y-99850823D01*
X147495214Y-99901327D01*
X147641679Y-99945757D01*
X147755832Y-99957000D01*
X147755834Y-99957000D01*
X147793998Y-99960759D01*
X147832161Y-99957000D01*
X151207651Y-99957000D01*
X151248081Y-100090278D01*
X151371302Y-100320808D01*
X151537131Y-100522870D01*
X151739193Y-100688698D01*
X151969723Y-100811919D01*
X152219864Y-100887799D01*
X152480000Y-100913420D01*
X152740137Y-100887799D01*
X152990278Y-100811919D01*
X153220808Y-100688698D01*
X153422870Y-100522870D01*
X153588698Y-100320808D01*
X153711919Y-100090278D01*
X153750000Y-99964743D01*
X153788081Y-100090278D01*
X153911302Y-100320808D01*
X154077131Y-100522870D01*
X154279193Y-100688698D01*
X154509723Y-100811919D01*
X154759864Y-100887799D01*
X155020000Y-100913420D01*
X155280137Y-100887799D01*
X155530278Y-100811919D01*
X155760808Y-100688698D01*
X155962870Y-100522870D01*
X156128698Y-100320808D01*
X156251919Y-100090278D01*
X156290000Y-99964743D01*
X156328081Y-100090278D01*
X156451302Y-100320808D01*
X156617131Y-100522870D01*
X156819193Y-100688698D01*
X157049723Y-100811919D01*
X157299864Y-100887799D01*
X157560000Y-100913420D01*
X157820137Y-100887799D01*
X158070278Y-100811919D01*
X158300808Y-100688698D01*
X158502870Y-100522870D01*
X158668698Y-100320808D01*
X158791919Y-100090278D01*
X158830000Y-99964743D01*
X158868081Y-100090278D01*
X158991302Y-100320808D01*
X159157131Y-100522870D01*
X159359193Y-100688698D01*
X159589723Y-100811919D01*
X159839864Y-100887799D01*
X160100000Y-100913420D01*
X160360137Y-100887799D01*
X160610278Y-100811919D01*
X160840808Y-100688698D01*
X161042870Y-100522870D01*
X161208698Y-100320808D01*
X161313678Y-100124404D01*
X161362834Y-100246483D01*
X161517399Y-100482839D01*
X161715105Y-100684500D01*
X161948354Y-100843715D01*
X162208182Y-100954367D01*
X162290961Y-100971904D01*
X162513000Y-100849915D01*
X162513000Y-99307000D01*
X162493000Y-99307000D01*
X162493000Y-99053000D01*
X162513000Y-99053000D01*
X162513000Y-97510085D01*
X162290961Y-97388096D01*
X162208182Y-97405633D01*
X161948354Y-97516285D01*
X161715105Y-97675500D01*
X161517399Y-97877161D01*
X161362834Y-98113517D01*
X161313678Y-98235596D01*
X161208698Y-98039192D01*
X161042870Y-97837130D01*
X160840807Y-97671302D01*
X160610277Y-97548081D01*
X160360136Y-97472201D01*
X160100000Y-97446580D01*
X159839863Y-97472201D01*
X159589722Y-97548081D01*
X159574866Y-97556022D01*
X157111546Y-95092702D01*
X159366903Y-95092702D01*
X159438486Y-95336671D01*
X159693996Y-95457571D01*
X159968184Y-95526300D01*
X160250512Y-95540217D01*
X160530130Y-95498787D01*
X160796292Y-95403603D01*
X160921514Y-95336671D01*
X160993097Y-95092702D01*
X160180000Y-94279605D01*
X159366903Y-95092702D01*
X157111546Y-95092702D01*
X156330831Y-94311987D01*
X156347000Y-94230698D01*
X156347000Y-94170512D01*
X158739783Y-94170512D01*
X158781213Y-94450130D01*
X158876397Y-94716292D01*
X158943329Y-94841514D01*
X159187298Y-94913097D01*
X160000395Y-94100000D01*
X160359605Y-94100000D01*
X161172702Y-94913097D01*
X161416671Y-94841514D01*
X161537571Y-94586004D01*
X161606300Y-94311816D01*
X161620217Y-94029488D01*
X161578787Y-93749870D01*
X161483603Y-93483708D01*
X161416671Y-93358486D01*
X161172702Y-93286903D01*
X160359605Y-94100000D01*
X160000395Y-94100000D01*
X159187298Y-93286903D01*
X158943329Y-93358486D01*
X158822429Y-93613996D01*
X158753700Y-93888184D01*
X158739783Y-94170512D01*
X156347000Y-94170512D01*
X156347000Y-93969302D01*
X156296004Y-93712928D01*
X156195972Y-93471430D01*
X156050748Y-93254087D01*
X155903959Y-93107298D01*
X159366903Y-93107298D01*
X160180000Y-93920395D01*
X160993097Y-93107298D01*
X160921514Y-92863329D01*
X160666004Y-92742429D01*
X160391816Y-92673700D01*
X160109488Y-92659783D01*
X159829870Y-92701213D01*
X159563708Y-92796397D01*
X159438486Y-92863329D01*
X159366903Y-93107298D01*
X155903959Y-93107298D01*
X155865913Y-93069252D01*
X155648570Y-92924028D01*
X155407072Y-92823996D01*
X155150698Y-92773000D01*
X154889302Y-92773000D01*
X154632928Y-92823996D01*
X154391430Y-92924028D01*
X154174087Y-93069252D01*
X153989252Y-93254087D01*
X153943206Y-93323000D01*
X151016794Y-93323000D01*
X150970748Y-93254087D01*
X150785913Y-93069252D01*
X150568570Y-92924028D01*
X150327072Y-92823996D01*
X150070698Y-92773000D01*
X149809302Y-92773000D01*
X149552928Y-92823996D01*
X149311430Y-92924028D01*
X149266999Y-92953716D01*
X149266999Y-92064650D01*
X152080537Y-89251112D01*
X162473000Y-89251112D01*
X162473000Y-89748888D01*
X162570111Y-90237099D01*
X162760602Y-90696983D01*
X163037151Y-91110869D01*
X163389131Y-91462849D01*
X163803017Y-91739398D01*
X164262901Y-91929889D01*
X164751112Y-92027000D01*
X165248888Y-92027000D01*
X165737099Y-91929889D01*
X166196983Y-91739398D01*
X166610869Y-91462849D01*
X166962849Y-91110869D01*
X167239398Y-90696983D01*
X167429889Y-90237099D01*
X167527000Y-89748888D01*
X167527000Y-89251112D01*
X167429889Y-88762901D01*
X167239398Y-88303017D01*
X166962849Y-87889131D01*
X166610869Y-87537151D01*
X166196983Y-87260602D01*
X165737099Y-87070111D01*
X165248888Y-86973000D01*
X164751112Y-86973000D01*
X164262901Y-87070111D01*
X163803017Y-87260602D01*
X163389131Y-87537151D01*
X163037151Y-87889131D01*
X162760602Y-88303017D01*
X162570111Y-88762901D01*
X162473000Y-89251112D01*
X152080537Y-89251112D01*
X154092436Y-87239214D01*
X154122079Y-87214887D01*
X154147625Y-87183759D01*
X154219176Y-87096574D01*
X154274222Y-86993590D01*
X154291326Y-86961591D01*
X154335756Y-86815126D01*
X154346999Y-86700973D01*
X154346999Y-86700971D01*
X154350758Y-86662807D01*
X154346999Y-86624644D01*
X154346999Y-85201484D01*
X154536913Y-85291246D01*
X154670961Y-85331904D01*
X154893000Y-85209915D01*
X154893000Y-84067000D01*
X155147000Y-84067000D01*
X155147000Y-85209915D01*
X155369039Y-85331904D01*
X155503087Y-85291246D01*
X155757420Y-85171037D01*
X155983414Y-85003519D01*
X156172385Y-84795131D01*
X156317070Y-84553881D01*
X156411909Y-84289040D01*
X156290624Y-84067000D01*
X155147000Y-84067000D01*
X154893000Y-84067000D01*
X154873000Y-84067000D01*
X154873000Y-83813000D01*
X154893000Y-83813000D01*
X154893000Y-82670085D01*
X155147000Y-82670085D01*
X155147000Y-83813000D01*
X156290624Y-83813000D01*
X156411909Y-83590960D01*
X156317070Y-83326119D01*
X156172385Y-83084869D01*
X155983414Y-82876481D01*
X155757420Y-82708963D01*
X155503087Y-82588754D01*
X155369039Y-82548096D01*
X155147000Y-82670085D01*
X154893000Y-82670085D01*
X154864446Y-82654397D01*
X159888013Y-77630831D01*
X159969302Y-77647000D01*
X160230698Y-77647000D01*
X160487072Y-77596004D01*
X160728570Y-77495972D01*
X160945913Y-77350748D01*
X161130748Y-77165913D01*
X161275972Y-76948570D01*
X161376004Y-76707072D01*
X161427000Y-76450698D01*
X161427000Y-76189302D01*
X161376004Y-75932928D01*
X161275972Y-75691430D01*
X161246284Y-75646999D01*
X162770158Y-75646999D01*
X165307896Y-78184737D01*
X165248888Y-78173000D01*
X164751112Y-78173000D01*
X164262901Y-78270111D01*
X163803017Y-78460602D01*
X163389131Y-78737151D01*
X163037151Y-79089131D01*
X162760602Y-79503017D01*
X162570111Y-79962901D01*
X162473000Y-80451112D01*
X162473000Y-80948888D01*
X162570111Y-81437099D01*
X162760602Y-81896983D01*
X163037151Y-82310869D01*
X163389131Y-82662849D01*
X163803017Y-82939398D01*
X164262901Y-83129889D01*
X164751112Y-83227000D01*
X165248888Y-83227000D01*
X165737099Y-83129889D01*
X166196983Y-82939398D01*
X166610869Y-82662849D01*
X166962849Y-82310869D01*
X167239398Y-81896983D01*
X167429889Y-81437099D01*
X167527000Y-80948888D01*
X167527000Y-80451112D01*
X167515263Y-80392104D01*
X169672999Y-82549841D01*
X169673000Y-86011826D01*
X169669240Y-86049999D01*
X169675222Y-86110727D01*
X169684243Y-86202318D01*
X169697720Y-86246747D01*
X169728672Y-86348782D01*
X169800822Y-86483765D01*
X169873590Y-86572433D01*
X169897920Y-86602079D01*
X169927564Y-86626407D01*
X170604126Y-87302969D01*
X170573000Y-87459453D01*
X170573000Y-87740547D01*
X170627838Y-88016241D01*
X170735409Y-88275938D01*
X170891576Y-88509660D01*
X171090340Y-88708424D01*
X171324062Y-88864591D01*
X171583759Y-88972162D01*
X171859453Y-89027000D01*
X172140547Y-89027000D01*
X172416241Y-88972162D01*
X172675938Y-88864591D01*
X172909660Y-88708424D01*
X173108424Y-88509660D01*
X173264591Y-88275938D01*
X173372162Y-88016241D01*
X173427000Y-87740547D01*
X173427000Y-87459453D01*
X173372162Y-87183759D01*
X173264591Y-86924062D01*
X173108424Y-86690340D01*
X172909660Y-86491576D01*
X172697775Y-86350000D01*
X172909660Y-86208424D01*
X173108424Y-86009660D01*
X173197064Y-85877000D01*
X174223115Y-85877000D01*
X174309252Y-86005913D01*
X174494087Y-86190748D01*
X174711430Y-86335972D01*
X174952928Y-86436004D01*
X175209302Y-86487000D01*
X175470698Y-86487000D01*
X175727072Y-86436004D01*
X175968570Y-86335972D01*
X176185913Y-86190748D01*
X176370748Y-86005913D01*
X176515972Y-85788570D01*
X176616004Y-85547072D01*
X176667000Y-85290698D01*
X176667000Y-85029302D01*
X176616004Y-84772928D01*
X176515972Y-84531430D01*
X176370748Y-84314087D01*
X176185913Y-84129252D01*
X175968570Y-83984028D01*
X175727072Y-83883996D01*
X175470698Y-83833000D01*
X175209302Y-83833000D01*
X174952928Y-83883996D01*
X174711430Y-83984028D01*
X174494087Y-84129252D01*
X174309252Y-84314087D01*
X174303297Y-84323000D01*
X173197064Y-84323000D01*
X173108424Y-84190340D01*
X172909660Y-83991576D01*
X172697775Y-83850000D01*
X172909660Y-83708424D01*
X173108424Y-83509660D01*
X173264591Y-83275938D01*
X173372162Y-83016241D01*
X173427000Y-82740547D01*
X173427000Y-82459453D01*
X173372162Y-82183759D01*
X173264591Y-81924062D01*
X173108424Y-81690340D01*
X172909660Y-81491576D01*
X172777000Y-81402936D01*
X172777000Y-78098163D01*
X172780759Y-78060000D01*
X172772903Y-77980240D01*
X172765757Y-77907681D01*
X172721327Y-77761216D01*
X172696195Y-77714199D01*
X172649178Y-77626234D01*
X172576409Y-77537565D01*
X172576408Y-77537564D01*
X172552080Y-77507920D01*
X172522437Y-77483593D01*
X171570831Y-76531987D01*
X171587000Y-76450698D01*
X171587000Y-76189302D01*
X171536004Y-75932928D01*
X171435972Y-75691430D01*
X171290748Y-75474087D01*
X171105913Y-75289252D01*
X170888570Y-75144028D01*
X170647072Y-75043996D01*
X170390698Y-74993000D01*
X170129302Y-74993000D01*
X169872928Y-75043996D01*
X169631430Y-75144028D01*
X169414087Y-75289252D01*
X169229252Y-75474087D01*
X169084028Y-75691430D01*
X168983996Y-75932928D01*
X168933000Y-76189302D01*
X168933000Y-76450698D01*
X168983996Y-76707072D01*
X169084028Y-76948570D01*
X169229252Y-77165913D01*
X169414087Y-77350748D01*
X169631430Y-77495972D01*
X169872928Y-77596004D01*
X170129302Y-77647000D01*
X170390698Y-77647000D01*
X170471987Y-77630831D01*
X171223000Y-78381844D01*
X171223001Y-81402936D01*
X171090340Y-81491576D01*
X170951381Y-81630535D01*
X163668414Y-74347569D01*
X163644081Y-74317919D01*
X163525767Y-74220822D01*
X163390785Y-74148672D01*
X163244320Y-74104242D01*
X163130167Y-74092999D01*
X163130164Y-74092999D01*
X163092001Y-74089240D01*
X163053838Y-74092999D01*
X159048164Y-74092999D01*
X159010001Y-74089240D01*
X158971837Y-74092999D01*
X158971835Y-74092999D01*
X158857682Y-74104242D01*
X158711217Y-74148672D01*
X158664200Y-74173804D01*
X158576235Y-74220821D01*
X158487566Y-74293590D01*
X158457921Y-74317919D01*
X158433593Y-74347563D01*
X155231987Y-77549169D01*
X155150698Y-77533000D01*
X154905843Y-77533000D01*
X165286141Y-67152702D01*
X169446903Y-67152702D01*
X169518486Y-67396671D01*
X169773996Y-67517571D01*
X170048184Y-67586300D01*
X170330512Y-67600217D01*
X170610130Y-67558787D01*
X170876292Y-67463603D01*
X171001514Y-67396671D01*
X171073097Y-67152702D01*
X170260000Y-66339605D01*
X169446903Y-67152702D01*
X165286141Y-67152702D01*
X166208331Y-66230512D01*
X168819783Y-66230512D01*
X168861213Y-66510130D01*
X168956397Y-66776292D01*
X169023329Y-66901514D01*
X169267298Y-66973097D01*
X170080395Y-66160000D01*
X170439605Y-66160000D01*
X171252702Y-66973097D01*
X171496671Y-66901514D01*
X171617571Y-66646004D01*
X171686300Y-66371816D01*
X171700217Y-66089488D01*
X171658787Y-65809870D01*
X171563603Y-65543708D01*
X171496671Y-65418486D01*
X171252702Y-65346903D01*
X170439605Y-66160000D01*
X170080395Y-66160000D01*
X169267298Y-65346903D01*
X169023329Y-65418486D01*
X168902429Y-65673996D01*
X168833700Y-65948184D01*
X168819783Y-66230512D01*
X166208331Y-66230512D01*
X167271545Y-65167298D01*
X169446903Y-65167298D01*
X170260000Y-65980395D01*
X171073097Y-65167298D01*
X171001514Y-64923329D01*
X170746004Y-64802429D01*
X170471816Y-64733700D01*
X170189488Y-64719783D01*
X169909870Y-64761213D01*
X169643708Y-64856397D01*
X169518486Y-64923329D01*
X169446903Y-65167298D01*
X167271545Y-65167298D01*
X170048013Y-62390831D01*
X170129302Y-62407000D01*
X170390698Y-62407000D01*
X170647072Y-62356004D01*
X170888570Y-62255972D01*
X171105913Y-62110748D01*
X171290748Y-61925913D01*
X171336794Y-61857000D01*
X174263206Y-61857000D01*
X174309252Y-61925913D01*
X174494087Y-62110748D01*
X174711430Y-62255972D01*
X174952928Y-62356004D01*
X175209302Y-62407000D01*
X175470698Y-62407000D01*
X175727072Y-62356004D01*
X175968570Y-62255972D01*
X176185913Y-62110748D01*
X176370748Y-61925913D01*
X176515972Y-61708570D01*
X176616004Y-61467072D01*
X176667000Y-61210698D01*
X176667000Y-60949302D01*
X176616004Y-60692928D01*
X176515972Y-60451430D01*
X176370748Y-60234087D01*
X176185913Y-60049252D01*
X175968570Y-59904028D01*
X175727072Y-59803996D01*
X175470698Y-59753000D01*
X175209302Y-59753000D01*
X174952928Y-59803996D01*
X174711430Y-59904028D01*
X174494087Y-60049252D01*
X174309252Y-60234087D01*
X174263206Y-60303000D01*
X171336794Y-60303000D01*
X171290748Y-60234087D01*
X171105913Y-60049252D01*
X170888570Y-59904028D01*
X170647072Y-59803996D01*
X170390698Y-59753000D01*
X170129302Y-59753000D01*
X169872928Y-59803996D01*
X169631430Y-59904028D01*
X169414087Y-60049252D01*
X169229252Y-60234087D01*
X169084028Y-60451430D01*
X168983996Y-60692928D01*
X168933000Y-60949302D01*
X168933000Y-61210698D01*
X168949169Y-61291987D01*
X150867566Y-79373591D01*
X150837922Y-79397919D01*
X150813594Y-79427563D01*
X150813592Y-79427565D01*
X150740824Y-79516233D01*
X150668674Y-79651216D01*
X150624245Y-79797681D01*
X150609242Y-79949999D01*
X150613002Y-79988172D01*
X150613002Y-82793716D01*
X150568570Y-82764028D01*
X150327072Y-82663996D01*
X150070698Y-82613000D01*
X149809302Y-82613000D01*
X149728013Y-82629169D01*
X146170831Y-79071987D01*
X146187000Y-78990698D01*
X146187000Y-78729302D01*
X146136004Y-78472928D01*
X146035972Y-78231430D01*
X145890748Y-78014087D01*
X145705913Y-77829252D01*
X145488570Y-77684028D01*
X145247072Y-77583996D01*
X144990698Y-77533000D01*
X144729302Y-77533000D01*
X144472928Y-77583996D01*
X144231430Y-77684028D01*
X144014087Y-77829252D01*
X143829252Y-78014087D01*
X143684028Y-78231430D01*
X143583996Y-78472928D01*
X143533000Y-78729302D01*
X143533000Y-78990698D01*
X143583996Y-79247072D01*
X143684028Y-79488570D01*
X143829252Y-79705913D01*
X144014087Y-79890748D01*
X144231430Y-80035972D01*
X144472928Y-80136004D01*
X144729302Y-80187000D01*
X144990698Y-80187000D01*
X145071987Y-80170831D01*
X148629169Y-83728013D01*
X148613000Y-83809302D01*
X148613000Y-84070698D01*
X148629169Y-84151987D01*
X145958157Y-86823000D01*
X138197064Y-86823000D01*
X138108424Y-86690340D01*
X137909660Y-86491576D01*
X137697775Y-86350000D01*
X137909660Y-86208424D01*
X138108424Y-86009660D01*
X138263881Y-85777000D01*
X143761837Y-85777000D01*
X143800000Y-85780759D01*
X143838163Y-85777000D01*
X143838166Y-85777000D01*
X143952319Y-85765757D01*
X144098784Y-85721327D01*
X144233766Y-85649177D01*
X144352080Y-85552080D01*
X144376412Y-85522431D01*
X144648013Y-85250831D01*
X144729302Y-85267000D01*
X144990698Y-85267000D01*
X145247072Y-85216004D01*
X145488570Y-85115972D01*
X145705913Y-84970748D01*
X145890748Y-84785913D01*
X146035972Y-84568570D01*
X146136004Y-84327072D01*
X146187000Y-84070698D01*
X146187000Y-83809302D01*
X146136004Y-83552928D01*
X146035972Y-83311430D01*
X145890748Y-83094087D01*
X145705913Y-82909252D01*
X145488570Y-82764028D01*
X145247072Y-82663996D01*
X144990698Y-82613000D01*
X144729302Y-82613000D01*
X144472928Y-82663996D01*
X144231430Y-82764028D01*
X144014087Y-82909252D01*
X143829252Y-83094087D01*
X143684028Y-83311430D01*
X143583996Y-83552928D01*
X143533000Y-83809302D01*
X143533000Y-84070698D01*
X143549169Y-84151987D01*
X143478157Y-84223000D01*
X138130247Y-84223000D01*
X138108424Y-84190340D01*
X137909660Y-83991576D01*
X137697775Y-83850000D01*
X137909660Y-83708424D01*
X138108424Y-83509660D01*
X138264591Y-83275938D01*
X138372162Y-83016241D01*
X138427000Y-82740547D01*
X138427000Y-82459453D01*
X138372162Y-82183759D01*
X138264591Y-81924062D01*
X138161185Y-81769302D01*
X139233000Y-81769302D01*
X139233000Y-82030698D01*
X139283996Y-82287072D01*
X139384028Y-82528570D01*
X139529252Y-82745913D01*
X139714087Y-82930748D01*
X139931430Y-83075972D01*
X140172928Y-83176004D01*
X140429302Y-83227000D01*
X140690698Y-83227000D01*
X140947072Y-83176004D01*
X141188570Y-83075972D01*
X141405913Y-82930748D01*
X141590748Y-82745913D01*
X141735972Y-82528570D01*
X141836004Y-82287072D01*
X141887000Y-82030698D01*
X141887000Y-81769302D01*
X141836004Y-81512928D01*
X141735972Y-81271430D01*
X141590748Y-81054087D01*
X141405913Y-80869252D01*
X141337000Y-80823206D01*
X141337000Y-74197845D01*
X149025805Y-66509040D01*
X158708091Y-66509040D01*
X158802930Y-66773881D01*
X158947615Y-67015131D01*
X159136586Y-67223519D01*
X159362580Y-67391037D01*
X159616913Y-67511246D01*
X159750961Y-67551904D01*
X159973000Y-67429915D01*
X159973000Y-66287000D01*
X160227000Y-66287000D01*
X160227000Y-67429915D01*
X160449039Y-67551904D01*
X160583087Y-67511246D01*
X160837420Y-67391037D01*
X161063414Y-67223519D01*
X161252385Y-67015131D01*
X161397070Y-66773881D01*
X161491909Y-66509040D01*
X161370624Y-66287000D01*
X160227000Y-66287000D01*
X159973000Y-66287000D01*
X158829376Y-66287000D01*
X158708091Y-66509040D01*
X149025805Y-66509040D01*
X149723885Y-65810960D01*
X158708091Y-65810960D01*
X158829376Y-66033000D01*
X159973000Y-66033000D01*
X159973000Y-64890085D01*
X160227000Y-64890085D01*
X160227000Y-66033000D01*
X161370624Y-66033000D01*
X161491909Y-65810960D01*
X161397070Y-65546119D01*
X161252385Y-65304869D01*
X161063414Y-65096481D01*
X160837420Y-64928963D01*
X160583087Y-64808754D01*
X160449039Y-64768096D01*
X160227000Y-64890085D01*
X159973000Y-64890085D01*
X159750961Y-64768096D01*
X159616913Y-64808754D01*
X159362580Y-64928963D01*
X159136586Y-65096481D01*
X158947615Y-65304869D01*
X158802930Y-65546119D01*
X158708091Y-65810960D01*
X149723885Y-65810960D01*
X154999105Y-60535741D01*
X154933996Y-60692928D01*
X154883000Y-60949302D01*
X154883000Y-61210698D01*
X154933996Y-61467072D01*
X155034028Y-61708570D01*
X155179252Y-61925913D01*
X155364087Y-62110748D01*
X155581430Y-62255972D01*
X155822928Y-62356004D01*
X156079302Y-62407000D01*
X156340698Y-62407000D01*
X156597072Y-62356004D01*
X156838570Y-62255972D01*
X157055913Y-62110748D01*
X157240748Y-61925913D01*
X157286794Y-61857000D01*
X159023206Y-61857000D01*
X159069252Y-61925913D01*
X159254087Y-62110748D01*
X159471430Y-62255972D01*
X159712928Y-62356004D01*
X159969302Y-62407000D01*
X160230698Y-62407000D01*
X160487072Y-62356004D01*
X160728570Y-62255972D01*
X160945913Y-62110748D01*
X161130748Y-61925913D01*
X161275972Y-61708570D01*
X161376004Y-61467072D01*
X161427000Y-61210698D01*
X161427000Y-60949302D01*
X161376004Y-60692928D01*
X161275972Y-60451430D01*
X161130748Y-60234087D01*
X160945913Y-60049252D01*
X160728570Y-59904028D01*
X160487072Y-59803996D01*
X160230698Y-59753000D01*
X159969302Y-59753000D01*
X159712928Y-59803996D01*
X159471430Y-59904028D01*
X159254087Y-60049252D01*
X159069252Y-60234087D01*
X159023206Y-60303000D01*
X157286794Y-60303000D01*
X157240748Y-60234087D01*
X157055913Y-60049252D01*
X156838570Y-59904028D01*
X156597072Y-59803996D01*
X156340698Y-59753000D01*
X156079302Y-59753000D01*
X155822928Y-59803996D01*
X155581430Y-59904028D01*
X155517857Y-59946506D01*
X155527330Y-59928783D01*
X155571760Y-59782318D01*
X155583003Y-59668165D01*
X155583003Y-59668163D01*
X155586762Y-59629999D01*
X155583003Y-59591836D01*
X155583003Y-57815840D01*
X156121844Y-57277000D01*
X180598157Y-57277000D01*
X183527564Y-60206408D01*
X183527569Y-60206412D01*
X184189169Y-60868013D01*
X184173000Y-60949302D01*
X184173000Y-61210698D01*
X184223996Y-61467072D01*
X184324028Y-61708570D01*
X184469252Y-61925913D01*
X184654087Y-62110748D01*
X184871430Y-62255972D01*
X185112928Y-62356004D01*
X185369302Y-62407000D01*
X185630698Y-62407000D01*
X185887072Y-62356004D01*
X186128570Y-62255972D01*
X186345913Y-62110748D01*
X186530748Y-61925913D01*
X186675972Y-61708570D01*
X186776004Y-61467072D01*
X186827000Y-61210698D01*
X186827000Y-60949302D01*
X186776004Y-60692928D01*
X186675972Y-60451430D01*
X186530748Y-60234087D01*
X186345913Y-60049252D01*
X186128570Y-59904028D01*
X185887072Y-59803996D01*
X185630698Y-59753000D01*
X185369302Y-59753000D01*
X185288013Y-59769169D01*
X184626412Y-59107569D01*
X184626408Y-59107564D01*
X181496413Y-55977570D01*
X181472080Y-55947920D01*
X181353766Y-55850823D01*
X181218784Y-55778673D01*
X181072319Y-55734243D01*
X180958166Y-55723000D01*
X180958163Y-55723000D01*
X180920000Y-55719241D01*
X180881837Y-55723000D01*
X155838155Y-55723000D01*
X155799999Y-55719242D01*
X155761843Y-55723000D01*
X155761834Y-55723000D01*
X155647681Y-55734243D01*
X155501216Y-55778673D01*
X155366233Y-55850823D01*
X155277565Y-55923591D01*
X155247920Y-55947920D01*
X155223592Y-55977564D01*
X154283568Y-56917589D01*
X154253924Y-56941917D01*
X154229596Y-56971561D01*
X154229594Y-56971563D01*
X154156826Y-57060231D01*
X154084676Y-57195214D01*
X154040247Y-57341679D01*
X154025244Y-57493997D01*
X154029004Y-57532170D01*
X154029003Y-59308155D01*
X152608392Y-60728766D01*
X152513603Y-60463708D01*
X152446671Y-60338486D01*
X152202702Y-60266903D01*
X151389605Y-61080000D01*
X151403748Y-61094143D01*
X151224143Y-61273748D01*
X151210000Y-61259605D01*
X150396903Y-62072702D01*
X150468486Y-62316671D01*
X150723996Y-62437571D01*
X150864394Y-62472764D01*
X140037565Y-73299594D01*
X140007921Y-73323922D01*
X139983593Y-73353566D01*
X139983591Y-73353568D01*
X139910823Y-73442236D01*
X139838673Y-73577219D01*
X139815356Y-73654087D01*
X139795592Y-73719241D01*
X139794244Y-73723684D01*
X139779241Y-73876002D01*
X139783001Y-73914175D01*
X139783000Y-80823206D01*
X139714087Y-80869252D01*
X139529252Y-81054087D01*
X139384028Y-81271430D01*
X139283996Y-81512928D01*
X139233000Y-81769302D01*
X138161185Y-81769302D01*
X138108424Y-81690340D01*
X137909660Y-81491576D01*
X137675938Y-81335409D01*
X137416241Y-81227838D01*
X137140547Y-81173000D01*
X136859453Y-81173000D01*
X136583759Y-81227838D01*
X136324062Y-81335409D01*
X136090340Y-81491576D01*
X135891576Y-81690340D01*
X135735409Y-81924062D01*
X135627838Y-82183759D01*
X135573000Y-82459453D01*
X135573000Y-82740547D01*
X135627838Y-83016241D01*
X135735409Y-83275938D01*
X135891576Y-83509660D01*
X136090340Y-83708424D01*
X136302225Y-83850000D01*
X136090340Y-83991576D01*
X135891576Y-84190340D01*
X135735409Y-84424062D01*
X135627838Y-84683759D01*
X135573000Y-84959453D01*
X135573000Y-85240547D01*
X135627838Y-85516241D01*
X135735409Y-85775938D01*
X135891576Y-86009660D01*
X136090340Y-86208424D01*
X136302225Y-86350000D01*
X136090340Y-86491576D01*
X135891576Y-86690340D01*
X135735409Y-86924062D01*
X135627838Y-87183759D01*
X135573000Y-87459453D01*
X135573000Y-87740547D01*
X135627838Y-88016241D01*
X135735409Y-88275938D01*
X135891576Y-88509660D01*
X136090340Y-88708424D01*
X136223001Y-88797065D01*
X136223000Y-96164158D01*
X133650268Y-98736891D01*
X133681326Y-98678785D01*
X133689148Y-98653000D01*
X133725756Y-98532320D01*
X133736999Y-98418167D01*
X133736999Y-98418158D01*
X133740757Y-98380002D01*
X133736999Y-98341846D01*
X133736999Y-74581844D01*
X147168331Y-61150512D01*
X149769783Y-61150512D01*
X149811213Y-61430130D01*
X149906397Y-61696292D01*
X149973329Y-61821514D01*
X150217298Y-61893097D01*
X151030395Y-61080000D01*
X150217298Y-60266903D01*
X149973329Y-60338486D01*
X149852429Y-60593996D01*
X149783700Y-60868184D01*
X149769783Y-61150512D01*
X147168331Y-61150512D01*
X148231545Y-60087298D01*
X150396903Y-60087298D01*
X151210000Y-60900395D01*
X152023097Y-60087298D01*
X151951514Y-59843329D01*
X151696004Y-59722429D01*
X151421816Y-59653700D01*
X151139488Y-59639783D01*
X150859870Y-59681213D01*
X150593708Y-59776397D01*
X150468486Y-59843329D01*
X150396903Y-60087298D01*
X148231545Y-60087298D01*
X153581844Y-54737000D01*
X183418157Y-54737000D01*
X188723000Y-60041844D01*
X188723001Y-61423205D01*
X188654087Y-61469252D01*
X188469252Y-61654087D01*
X188324028Y-61871430D01*
X188223996Y-62112928D01*
X188173000Y-62369302D01*
X188173000Y-62630698D01*
X188223996Y-62887072D01*
X188324028Y-63128570D01*
X188469252Y-63345913D01*
X188654087Y-63530748D01*
X188871430Y-63675972D01*
X189112928Y-63776004D01*
X189369302Y-63827000D01*
X189630698Y-63827000D01*
X189887072Y-63776004D01*
X190128570Y-63675972D01*
X190345913Y-63530748D01*
X190530748Y-63345913D01*
X190675972Y-63128570D01*
X190776004Y-62887072D01*
X190827000Y-62630698D01*
X190827000Y-62369302D01*
X190776004Y-62112928D01*
X190675972Y-61871430D01*
X190530748Y-61654087D01*
X190345913Y-61469252D01*
X190277000Y-61423206D01*
X190277000Y-59758155D01*
X190280758Y-59719999D01*
X190277000Y-59681843D01*
X190277000Y-59681834D01*
X190265757Y-59567681D01*
X190221327Y-59421216D01*
X190149178Y-59286235D01*
X190149177Y-59286233D01*
X190076409Y-59197565D01*
X190076408Y-59197564D01*
X190052080Y-59167920D01*
X190022437Y-59143593D01*
X184316413Y-53437570D01*
X184292080Y-53407920D01*
X184173766Y-53310823D01*
X184038784Y-53238673D01*
X183892319Y-53194243D01*
X183778166Y-53183000D01*
X183778163Y-53183000D01*
X183740000Y-53179241D01*
X183701837Y-53183000D01*
X153298163Y-53183000D01*
X153260000Y-53179241D01*
X153221836Y-53183000D01*
X153221834Y-53183000D01*
X153107681Y-53194243D01*
X152961216Y-53238673D01*
X152826234Y-53310823D01*
X152707920Y-53407920D01*
X152683592Y-53437564D01*
X132437564Y-73683593D01*
X132407920Y-73707921D01*
X132383592Y-73737565D01*
X132383590Y-73737567D01*
X132310822Y-73826235D01*
X132238672Y-73961218D01*
X132218317Y-74028320D01*
X132199838Y-74089240D01*
X132194243Y-74107683D01*
X132179240Y-74260001D01*
X132183000Y-74298174D01*
X132183000Y-79418611D01*
X131962849Y-79089131D01*
X131610869Y-78737151D01*
X131196983Y-78460602D01*
X130737099Y-78270111D01*
X130248888Y-78173000D01*
X129751112Y-78173000D01*
X129262901Y-78270111D01*
X128803017Y-78460602D01*
X128389131Y-78737151D01*
X128037151Y-79089131D01*
X127760602Y-79503017D01*
X127570111Y-79962901D01*
X127473000Y-80451112D01*
X127473000Y-80948888D01*
X127570111Y-81437099D01*
X127760602Y-81896983D01*
X128037151Y-82310869D01*
X128389131Y-82662849D01*
X128803017Y-82939398D01*
X129262901Y-83129889D01*
X129751112Y-83227000D01*
X130248888Y-83227000D01*
X130737099Y-83129889D01*
X131196983Y-82939398D01*
X131610869Y-82662849D01*
X131962849Y-82310869D01*
X132183000Y-81981389D01*
X132182999Y-88218610D01*
X131962849Y-87889131D01*
X131610869Y-87537151D01*
X131196983Y-87260602D01*
X130737099Y-87070111D01*
X130248888Y-86973000D01*
X129751112Y-86973000D01*
X129262901Y-87070111D01*
X128803017Y-87260602D01*
X128389131Y-87537151D01*
X128037151Y-87889131D01*
X127760602Y-88303017D01*
X127570111Y-88762901D01*
X127473000Y-89251112D01*
X127473000Y-89748888D01*
X127570111Y-90237099D01*
X127760602Y-90696983D01*
X128037151Y-91110869D01*
X128389131Y-91462849D01*
X128803017Y-91739398D01*
X129262901Y-91929889D01*
X129751112Y-92027000D01*
X130248888Y-92027000D01*
X130737099Y-91929889D01*
X131196983Y-91739398D01*
X131610869Y-91462849D01*
X131962849Y-91110869D01*
X132182999Y-90781390D01*
X132182999Y-97044155D01*
X115404918Y-80266075D01*
X115430600Y-80136962D01*
X115430600Y-79863038D01*
X115377160Y-79594377D01*
X115272334Y-79341304D01*
X115120150Y-79113544D01*
X114926456Y-78919850D01*
X114698696Y-78767666D01*
X114445623Y-78662840D01*
X114176962Y-78609400D01*
X113903038Y-78609400D01*
X113634377Y-78662840D01*
X113381304Y-78767666D01*
X113153544Y-78919850D01*
X112959850Y-79113544D01*
X112893149Y-79213369D01*
X112893149Y-79136400D01*
X112882974Y-79033090D01*
X112852839Y-78933750D01*
X112803904Y-78842198D01*
X112738048Y-78761952D01*
X112657802Y-78696096D01*
X112566250Y-78647161D01*
X112466910Y-78617026D01*
X112363600Y-78606851D01*
X112277000Y-78606851D01*
X112277000Y-71576794D01*
X112345913Y-71530748D01*
X112530748Y-71345913D01*
X112561933Y-71299242D01*
X112561928Y-71300000D01*
X112574188Y-71424482D01*
X112610498Y-71544180D01*
X112669463Y-71654494D01*
X112748815Y-71751185D01*
X112845506Y-71830537D01*
X112955820Y-71889502D01*
X113075518Y-71925812D01*
X113200000Y-71938072D01*
X113714250Y-71935000D01*
X113873000Y-71776250D01*
X113873000Y-70627000D01*
X114127000Y-70627000D01*
X114127000Y-71776250D01*
X114285750Y-71935000D01*
X114800000Y-71938072D01*
X114924482Y-71925812D01*
X115044180Y-71889502D01*
X115154494Y-71830537D01*
X115251185Y-71751185D01*
X115330537Y-71654494D01*
X115389502Y-71544180D01*
X115425812Y-71424482D01*
X115438072Y-71300000D01*
X115435000Y-70785750D01*
X115276250Y-70627000D01*
X114127000Y-70627000D01*
X113873000Y-70627000D01*
X113853000Y-70627000D01*
X113853000Y-70373000D01*
X113873000Y-70373000D01*
X113873000Y-69223750D01*
X114127000Y-69223750D01*
X114127000Y-70373000D01*
X115276250Y-70373000D01*
X115435000Y-70214250D01*
X115438072Y-69700000D01*
X115425812Y-69575518D01*
X115389502Y-69455820D01*
X115330537Y-69345506D01*
X115251185Y-69248815D01*
X115154494Y-69169463D01*
X115044180Y-69110498D01*
X114924482Y-69074188D01*
X114800000Y-69061928D01*
X114285750Y-69065000D01*
X114127000Y-69223750D01*
X113873000Y-69223750D01*
X113714250Y-69065000D01*
X113200000Y-69061928D01*
X113075518Y-69074188D01*
X112955820Y-69110498D01*
X112845506Y-69169463D01*
X112748815Y-69248815D01*
X112669463Y-69345506D01*
X112610498Y-69455820D01*
X112574188Y-69575518D01*
X112561928Y-69700000D01*
X112561933Y-69700758D01*
X112530748Y-69654087D01*
X112345913Y-69469252D01*
X112128570Y-69324028D01*
X111887072Y-69223996D01*
X111630698Y-69173000D01*
X111369302Y-69173000D01*
X111112928Y-69223996D01*
X110871430Y-69324028D01*
X110654087Y-69469252D01*
X110469252Y-69654087D01*
X110324028Y-69871430D01*
X110223996Y-70112928D01*
X110173000Y-70369302D01*
X110173000Y-70630698D01*
X110223996Y-70887072D01*
X110324028Y-71128570D01*
X110469252Y-71345913D01*
X110654087Y-71530748D01*
X110723000Y-71576794D01*
X110723001Y-78606851D01*
X110636400Y-78606851D01*
X110533090Y-78617026D01*
X110433750Y-78647161D01*
X110342198Y-78696096D01*
X110261952Y-78761952D01*
X110196096Y-78842198D01*
X110147161Y-78933750D01*
X110117026Y-79033090D01*
X110106851Y-79136400D01*
X110106851Y-80863600D01*
X110117026Y-80966910D01*
X110147161Y-81066250D01*
X110196096Y-81157802D01*
X110261952Y-81238048D01*
X110342198Y-81303904D01*
X110433750Y-81352839D01*
X110533090Y-81382974D01*
X110553909Y-81385024D01*
X110393146Y-81529707D01*
X110217316Y-81765056D01*
X110090778Y-82030186D01*
X110045042Y-82180974D01*
X110166183Y-82413000D01*
X111373000Y-82413000D01*
X111373000Y-82393000D01*
X111627000Y-82393000D01*
X111627000Y-82413000D01*
X113913000Y-82413000D01*
X113913000Y-82393000D01*
X114167000Y-82393000D01*
X114167000Y-82413000D01*
X114187000Y-82413000D01*
X114187000Y-82667000D01*
X114167000Y-82667000D01*
X114167000Y-84953000D01*
X115373817Y-84953000D01*
X115494958Y-84720974D01*
X115449222Y-84570186D01*
X115322684Y-84305056D01*
X115146854Y-84069707D01*
X114928488Y-83873183D01*
X114822230Y-83810000D01*
X114928488Y-83746817D01*
X115146854Y-83550293D01*
X115322684Y-83314944D01*
X115449222Y-83049814D01*
X115494958Y-82899026D01*
X115373818Y-82667002D01*
X115538600Y-82667002D01*
X115538600Y-82597443D01*
X131202248Y-98261091D01*
X131129252Y-98334087D01*
X130984028Y-98551430D01*
X130883996Y-98792928D01*
X130833000Y-99049302D01*
X130833000Y-99310698D01*
X130883996Y-99567072D01*
X130984028Y-99808570D01*
X131013716Y-99853001D01*
X124831845Y-99853001D01*
X115404918Y-90426075D01*
X115430600Y-90296962D01*
X115430600Y-90023038D01*
X115377160Y-89754377D01*
X115272334Y-89501304D01*
X115120150Y-89273544D01*
X114926456Y-89079850D01*
X114727037Y-88946603D01*
X114928488Y-88826817D01*
X115146854Y-88630293D01*
X115322684Y-88394944D01*
X115449222Y-88129814D01*
X115494958Y-87979026D01*
X115373817Y-87747000D01*
X114167000Y-87747000D01*
X114167000Y-87767000D01*
X113913000Y-87767000D01*
X113913000Y-87747000D01*
X111627000Y-87747000D01*
X111627000Y-87767000D01*
X111373000Y-87767000D01*
X111373000Y-87747000D01*
X110166183Y-87747000D01*
X110045042Y-87979026D01*
X110090778Y-88129814D01*
X110217316Y-88394944D01*
X110393146Y-88630293D01*
X110611512Y-88826817D01*
X110812963Y-88946603D01*
X110613544Y-89079850D01*
X110419850Y-89273544D01*
X110267666Y-89501304D01*
X110162840Y-89754377D01*
X110109400Y-90023038D01*
X110109400Y-90296962D01*
X110162840Y-90565623D01*
X110267666Y-90818696D01*
X110419850Y-91046456D01*
X110613544Y-91240150D01*
X110723001Y-91313287D01*
X110723000Y-99170451D01*
X110700000Y-99170451D01*
X110596690Y-99180626D01*
X110497350Y-99210761D01*
X110405798Y-99259696D01*
X110325552Y-99325552D01*
X110259696Y-99405798D01*
X110210761Y-99497350D01*
X110180626Y-99596690D01*
X110170451Y-99700000D01*
X110170451Y-101300000D01*
X110180626Y-101403310D01*
X110210761Y-101502650D01*
X110259696Y-101594202D01*
X110325552Y-101674448D01*
X110405798Y-101740304D01*
X110497350Y-101789239D01*
X110596690Y-101819374D01*
X110700000Y-101829549D01*
X110723001Y-101829549D01*
X110723000Y-108681837D01*
X110719241Y-108720000D01*
X110723000Y-108758163D01*
X110723000Y-108758165D01*
X110734243Y-108872318D01*
X110757442Y-108948793D01*
X110778673Y-109018783D01*
X110850823Y-109153766D01*
X110890481Y-109202089D01*
X110947920Y-109272080D01*
X110977570Y-109296413D01*
X119703592Y-118022436D01*
X119727920Y-118052080D01*
X119757564Y-118076408D01*
X119757565Y-118076409D01*
X119846233Y-118149177D01*
X119981216Y-118221327D01*
X120127681Y-118265757D01*
X120241834Y-118277000D01*
X120241843Y-118277000D01*
X120279999Y-118280758D01*
X120318155Y-118277000D01*
X184923206Y-118277000D01*
X184969252Y-118345913D01*
X185154087Y-118530748D01*
X185371430Y-118675972D01*
X185612928Y-118776004D01*
X185869302Y-118827000D01*
X186130698Y-118827000D01*
X186387072Y-118776004D01*
X186628570Y-118675972D01*
X186845913Y-118530748D01*
X187030748Y-118345913D01*
X187175972Y-118128570D01*
X187276004Y-117887072D01*
X187327000Y-117630698D01*
X187327000Y-117369302D01*
X187276004Y-117112928D01*
X187175972Y-116871430D01*
X187030748Y-116654087D01*
X186845913Y-116469252D01*
X186628570Y-116324028D01*
X186387072Y-116223996D01*
X186130698Y-116173000D01*
X185869302Y-116173000D01*
X185612928Y-116223996D01*
X185371430Y-116324028D01*
X185154087Y-116469252D01*
X184969252Y-116654087D01*
X184923206Y-116723000D01*
X120601844Y-116723000D01*
X118235734Y-114356890D01*
X123433524Y-114356890D01*
X123525648Y-114619858D01*
X123672504Y-114871193D01*
X123865571Y-115089049D01*
X124097430Y-115265053D01*
X124359170Y-115392442D01*
X124640733Y-115466320D01*
X124873000Y-115326165D01*
X124873000Y-114127000D01*
X123554845Y-114127000D01*
X123433524Y-114356890D01*
X118235734Y-114356890D01*
X112277000Y-108398157D01*
X112277000Y-101829549D01*
X112300000Y-101829549D01*
X112403310Y-101819374D01*
X112502650Y-101789239D01*
X112594202Y-101740304D01*
X112674448Y-101674448D01*
X112740304Y-101594202D01*
X112789239Y-101502650D01*
X112792256Y-101492702D01*
X113186903Y-101492702D01*
X113258486Y-101736671D01*
X113513996Y-101857571D01*
X113788184Y-101926300D01*
X114070512Y-101940217D01*
X114350130Y-101898787D01*
X114616292Y-101803603D01*
X114741514Y-101736671D01*
X114813097Y-101492702D01*
X114000000Y-100679605D01*
X113186903Y-101492702D01*
X112792256Y-101492702D01*
X112819374Y-101403310D01*
X112829549Y-101300000D01*
X112829549Y-101260944D01*
X113007298Y-101313097D01*
X113820395Y-100500000D01*
X114179605Y-100500000D01*
X114992702Y-101313097D01*
X115236671Y-101241514D01*
X115357571Y-100986004D01*
X115426300Y-100711816D01*
X115440217Y-100429488D01*
X115398787Y-100149870D01*
X115303603Y-99883708D01*
X115236671Y-99758486D01*
X114992702Y-99686903D01*
X114179605Y-100500000D01*
X113820395Y-100500000D01*
X113007298Y-99686903D01*
X112829549Y-99739056D01*
X112829549Y-99700000D01*
X112819374Y-99596690D01*
X112792257Y-99507298D01*
X113186903Y-99507298D01*
X114000000Y-100320395D01*
X114813097Y-99507298D01*
X114741514Y-99263329D01*
X114486004Y-99142429D01*
X114211816Y-99073700D01*
X113929488Y-99059783D01*
X113649870Y-99101213D01*
X113383708Y-99196397D01*
X113258486Y-99263329D01*
X113186903Y-99507298D01*
X112792257Y-99507298D01*
X112789239Y-99497350D01*
X112740304Y-99405798D01*
X112674448Y-99325552D01*
X112594202Y-99259696D01*
X112502650Y-99210761D01*
X112403310Y-99180626D01*
X112300000Y-99170451D01*
X112277000Y-99170451D01*
X112277000Y-91313286D01*
X112386456Y-91240150D01*
X112580150Y-91046456D01*
X112653286Y-90937000D01*
X112886714Y-90937000D01*
X112959850Y-91046456D01*
X113153544Y-91240150D01*
X113381304Y-91392334D01*
X113634377Y-91497160D01*
X113903038Y-91550600D01*
X114176962Y-91550600D01*
X114306075Y-91524918D01*
X123933593Y-101152437D01*
X123957921Y-101182081D01*
X123987565Y-101206409D01*
X123987566Y-101206410D01*
X124076234Y-101279178D01*
X124139692Y-101313097D01*
X124211217Y-101351328D01*
X124357682Y-101395758D01*
X124471835Y-101407001D01*
X124471844Y-101407001D01*
X124510000Y-101410759D01*
X124548156Y-101407001D01*
X132469156Y-101407001D01*
X126136090Y-107740067D01*
X126023320Y-107679791D01*
X125877082Y-107635430D01*
X125725000Y-107620451D01*
X124275000Y-107620451D01*
X124122918Y-107635430D01*
X123976680Y-107679791D01*
X123841906Y-107751829D01*
X123723776Y-107848776D01*
X123626829Y-107966906D01*
X123554791Y-108101680D01*
X123510430Y-108247918D01*
X123495451Y-108400000D01*
X123495451Y-109600000D01*
X123510430Y-109752082D01*
X123554791Y-109898320D01*
X123626829Y-110033094D01*
X123723776Y-110151224D01*
X123841906Y-110248171D01*
X123976680Y-110320209D01*
X124097386Y-110356825D01*
X123896603Y-110521603D01*
X123724527Y-110731279D01*
X123596663Y-110970495D01*
X123517925Y-111230061D01*
X123491338Y-111500000D01*
X123517925Y-111769939D01*
X123596663Y-112029505D01*
X123724527Y-112268721D01*
X123896603Y-112478397D01*
X124106279Y-112650473D01*
X124184781Y-112692433D01*
X124097430Y-112734947D01*
X123865571Y-112910951D01*
X123672504Y-113128807D01*
X123525648Y-113380142D01*
X123433524Y-113643110D01*
X123554845Y-113873000D01*
X124873000Y-113873000D01*
X124873000Y-113853000D01*
X125127000Y-113853000D01*
X125127000Y-113873000D01*
X125147000Y-113873000D01*
X125147000Y-114127000D01*
X125127000Y-114127000D01*
X125127000Y-115326165D01*
X125359267Y-115466320D01*
X125640830Y-115392442D01*
X125902570Y-115265053D01*
X126134429Y-115089049D01*
X126327496Y-114871193D01*
X126474352Y-114619858D01*
X126566476Y-114356890D01*
X126445156Y-114127002D01*
X126528158Y-114127002D01*
X127253603Y-114852447D01*
X127277931Y-114882091D01*
X127307575Y-114906419D01*
X127307576Y-114906420D01*
X127396244Y-114979188D01*
X127463736Y-115015263D01*
X127531227Y-115051338D01*
X127677692Y-115095768D01*
X127791845Y-115107011D01*
X127791847Y-115107011D01*
X127830011Y-115110770D01*
X127868174Y-115107011D01*
X196231826Y-115107011D01*
X196269989Y-115110770D01*
X196308152Y-115107011D01*
X196308155Y-115107011D01*
X196422308Y-115095768D01*
X196568773Y-115051338D01*
X196703755Y-114979188D01*
X196822069Y-114882091D01*
X196846402Y-114852441D01*
X201702970Y-109995874D01*
X201859453Y-110027000D01*
X202140547Y-110027000D01*
X202416241Y-109972162D01*
X202675938Y-109864591D01*
X202909660Y-109708424D01*
X203108424Y-109509660D01*
X203264591Y-109275938D01*
X203372162Y-109016241D01*
X203427000Y-108740547D01*
X203427000Y-108459453D01*
X203372162Y-108183759D01*
X203264591Y-107924062D01*
X203108424Y-107690340D01*
X202909660Y-107491576D01*
X202697775Y-107350000D01*
X202909660Y-107208424D01*
X203108424Y-107009660D01*
X203264591Y-106775938D01*
X203372162Y-106516241D01*
X203427000Y-106240547D01*
X203427000Y-105959453D01*
X203425969Y-105954270D01*
X204373000Y-105196645D01*
X204373000Y-117447394D01*
X202447394Y-119373000D01*
X107552606Y-119373000D01*
X105627000Y-117447394D01*
X105627000Y-85439026D01*
X110045042Y-85439026D01*
X110090778Y-85589814D01*
X110217316Y-85854944D01*
X110393146Y-86090293D01*
X110611512Y-86286817D01*
X110717770Y-86350000D01*
X110611512Y-86413183D01*
X110393146Y-86609707D01*
X110217316Y-86845056D01*
X110090778Y-87110186D01*
X110045042Y-87260974D01*
X110166183Y-87493000D01*
X111373000Y-87493000D01*
X111373000Y-85207000D01*
X111627000Y-85207000D01*
X111627000Y-87493000D01*
X113913000Y-87493000D01*
X113913000Y-85207000D01*
X114167000Y-85207000D01*
X114167000Y-87493000D01*
X115373817Y-87493000D01*
X115494958Y-87260974D01*
X115449222Y-87110186D01*
X115322684Y-86845056D01*
X115146854Y-86609707D01*
X114928488Y-86413183D01*
X114822230Y-86350000D01*
X114928488Y-86286817D01*
X115146854Y-86090293D01*
X115322684Y-85854944D01*
X115449222Y-85589814D01*
X115494958Y-85439026D01*
X115373817Y-85207000D01*
X114167000Y-85207000D01*
X113913000Y-85207000D01*
X111627000Y-85207000D01*
X111373000Y-85207000D01*
X110166183Y-85207000D01*
X110045042Y-85439026D01*
X105627000Y-85439026D01*
X105627000Y-82899026D01*
X110045042Y-82899026D01*
X110090778Y-83049814D01*
X110217316Y-83314944D01*
X110393146Y-83550293D01*
X110611512Y-83746817D01*
X110717770Y-83810000D01*
X110611512Y-83873183D01*
X110393146Y-84069707D01*
X110217316Y-84305056D01*
X110090778Y-84570186D01*
X110045042Y-84720974D01*
X110166183Y-84953000D01*
X111373000Y-84953000D01*
X111373000Y-82667000D01*
X111627000Y-82667000D01*
X111627000Y-84953000D01*
X113913000Y-84953000D01*
X113913000Y-82667000D01*
X111627000Y-82667000D01*
X111373000Y-82667000D01*
X110166183Y-82667000D01*
X110045042Y-82899026D01*
X105627000Y-82899026D01*
X105627000Y-55749250D01*
X120471214Y-55749250D01*
X120471214Y-62053250D01*
X140328785Y-62053250D01*
X140328785Y-55749250D01*
X120471214Y-55749250D01*
X105627000Y-55749250D01*
X105627000Y-52552606D01*
X107552606Y-50627000D01*
X202447394Y-50627000D01*
X204373000Y-52552606D01*
G37*
%TD.AperFunction*%
%TD*%
M02*
