%TF.GenerationSoftware,KiCad,Pcbnew,(5.1.7)-1*%
%TF.CreationDate,2020-11-22T12:34:15-07:00*%
%TF.ProjectId,cem3340_board_mount,63656d33-3334-4305-9f62-6f6172645f6d,rev?*%
%TF.SameCoordinates,Original*%
%TF.FileFunction,Legend,Top*%
%TF.FilePolarity,Positive*%
%FSLAX46Y46*%
G04 Gerber Fmt 4.6, Leading zero omitted, Abs format (unit mm)*
G04 Created by KiCad (PCBNEW (5.1.7)-1) date 2020-11-22 12:34:15*
%MOMM*%
%LPD*%
G01*
G04 APERTURE LIST*
%ADD10C,0.120000*%
%ADD11C,0.100000*%
%ADD12C,0.150000*%
G04 APERTURE END LIST*
D10*
%TO.C,J1*%
X127460000Y-106440000D02*
X121490000Y-106440000D01*
X121490000Y-106440000D02*
X121490000Y-116560000D01*
X121490000Y-116560000D02*
X127460000Y-116560000D01*
X127460000Y-116560000D02*
X127460000Y-106440000D01*
X127450000Y-109750000D02*
X126700000Y-109750000D01*
X126700000Y-109750000D02*
X126700000Y-113250000D01*
X126700000Y-113250000D02*
X127450000Y-113250000D01*
X127450000Y-113250000D02*
X127450000Y-109750000D01*
X127450000Y-106450000D02*
X126700000Y-106450000D01*
X126700000Y-106450000D02*
X126700000Y-108250000D01*
X126700000Y-108250000D02*
X127450000Y-108250000D01*
X127450000Y-108250000D02*
X127450000Y-106450000D01*
X127450000Y-114750000D02*
X126700000Y-114750000D01*
X126700000Y-114750000D02*
X126700000Y-116550000D01*
X126700000Y-116550000D02*
X127450000Y-116550000D01*
X127450000Y-116550000D02*
X127450000Y-114750000D01*
X125200000Y-106450000D02*
X125200000Y-107200000D01*
X125200000Y-107200000D02*
X122250000Y-107200000D01*
X122250000Y-107200000D02*
X122250000Y-111500000D01*
X125200000Y-116550000D02*
X125200000Y-115800000D01*
X125200000Y-115800000D02*
X122250000Y-115800000D01*
X122250000Y-115800000D02*
X122250000Y-111500000D01*
X127750000Y-107400000D02*
X127750000Y-106150000D01*
X127750000Y-106150000D02*
X126500000Y-106150000D01*
%TO.C,R7*%
X153650000Y-92290000D02*
X156390000Y-92290000D01*
X156390000Y-92290000D02*
X156390000Y-85750000D01*
X156390000Y-85750000D02*
X153650000Y-85750000D01*
X153650000Y-85750000D02*
X153650000Y-92290000D01*
X155020000Y-93060000D02*
X155020000Y-92290000D01*
X155020000Y-84980000D02*
X155020000Y-85750000D01*
%TO.C,R11*%
X151310000Y-85750000D02*
X148570000Y-85750000D01*
X148570000Y-85750000D02*
X148570000Y-92290000D01*
X148570000Y-92290000D02*
X151310000Y-92290000D01*
X151310000Y-92290000D02*
X151310000Y-85750000D01*
X149940000Y-84980000D02*
X149940000Y-85750000D01*
X149940000Y-93060000D02*
X149940000Y-92290000D01*
%TO.C,R13*%
X170260000Y-75280000D02*
X170260000Y-74510000D01*
X170260000Y-67200000D02*
X170260000Y-67970000D01*
X171630000Y-74510000D02*
X171630000Y-67970000D01*
X168890000Y-74510000D02*
X171630000Y-74510000D01*
X168890000Y-67970000D02*
X168890000Y-74510000D01*
X171630000Y-67970000D02*
X168890000Y-67970000D01*
%TO.C,C1*%
X197970000Y-98870000D02*
X193030000Y-98870000D01*
X197970000Y-96130000D02*
X193030000Y-96130000D01*
X197970000Y-98870000D02*
X197970000Y-98555000D01*
X197970000Y-96445000D02*
X197970000Y-96130000D01*
X193030000Y-98870000D02*
X193030000Y-98555000D01*
X193030000Y-96445000D02*
X193030000Y-96130000D01*
%TO.C,R15*%
X145900000Y-78860000D02*
X146670000Y-78860000D01*
X153980000Y-78860000D02*
X153210000Y-78860000D01*
X146670000Y-80230000D02*
X153210000Y-80230000D01*
X146670000Y-77490000D02*
X146670000Y-80230000D01*
X153210000Y-77490000D02*
X146670000Y-77490000D01*
X153210000Y-80230000D02*
X153210000Y-77490000D01*
%TO.C,R16*%
X188270000Y-78860000D02*
X187500000Y-78860000D01*
X180190000Y-78860000D02*
X180960000Y-78860000D01*
X187500000Y-77490000D02*
X180960000Y-77490000D01*
X187500000Y-80230000D02*
X187500000Y-77490000D01*
X180960000Y-80230000D02*
X187500000Y-80230000D01*
X180960000Y-77490000D02*
X180960000Y-80230000D01*
%TO.C,R5*%
X177780000Y-92290000D02*
X180520000Y-92290000D01*
X180520000Y-92290000D02*
X180520000Y-85750000D01*
X180520000Y-85750000D02*
X177780000Y-85750000D01*
X177780000Y-85750000D02*
X177780000Y-92290000D01*
X179150000Y-93060000D02*
X179150000Y-92290000D01*
X179150000Y-84980000D02*
X179150000Y-85750000D01*
%TO.C,J2*%
X201830000Y-71950000D02*
X201830000Y-70700000D01*
X200580000Y-71950000D02*
X201830000Y-71950000D01*
X189680000Y-66450000D02*
X195230000Y-66450000D01*
X189680000Y-69400000D02*
X189680000Y-66450000D01*
X188930000Y-69400000D02*
X189680000Y-69400000D01*
X200780000Y-66450000D02*
X195230000Y-66450000D01*
X200780000Y-69400000D02*
X200780000Y-66450000D01*
X201530000Y-69400000D02*
X200780000Y-69400000D01*
X188930000Y-71650000D02*
X190730000Y-71650000D01*
X188930000Y-70900000D02*
X188930000Y-71650000D01*
X190730000Y-70900000D02*
X188930000Y-70900000D01*
X190730000Y-71650000D02*
X190730000Y-70900000D01*
X199730000Y-71650000D02*
X201530000Y-71650000D01*
X199730000Y-70900000D02*
X199730000Y-71650000D01*
X201530000Y-70900000D02*
X199730000Y-70900000D01*
X201530000Y-71650000D02*
X201530000Y-70900000D01*
X192230000Y-71650000D02*
X198230000Y-71650000D01*
X192230000Y-70900000D02*
X192230000Y-71650000D01*
X198230000Y-70900000D02*
X192230000Y-70900000D01*
X198230000Y-71650000D02*
X198230000Y-70900000D01*
X188920000Y-71660000D02*
X201540000Y-71660000D01*
X188920000Y-65690000D02*
X188920000Y-71660000D01*
X201540000Y-65690000D02*
X188920000Y-65690000D01*
X201540000Y-71660000D02*
X201540000Y-65690000D01*
%TO.C,U1*%
X184170000Y-91290000D02*
X184170000Y-92540000D01*
X184170000Y-92540000D02*
X202070000Y-92540000D01*
X202070000Y-92540000D02*
X202070000Y-88040000D01*
X202070000Y-88040000D02*
X184170000Y-88040000D01*
X184170000Y-88040000D02*
X184170000Y-89290000D01*
X184110000Y-95540000D02*
X202130000Y-95540000D01*
X202130000Y-95540000D02*
X202130000Y-85040000D01*
X202130000Y-85040000D02*
X184110000Y-85040000D01*
X184110000Y-85040000D02*
X184110000Y-95540000D01*
X184170000Y-89290000D02*
G75*
G02*
X184170000Y-91290000I0J-1000000D01*
G01*
%TO.C,U2*%
X151150000Y-103990000D02*
X151150000Y-105240000D01*
X151150000Y-105240000D02*
X171590000Y-105240000D01*
X171590000Y-105240000D02*
X171590000Y-100740000D01*
X171590000Y-100740000D02*
X151150000Y-100740000D01*
X151150000Y-100740000D02*
X151150000Y-101990000D01*
X151090000Y-108240000D02*
X171650000Y-108240000D01*
X171650000Y-108240000D02*
X171650000Y-97740000D01*
X171650000Y-97740000D02*
X151090000Y-97740000D01*
X151090000Y-97740000D02*
X151090000Y-108240000D01*
X151150000Y-101990000D02*
G75*
G02*
X151150000Y-103990000I0J-1000000D01*
G01*
%TO.C,R14*%
X181370000Y-103310000D02*
X178630000Y-103310000D01*
X178630000Y-103310000D02*
X178630000Y-109850000D01*
X178630000Y-109850000D02*
X181370000Y-109850000D01*
X181370000Y-109850000D02*
X181370000Y-103310000D01*
X180000000Y-102540000D02*
X180000000Y-103310000D01*
X180000000Y-110620000D02*
X180000000Y-109850000D01*
%TO.C,R12*%
X133970000Y-97810000D02*
X133970000Y-100550000D01*
X133970000Y-100550000D02*
X140510000Y-100550000D01*
X140510000Y-100550000D02*
X140510000Y-97810000D01*
X140510000Y-97810000D02*
X133970000Y-97810000D01*
X133200000Y-99180000D02*
X133970000Y-99180000D01*
X141280000Y-99180000D02*
X140510000Y-99180000D01*
%TO.C,R10*%
X160100000Y-67200000D02*
X160100000Y-67970000D01*
X160100000Y-75280000D02*
X160100000Y-74510000D01*
X158730000Y-67970000D02*
X158730000Y-74510000D01*
X161470000Y-67970000D02*
X158730000Y-67970000D01*
X161470000Y-74510000D02*
X161470000Y-67970000D01*
X158730000Y-74510000D02*
X161470000Y-74510000D01*
%TO.C,R9*%
X157020000Y-113250000D02*
X157020000Y-110510000D01*
X157020000Y-110510000D02*
X150480000Y-110510000D01*
X150480000Y-110510000D02*
X150480000Y-113250000D01*
X150480000Y-113250000D02*
X157020000Y-113250000D01*
X157790000Y-111880000D02*
X157020000Y-111880000D01*
X149710000Y-111880000D02*
X150480000Y-111880000D01*
%TO.C,R8*%
X139050000Y-101620000D02*
X139050000Y-104360000D01*
X139050000Y-104360000D02*
X145590000Y-104360000D01*
X145590000Y-104360000D02*
X145590000Y-101620000D01*
X145590000Y-101620000D02*
X139050000Y-101620000D01*
X138280000Y-102990000D02*
X139050000Y-102990000D01*
X146360000Y-102990000D02*
X145590000Y-102990000D01*
%TO.C,R6*%
X176710000Y-76810000D02*
X173970000Y-76810000D01*
X173970000Y-76810000D02*
X173970000Y-83350000D01*
X173970000Y-83350000D02*
X176710000Y-83350000D01*
X176710000Y-83350000D02*
X176710000Y-76810000D01*
X175340000Y-76040000D02*
X175340000Y-76810000D01*
X175340000Y-84120000D02*
X175340000Y-83350000D01*
%TO.C,R4*%
X161910000Y-59710000D02*
X161910000Y-62450000D01*
X161910000Y-62450000D02*
X168450000Y-62450000D01*
X168450000Y-62450000D02*
X168450000Y-59710000D01*
X168450000Y-59710000D02*
X161910000Y-59710000D01*
X161140000Y-61080000D02*
X161910000Y-61080000D01*
X169220000Y-61080000D02*
X168450000Y-61080000D01*
%TO.C,R3*%
X143490000Y-92290000D02*
X146230000Y-92290000D01*
X146230000Y-92290000D02*
X146230000Y-85750000D01*
X146230000Y-85750000D02*
X143490000Y-85750000D01*
X143490000Y-85750000D02*
X143490000Y-92290000D01*
X144860000Y-93060000D02*
X144860000Y-92290000D01*
X144860000Y-84980000D02*
X144860000Y-85750000D01*
%TO.C,R2*%
X177150000Y-59710000D02*
X177150000Y-62450000D01*
X177150000Y-62450000D02*
X183690000Y-62450000D01*
X183690000Y-62450000D02*
X183690000Y-59710000D01*
X183690000Y-59710000D02*
X177150000Y-59710000D01*
X176380000Y-61080000D02*
X177150000Y-61080000D01*
X184460000Y-61080000D02*
X183690000Y-61080000D01*
%TO.C,R1*%
X177150000Y-64790000D02*
X177150000Y-67530000D01*
X177150000Y-67530000D02*
X183690000Y-67530000D01*
X183690000Y-67530000D02*
X183690000Y-64790000D01*
X183690000Y-64790000D02*
X177150000Y-64790000D01*
X176380000Y-66160000D02*
X177150000Y-66160000D01*
X184460000Y-66160000D02*
X183690000Y-66160000D01*
%TO.C,J3*%
X107845000Y-74400000D02*
X110385000Y-74400000D01*
X107845000Y-74400000D02*
X107845000Y-76940000D01*
X108095000Y-74650000D02*
X117445000Y-74650000D01*
X108095000Y-95510000D02*
X108095000Y-74650000D01*
X117445000Y-95510000D02*
X108095000Y-95510000D01*
X117445000Y-74650000D02*
X117445000Y-95510000D01*
D11*
X108345000Y-95260000D02*
X108895000Y-94700000D01*
X108345000Y-74900000D02*
X108895000Y-75440000D01*
X117195000Y-95260000D02*
X116645000Y-94700000D01*
X117195000Y-74900000D02*
X116645000Y-75440000D01*
X116645000Y-94700000D02*
X108895000Y-94700000D01*
X117195000Y-95260000D02*
X108345000Y-95260000D01*
X116645000Y-75440000D02*
X108895000Y-75440000D01*
X117195000Y-74900000D02*
X108345000Y-74900000D01*
X108895000Y-87330000D02*
X108345000Y-87330000D01*
X108895000Y-82830000D02*
X108345000Y-82830000D01*
X108895000Y-87330000D02*
X108895000Y-94700000D01*
X108895000Y-75440000D02*
X108895000Y-82830000D01*
X108345000Y-74900000D02*
X108345000Y-95260000D01*
X116645000Y-75440000D02*
X116645000Y-94700000D01*
X117195000Y-74900000D02*
X117195000Y-95260000D01*
D10*
%TO.C,C6*%
X160210000Y-93045000D02*
X160210000Y-92730000D01*
X160210000Y-95470000D02*
X160210000Y-95155000D01*
X165150000Y-93045000D02*
X165150000Y-92730000D01*
X165150000Y-95470000D02*
X165150000Y-95155000D01*
X165150000Y-92730000D02*
X160210000Y-92730000D01*
X165150000Y-95470000D02*
X160210000Y-95470000D01*
%TO.C,C5*%
X115370000Y-70500000D02*
G75*
G03*
X115370000Y-70500000I-2620000J0D01*
G01*
X112750000Y-73080000D02*
X112750000Y-67920000D01*
X112710000Y-73080000D02*
X112710000Y-67920000D01*
X112670000Y-73079000D02*
X112670000Y-67921000D01*
X112630000Y-73078000D02*
X112630000Y-67922000D01*
X112590000Y-73076000D02*
X112590000Y-67924000D01*
X112550000Y-73073000D02*
X112550000Y-67927000D01*
X112510000Y-73069000D02*
X112510000Y-71540000D01*
X112510000Y-69460000D02*
X112510000Y-67931000D01*
X112470000Y-73065000D02*
X112470000Y-71540000D01*
X112470000Y-69460000D02*
X112470000Y-67935000D01*
X112430000Y-73061000D02*
X112430000Y-71540000D01*
X112430000Y-69460000D02*
X112430000Y-67939000D01*
X112390000Y-73056000D02*
X112390000Y-71540000D01*
X112390000Y-69460000D02*
X112390000Y-67944000D01*
X112350000Y-73050000D02*
X112350000Y-71540000D01*
X112350000Y-69460000D02*
X112350000Y-67950000D01*
X112310000Y-73043000D02*
X112310000Y-71540000D01*
X112310000Y-69460000D02*
X112310000Y-67957000D01*
X112270000Y-73036000D02*
X112270000Y-71540000D01*
X112270000Y-69460000D02*
X112270000Y-67964000D01*
X112230000Y-73028000D02*
X112230000Y-71540000D01*
X112230000Y-69460000D02*
X112230000Y-67972000D01*
X112190000Y-73020000D02*
X112190000Y-71540000D01*
X112190000Y-69460000D02*
X112190000Y-67980000D01*
X112150000Y-73011000D02*
X112150000Y-71540000D01*
X112150000Y-69460000D02*
X112150000Y-67989000D01*
X112110000Y-73001000D02*
X112110000Y-71540000D01*
X112110000Y-69460000D02*
X112110000Y-67999000D01*
X112070000Y-72991000D02*
X112070000Y-71540000D01*
X112070000Y-69460000D02*
X112070000Y-68009000D01*
X112029000Y-72980000D02*
X112029000Y-71540000D01*
X112029000Y-69460000D02*
X112029000Y-68020000D01*
X111989000Y-72968000D02*
X111989000Y-71540000D01*
X111989000Y-69460000D02*
X111989000Y-68032000D01*
X111949000Y-72955000D02*
X111949000Y-71540000D01*
X111949000Y-69460000D02*
X111949000Y-68045000D01*
X111909000Y-72942000D02*
X111909000Y-71540000D01*
X111909000Y-69460000D02*
X111909000Y-68058000D01*
X111869000Y-72928000D02*
X111869000Y-71540000D01*
X111869000Y-69460000D02*
X111869000Y-68072000D01*
X111829000Y-72914000D02*
X111829000Y-71540000D01*
X111829000Y-69460000D02*
X111829000Y-68086000D01*
X111789000Y-72898000D02*
X111789000Y-71540000D01*
X111789000Y-69460000D02*
X111789000Y-68102000D01*
X111749000Y-72882000D02*
X111749000Y-71540000D01*
X111749000Y-69460000D02*
X111749000Y-68118000D01*
X111709000Y-72865000D02*
X111709000Y-71540000D01*
X111709000Y-69460000D02*
X111709000Y-68135000D01*
X111669000Y-72848000D02*
X111669000Y-71540000D01*
X111669000Y-69460000D02*
X111669000Y-68152000D01*
X111629000Y-72829000D02*
X111629000Y-71540000D01*
X111629000Y-69460000D02*
X111629000Y-68171000D01*
X111589000Y-72810000D02*
X111589000Y-71540000D01*
X111589000Y-69460000D02*
X111589000Y-68190000D01*
X111549000Y-72790000D02*
X111549000Y-71540000D01*
X111549000Y-69460000D02*
X111549000Y-68210000D01*
X111509000Y-72768000D02*
X111509000Y-71540000D01*
X111509000Y-69460000D02*
X111509000Y-68232000D01*
X111469000Y-72747000D02*
X111469000Y-71540000D01*
X111469000Y-69460000D02*
X111469000Y-68253000D01*
X111429000Y-72724000D02*
X111429000Y-71540000D01*
X111429000Y-69460000D02*
X111429000Y-68276000D01*
X111389000Y-72700000D02*
X111389000Y-71540000D01*
X111389000Y-69460000D02*
X111389000Y-68300000D01*
X111349000Y-72675000D02*
X111349000Y-71540000D01*
X111349000Y-69460000D02*
X111349000Y-68325000D01*
X111309000Y-72649000D02*
X111309000Y-71540000D01*
X111309000Y-69460000D02*
X111309000Y-68351000D01*
X111269000Y-72622000D02*
X111269000Y-71540000D01*
X111269000Y-69460000D02*
X111269000Y-68378000D01*
X111229000Y-72595000D02*
X111229000Y-71540000D01*
X111229000Y-69460000D02*
X111229000Y-68405000D01*
X111189000Y-72565000D02*
X111189000Y-71540000D01*
X111189000Y-69460000D02*
X111189000Y-68435000D01*
X111149000Y-72535000D02*
X111149000Y-71540000D01*
X111149000Y-69460000D02*
X111149000Y-68465000D01*
X111109000Y-72504000D02*
X111109000Y-71540000D01*
X111109000Y-69460000D02*
X111109000Y-68496000D01*
X111069000Y-72471000D02*
X111069000Y-71540000D01*
X111069000Y-69460000D02*
X111069000Y-68529000D01*
X111029000Y-72437000D02*
X111029000Y-71540000D01*
X111029000Y-69460000D02*
X111029000Y-68563000D01*
X110989000Y-72401000D02*
X110989000Y-71540000D01*
X110989000Y-69460000D02*
X110989000Y-68599000D01*
X110949000Y-72364000D02*
X110949000Y-71540000D01*
X110949000Y-69460000D02*
X110949000Y-68636000D01*
X110909000Y-72326000D02*
X110909000Y-71540000D01*
X110909000Y-69460000D02*
X110909000Y-68674000D01*
X110869000Y-72285000D02*
X110869000Y-71540000D01*
X110869000Y-69460000D02*
X110869000Y-68715000D01*
X110829000Y-72243000D02*
X110829000Y-71540000D01*
X110829000Y-69460000D02*
X110829000Y-68757000D01*
X110789000Y-72199000D02*
X110789000Y-71540000D01*
X110789000Y-69460000D02*
X110789000Y-68801000D01*
X110749000Y-72153000D02*
X110749000Y-71540000D01*
X110749000Y-69460000D02*
X110749000Y-68847000D01*
X110709000Y-72105000D02*
X110709000Y-71540000D01*
X110709000Y-69460000D02*
X110709000Y-68895000D01*
X110669000Y-72054000D02*
X110669000Y-71540000D01*
X110669000Y-69460000D02*
X110669000Y-68946000D01*
X110629000Y-72000000D02*
X110629000Y-71540000D01*
X110629000Y-69460000D02*
X110629000Y-69000000D01*
X110589000Y-71943000D02*
X110589000Y-71540000D01*
X110589000Y-69460000D02*
X110589000Y-69057000D01*
X110549000Y-71883000D02*
X110549000Y-71540000D01*
X110549000Y-69460000D02*
X110549000Y-69117000D01*
X110509000Y-71819000D02*
X110509000Y-71540000D01*
X110509000Y-69460000D02*
X110509000Y-69181000D01*
X110469000Y-71751000D02*
X110469000Y-71540000D01*
X110469000Y-69460000D02*
X110469000Y-69249000D01*
X110429000Y-71678000D02*
X110429000Y-69322000D01*
X110389000Y-71598000D02*
X110389000Y-69402000D01*
X110349000Y-71511000D02*
X110349000Y-69489000D01*
X110309000Y-71415000D02*
X110309000Y-69585000D01*
X110269000Y-71305000D02*
X110269000Y-69695000D01*
X110229000Y-71177000D02*
X110229000Y-69823000D01*
X110189000Y-71018000D02*
X110189000Y-69982000D01*
X110149000Y-70784000D02*
X110149000Y-70216000D01*
X115554775Y-71975000D02*
X115054775Y-71975000D01*
X115304775Y-72225000D02*
X115304775Y-71725000D01*
%TO.C,C4*%
X115370000Y-100500000D02*
G75*
G03*
X115370000Y-100500000I-2620000J0D01*
G01*
X112750000Y-97920000D02*
X112750000Y-103080000D01*
X112790000Y-97920000D02*
X112790000Y-103080000D01*
X112830000Y-97921000D02*
X112830000Y-103079000D01*
X112870000Y-97922000D02*
X112870000Y-103078000D01*
X112910000Y-97924000D02*
X112910000Y-103076000D01*
X112950000Y-97927000D02*
X112950000Y-103073000D01*
X112990000Y-97931000D02*
X112990000Y-99460000D01*
X112990000Y-101540000D02*
X112990000Y-103069000D01*
X113030000Y-97935000D02*
X113030000Y-99460000D01*
X113030000Y-101540000D02*
X113030000Y-103065000D01*
X113070000Y-97939000D02*
X113070000Y-99460000D01*
X113070000Y-101540000D02*
X113070000Y-103061000D01*
X113110000Y-97944000D02*
X113110000Y-99460000D01*
X113110000Y-101540000D02*
X113110000Y-103056000D01*
X113150000Y-97950000D02*
X113150000Y-99460000D01*
X113150000Y-101540000D02*
X113150000Y-103050000D01*
X113190000Y-97957000D02*
X113190000Y-99460000D01*
X113190000Y-101540000D02*
X113190000Y-103043000D01*
X113230000Y-97964000D02*
X113230000Y-99460000D01*
X113230000Y-101540000D02*
X113230000Y-103036000D01*
X113270000Y-97972000D02*
X113270000Y-99460000D01*
X113270000Y-101540000D02*
X113270000Y-103028000D01*
X113310000Y-97980000D02*
X113310000Y-99460000D01*
X113310000Y-101540000D02*
X113310000Y-103020000D01*
X113350000Y-97989000D02*
X113350000Y-99460000D01*
X113350000Y-101540000D02*
X113350000Y-103011000D01*
X113390000Y-97999000D02*
X113390000Y-99460000D01*
X113390000Y-101540000D02*
X113390000Y-103001000D01*
X113430000Y-98009000D02*
X113430000Y-99460000D01*
X113430000Y-101540000D02*
X113430000Y-102991000D01*
X113471000Y-98020000D02*
X113471000Y-99460000D01*
X113471000Y-101540000D02*
X113471000Y-102980000D01*
X113511000Y-98032000D02*
X113511000Y-99460000D01*
X113511000Y-101540000D02*
X113511000Y-102968000D01*
X113551000Y-98045000D02*
X113551000Y-99460000D01*
X113551000Y-101540000D02*
X113551000Y-102955000D01*
X113591000Y-98058000D02*
X113591000Y-99460000D01*
X113591000Y-101540000D02*
X113591000Y-102942000D01*
X113631000Y-98072000D02*
X113631000Y-99460000D01*
X113631000Y-101540000D02*
X113631000Y-102928000D01*
X113671000Y-98086000D02*
X113671000Y-99460000D01*
X113671000Y-101540000D02*
X113671000Y-102914000D01*
X113711000Y-98102000D02*
X113711000Y-99460000D01*
X113711000Y-101540000D02*
X113711000Y-102898000D01*
X113751000Y-98118000D02*
X113751000Y-99460000D01*
X113751000Y-101540000D02*
X113751000Y-102882000D01*
X113791000Y-98135000D02*
X113791000Y-99460000D01*
X113791000Y-101540000D02*
X113791000Y-102865000D01*
X113831000Y-98152000D02*
X113831000Y-99460000D01*
X113831000Y-101540000D02*
X113831000Y-102848000D01*
X113871000Y-98171000D02*
X113871000Y-99460000D01*
X113871000Y-101540000D02*
X113871000Y-102829000D01*
X113911000Y-98190000D02*
X113911000Y-99460000D01*
X113911000Y-101540000D02*
X113911000Y-102810000D01*
X113951000Y-98210000D02*
X113951000Y-99460000D01*
X113951000Y-101540000D02*
X113951000Y-102790000D01*
X113991000Y-98232000D02*
X113991000Y-99460000D01*
X113991000Y-101540000D02*
X113991000Y-102768000D01*
X114031000Y-98253000D02*
X114031000Y-99460000D01*
X114031000Y-101540000D02*
X114031000Y-102747000D01*
X114071000Y-98276000D02*
X114071000Y-99460000D01*
X114071000Y-101540000D02*
X114071000Y-102724000D01*
X114111000Y-98300000D02*
X114111000Y-99460000D01*
X114111000Y-101540000D02*
X114111000Y-102700000D01*
X114151000Y-98325000D02*
X114151000Y-99460000D01*
X114151000Y-101540000D02*
X114151000Y-102675000D01*
X114191000Y-98351000D02*
X114191000Y-99460000D01*
X114191000Y-101540000D02*
X114191000Y-102649000D01*
X114231000Y-98378000D02*
X114231000Y-99460000D01*
X114231000Y-101540000D02*
X114231000Y-102622000D01*
X114271000Y-98405000D02*
X114271000Y-99460000D01*
X114271000Y-101540000D02*
X114271000Y-102595000D01*
X114311000Y-98435000D02*
X114311000Y-99460000D01*
X114311000Y-101540000D02*
X114311000Y-102565000D01*
X114351000Y-98465000D02*
X114351000Y-99460000D01*
X114351000Y-101540000D02*
X114351000Y-102535000D01*
X114391000Y-98496000D02*
X114391000Y-99460000D01*
X114391000Y-101540000D02*
X114391000Y-102504000D01*
X114431000Y-98529000D02*
X114431000Y-99460000D01*
X114431000Y-101540000D02*
X114431000Y-102471000D01*
X114471000Y-98563000D02*
X114471000Y-99460000D01*
X114471000Y-101540000D02*
X114471000Y-102437000D01*
X114511000Y-98599000D02*
X114511000Y-99460000D01*
X114511000Y-101540000D02*
X114511000Y-102401000D01*
X114551000Y-98636000D02*
X114551000Y-99460000D01*
X114551000Y-101540000D02*
X114551000Y-102364000D01*
X114591000Y-98674000D02*
X114591000Y-99460000D01*
X114591000Y-101540000D02*
X114591000Y-102326000D01*
X114631000Y-98715000D02*
X114631000Y-99460000D01*
X114631000Y-101540000D02*
X114631000Y-102285000D01*
X114671000Y-98757000D02*
X114671000Y-99460000D01*
X114671000Y-101540000D02*
X114671000Y-102243000D01*
X114711000Y-98801000D02*
X114711000Y-99460000D01*
X114711000Y-101540000D02*
X114711000Y-102199000D01*
X114751000Y-98847000D02*
X114751000Y-99460000D01*
X114751000Y-101540000D02*
X114751000Y-102153000D01*
X114791000Y-98895000D02*
X114791000Y-99460000D01*
X114791000Y-101540000D02*
X114791000Y-102105000D01*
X114831000Y-98946000D02*
X114831000Y-99460000D01*
X114831000Y-101540000D02*
X114831000Y-102054000D01*
X114871000Y-99000000D02*
X114871000Y-99460000D01*
X114871000Y-101540000D02*
X114871000Y-102000000D01*
X114911000Y-99057000D02*
X114911000Y-99460000D01*
X114911000Y-101540000D02*
X114911000Y-101943000D01*
X114951000Y-99117000D02*
X114951000Y-99460000D01*
X114951000Y-101540000D02*
X114951000Y-101883000D01*
X114991000Y-99181000D02*
X114991000Y-99460000D01*
X114991000Y-101540000D02*
X114991000Y-101819000D01*
X115031000Y-99249000D02*
X115031000Y-99460000D01*
X115031000Y-101540000D02*
X115031000Y-101751000D01*
X115071000Y-99322000D02*
X115071000Y-101678000D01*
X115111000Y-99402000D02*
X115111000Y-101598000D01*
X115151000Y-99489000D02*
X115151000Y-101511000D01*
X115191000Y-99585000D02*
X115191000Y-101415000D01*
X115231000Y-99695000D02*
X115231000Y-101305000D01*
X115271000Y-99823000D02*
X115271000Y-101177000D01*
X115311000Y-99982000D02*
X115311000Y-101018000D01*
X115351000Y-100216000D02*
X115351000Y-100784000D01*
X109945225Y-99025000D02*
X110445225Y-99025000D01*
X110195225Y-98775000D02*
X110195225Y-99275000D01*
%TO.C,C3*%
X151240000Y-59710000D02*
X156180000Y-59710000D01*
X151240000Y-62450000D02*
X156180000Y-62450000D01*
X151240000Y-59710000D02*
X151240000Y-60025000D01*
X151240000Y-62135000D02*
X151240000Y-62450000D01*
X156180000Y-59710000D02*
X156180000Y-60025000D01*
X156180000Y-62135000D02*
X156180000Y-62450000D01*
%TO.C,C2*%
X188030000Y-81630000D02*
X192970000Y-81630000D01*
X188030000Y-84370000D02*
X192970000Y-84370000D01*
X188030000Y-81630000D02*
X188030000Y-81945000D01*
X188030000Y-84055000D02*
X188030000Y-84370000D01*
X192970000Y-81630000D02*
X192970000Y-81945000D01*
X192970000Y-84055000D02*
X192970000Y-84370000D01*
%TO.C,J1*%
D12*
X128002380Y-111833333D02*
X128716666Y-111833333D01*
X128859523Y-111880952D01*
X128954761Y-111976190D01*
X129002380Y-112119047D01*
X129002380Y-112214285D01*
X129002380Y-110833333D02*
X129002380Y-111404761D01*
X129002380Y-111119047D02*
X128002380Y-111119047D01*
X128145238Y-111214285D01*
X128240476Y-111309523D01*
X128288095Y-111404761D01*
%TO.C,R7*%
X153102380Y-89186666D02*
X152626190Y-89520000D01*
X153102380Y-89758095D02*
X152102380Y-89758095D01*
X152102380Y-89377142D01*
X152150000Y-89281904D01*
X152197619Y-89234285D01*
X152292857Y-89186666D01*
X152435714Y-89186666D01*
X152530952Y-89234285D01*
X152578571Y-89281904D01*
X152626190Y-89377142D01*
X152626190Y-89758095D01*
X152102380Y-88853333D02*
X152102380Y-88186666D01*
X153102380Y-88615238D01*
%TO.C,R11*%
X147852380Y-89662857D02*
X147376190Y-89996190D01*
X147852380Y-90234285D02*
X146852380Y-90234285D01*
X146852380Y-89853333D01*
X146900000Y-89758095D01*
X146947619Y-89710476D01*
X147042857Y-89662857D01*
X147185714Y-89662857D01*
X147280952Y-89710476D01*
X147328571Y-89758095D01*
X147376190Y-89853333D01*
X147376190Y-90234285D01*
X147852380Y-88710476D02*
X147852380Y-89281904D01*
X147852380Y-88996190D02*
X146852380Y-88996190D01*
X146995238Y-89091428D01*
X147090476Y-89186666D01*
X147138095Y-89281904D01*
X147852380Y-87758095D02*
X147852380Y-88329523D01*
X147852380Y-88043809D02*
X146852380Y-88043809D01*
X146995238Y-88139047D01*
X147090476Y-88234285D01*
X147138095Y-88329523D01*
%TO.C,R13*%
X173082380Y-71882857D02*
X172606190Y-72216190D01*
X173082380Y-72454285D02*
X172082380Y-72454285D01*
X172082380Y-72073333D01*
X172130000Y-71978095D01*
X172177619Y-71930476D01*
X172272857Y-71882857D01*
X172415714Y-71882857D01*
X172510952Y-71930476D01*
X172558571Y-71978095D01*
X172606190Y-72073333D01*
X172606190Y-72454285D01*
X173082380Y-70930476D02*
X173082380Y-71501904D01*
X173082380Y-71216190D02*
X172082380Y-71216190D01*
X172225238Y-71311428D01*
X172320476Y-71406666D01*
X172368095Y-71501904D01*
X172082380Y-70597142D02*
X172082380Y-69978095D01*
X172463333Y-70311428D01*
X172463333Y-70168571D01*
X172510952Y-70073333D01*
X172558571Y-70025714D01*
X172653809Y-69978095D01*
X172891904Y-69978095D01*
X172987142Y-70025714D01*
X173034761Y-70073333D01*
X173082380Y-70168571D01*
X173082380Y-70454285D01*
X173034761Y-70549523D01*
X172987142Y-70597142D01*
%TO.C,C1*%
X190413333Y-98267142D02*
X190365714Y-98314761D01*
X190222857Y-98362380D01*
X190127619Y-98362380D01*
X189984761Y-98314761D01*
X189889523Y-98219523D01*
X189841904Y-98124285D01*
X189794285Y-97933809D01*
X189794285Y-97790952D01*
X189841904Y-97600476D01*
X189889523Y-97505238D01*
X189984761Y-97410000D01*
X190127619Y-97362380D01*
X190222857Y-97362380D01*
X190365714Y-97410000D01*
X190413333Y-97457619D01*
X191365714Y-98362380D02*
X190794285Y-98362380D01*
X191080000Y-98362380D02*
X191080000Y-97362380D01*
X190984761Y-97505238D01*
X190889523Y-97600476D01*
X190794285Y-97648095D01*
%TO.C,R15*%
X149297142Y-81682380D02*
X148963809Y-81206190D01*
X148725714Y-81682380D02*
X148725714Y-80682380D01*
X149106666Y-80682380D01*
X149201904Y-80730000D01*
X149249523Y-80777619D01*
X149297142Y-80872857D01*
X149297142Y-81015714D01*
X149249523Y-81110952D01*
X149201904Y-81158571D01*
X149106666Y-81206190D01*
X148725714Y-81206190D01*
X150249523Y-81682380D02*
X149678095Y-81682380D01*
X149963809Y-81682380D02*
X149963809Y-80682380D01*
X149868571Y-80825238D01*
X149773333Y-80920476D01*
X149678095Y-80968095D01*
X151154285Y-80682380D02*
X150678095Y-80682380D01*
X150630476Y-81158571D01*
X150678095Y-81110952D01*
X150773333Y-81063333D01*
X151011428Y-81063333D01*
X151106666Y-81110952D01*
X151154285Y-81158571D01*
X151201904Y-81253809D01*
X151201904Y-81491904D01*
X151154285Y-81587142D01*
X151106666Y-81634761D01*
X151011428Y-81682380D01*
X150773333Y-81682380D01*
X150678095Y-81634761D01*
X150630476Y-81587142D01*
%TO.C,R16*%
X183587142Y-76942380D02*
X183253809Y-76466190D01*
X183015714Y-76942380D02*
X183015714Y-75942380D01*
X183396666Y-75942380D01*
X183491904Y-75990000D01*
X183539523Y-76037619D01*
X183587142Y-76132857D01*
X183587142Y-76275714D01*
X183539523Y-76370952D01*
X183491904Y-76418571D01*
X183396666Y-76466190D01*
X183015714Y-76466190D01*
X184539523Y-76942380D02*
X183968095Y-76942380D01*
X184253809Y-76942380D02*
X184253809Y-75942380D01*
X184158571Y-76085238D01*
X184063333Y-76180476D01*
X183968095Y-76228095D01*
X185396666Y-75942380D02*
X185206190Y-75942380D01*
X185110952Y-75990000D01*
X185063333Y-76037619D01*
X184968095Y-76180476D01*
X184920476Y-76370952D01*
X184920476Y-76751904D01*
X184968095Y-76847142D01*
X185015714Y-76894761D01*
X185110952Y-76942380D01*
X185301428Y-76942380D01*
X185396666Y-76894761D01*
X185444285Y-76847142D01*
X185491904Y-76751904D01*
X185491904Y-76513809D01*
X185444285Y-76418571D01*
X185396666Y-76370952D01*
X185301428Y-76323333D01*
X185110952Y-76323333D01*
X185015714Y-76370952D01*
X184968095Y-76418571D01*
X184920476Y-76513809D01*
%TO.C,R5*%
X177232380Y-89186666D02*
X176756190Y-89520000D01*
X177232380Y-89758095D02*
X176232380Y-89758095D01*
X176232380Y-89377142D01*
X176280000Y-89281904D01*
X176327619Y-89234285D01*
X176422857Y-89186666D01*
X176565714Y-89186666D01*
X176660952Y-89234285D01*
X176708571Y-89281904D01*
X176756190Y-89377142D01*
X176756190Y-89758095D01*
X176232380Y-88281904D02*
X176232380Y-88758095D01*
X176708571Y-88805714D01*
X176660952Y-88758095D01*
X176613333Y-88662857D01*
X176613333Y-88424761D01*
X176660952Y-88329523D01*
X176708571Y-88281904D01*
X176803809Y-88234285D01*
X177041904Y-88234285D01*
X177137142Y-88281904D01*
X177184761Y-88329523D01*
X177232380Y-88424761D01*
X177232380Y-88662857D01*
X177184761Y-88758095D01*
X177137142Y-88805714D01*
%TO.C,J2*%
X194896666Y-72202380D02*
X194896666Y-72916666D01*
X194849047Y-73059523D01*
X194753809Y-73154761D01*
X194610952Y-73202380D01*
X194515714Y-73202380D01*
X195325238Y-72297619D02*
X195372857Y-72250000D01*
X195468095Y-72202380D01*
X195706190Y-72202380D01*
X195801428Y-72250000D01*
X195849047Y-72297619D01*
X195896666Y-72392857D01*
X195896666Y-72488095D01*
X195849047Y-72630952D01*
X195277619Y-73202380D01*
X195896666Y-73202380D01*
%TO.C,U1*%
X182622380Y-91051904D02*
X183431904Y-91051904D01*
X183527142Y-91004285D01*
X183574761Y-90956666D01*
X183622380Y-90861428D01*
X183622380Y-90670952D01*
X183574761Y-90575714D01*
X183527142Y-90528095D01*
X183431904Y-90480476D01*
X182622380Y-90480476D01*
X183622380Y-89480476D02*
X183622380Y-90051904D01*
X183622380Y-89766190D02*
X182622380Y-89766190D01*
X182765238Y-89861428D01*
X182860476Y-89956666D01*
X182908095Y-90051904D01*
%TO.C,U2*%
X149602380Y-103751904D02*
X150411904Y-103751904D01*
X150507142Y-103704285D01*
X150554761Y-103656666D01*
X150602380Y-103561428D01*
X150602380Y-103370952D01*
X150554761Y-103275714D01*
X150507142Y-103228095D01*
X150411904Y-103180476D01*
X149602380Y-103180476D01*
X149697619Y-102751904D02*
X149650000Y-102704285D01*
X149602380Y-102609047D01*
X149602380Y-102370952D01*
X149650000Y-102275714D01*
X149697619Y-102228095D01*
X149792857Y-102180476D01*
X149888095Y-102180476D01*
X150030952Y-102228095D01*
X150602380Y-102799523D01*
X150602380Y-102180476D01*
%TO.C,R14*%
X182822380Y-107222857D02*
X182346190Y-107556190D01*
X182822380Y-107794285D02*
X181822380Y-107794285D01*
X181822380Y-107413333D01*
X181870000Y-107318095D01*
X181917619Y-107270476D01*
X182012857Y-107222857D01*
X182155714Y-107222857D01*
X182250952Y-107270476D01*
X182298571Y-107318095D01*
X182346190Y-107413333D01*
X182346190Y-107794285D01*
X182822380Y-106270476D02*
X182822380Y-106841904D01*
X182822380Y-106556190D02*
X181822380Y-106556190D01*
X181965238Y-106651428D01*
X182060476Y-106746666D01*
X182108095Y-106841904D01*
X182155714Y-105413333D02*
X182822380Y-105413333D01*
X181774761Y-105651428D02*
X182489047Y-105889523D01*
X182489047Y-105270476D01*
%TO.C,R12*%
X136597142Y-97262380D02*
X136263809Y-96786190D01*
X136025714Y-97262380D02*
X136025714Y-96262380D01*
X136406666Y-96262380D01*
X136501904Y-96310000D01*
X136549523Y-96357619D01*
X136597142Y-96452857D01*
X136597142Y-96595714D01*
X136549523Y-96690952D01*
X136501904Y-96738571D01*
X136406666Y-96786190D01*
X136025714Y-96786190D01*
X137549523Y-97262380D02*
X136978095Y-97262380D01*
X137263809Y-97262380D02*
X137263809Y-96262380D01*
X137168571Y-96405238D01*
X137073333Y-96500476D01*
X136978095Y-96548095D01*
X137930476Y-96357619D02*
X137978095Y-96310000D01*
X138073333Y-96262380D01*
X138311428Y-96262380D01*
X138406666Y-96310000D01*
X138454285Y-96357619D01*
X138501904Y-96452857D01*
X138501904Y-96548095D01*
X138454285Y-96690952D01*
X137882857Y-97262380D01*
X138501904Y-97262380D01*
%TO.C,R10*%
X158182380Y-71882857D02*
X157706190Y-72216190D01*
X158182380Y-72454285D02*
X157182380Y-72454285D01*
X157182380Y-72073333D01*
X157230000Y-71978095D01*
X157277619Y-71930476D01*
X157372857Y-71882857D01*
X157515714Y-71882857D01*
X157610952Y-71930476D01*
X157658571Y-71978095D01*
X157706190Y-72073333D01*
X157706190Y-72454285D01*
X158182380Y-70930476D02*
X158182380Y-71501904D01*
X158182380Y-71216190D02*
X157182380Y-71216190D01*
X157325238Y-71311428D01*
X157420476Y-71406666D01*
X157468095Y-71501904D01*
X157182380Y-70311428D02*
X157182380Y-70216190D01*
X157230000Y-70120952D01*
X157277619Y-70073333D01*
X157372857Y-70025714D01*
X157563333Y-69978095D01*
X157801428Y-69978095D01*
X157991904Y-70025714D01*
X158087142Y-70073333D01*
X158134761Y-70120952D01*
X158182380Y-70216190D01*
X158182380Y-70311428D01*
X158134761Y-70406666D01*
X158087142Y-70454285D01*
X157991904Y-70501904D01*
X157801428Y-70549523D01*
X157563333Y-70549523D01*
X157372857Y-70501904D01*
X157277619Y-70454285D01*
X157230000Y-70406666D01*
X157182380Y-70311428D01*
%TO.C,R9*%
X153583333Y-114702380D02*
X153250000Y-114226190D01*
X153011904Y-114702380D02*
X153011904Y-113702380D01*
X153392857Y-113702380D01*
X153488095Y-113750000D01*
X153535714Y-113797619D01*
X153583333Y-113892857D01*
X153583333Y-114035714D01*
X153535714Y-114130952D01*
X153488095Y-114178571D01*
X153392857Y-114226190D01*
X153011904Y-114226190D01*
X154059523Y-114702380D02*
X154250000Y-114702380D01*
X154345238Y-114654761D01*
X154392857Y-114607142D01*
X154488095Y-114464285D01*
X154535714Y-114273809D01*
X154535714Y-113892857D01*
X154488095Y-113797619D01*
X154440476Y-113750000D01*
X154345238Y-113702380D01*
X154154761Y-113702380D01*
X154059523Y-113750000D01*
X154011904Y-113797619D01*
X153964285Y-113892857D01*
X153964285Y-114130952D01*
X154011904Y-114226190D01*
X154059523Y-114273809D01*
X154154761Y-114321428D01*
X154345238Y-114321428D01*
X154440476Y-114273809D01*
X154488095Y-114226190D01*
X154535714Y-114130952D01*
%TO.C,R8*%
X142153333Y-105982380D02*
X141820000Y-105506190D01*
X141581904Y-105982380D02*
X141581904Y-104982380D01*
X141962857Y-104982380D01*
X142058095Y-105030000D01*
X142105714Y-105077619D01*
X142153333Y-105172857D01*
X142153333Y-105315714D01*
X142105714Y-105410952D01*
X142058095Y-105458571D01*
X141962857Y-105506190D01*
X141581904Y-105506190D01*
X142724761Y-105410952D02*
X142629523Y-105363333D01*
X142581904Y-105315714D01*
X142534285Y-105220476D01*
X142534285Y-105172857D01*
X142581904Y-105077619D01*
X142629523Y-105030000D01*
X142724761Y-104982380D01*
X142915238Y-104982380D01*
X143010476Y-105030000D01*
X143058095Y-105077619D01*
X143105714Y-105172857D01*
X143105714Y-105220476D01*
X143058095Y-105315714D01*
X143010476Y-105363333D01*
X142915238Y-105410952D01*
X142724761Y-105410952D01*
X142629523Y-105458571D01*
X142581904Y-105506190D01*
X142534285Y-105601428D01*
X142534285Y-105791904D01*
X142581904Y-105887142D01*
X142629523Y-105934761D01*
X142724761Y-105982380D01*
X142915238Y-105982380D01*
X143010476Y-105934761D01*
X143058095Y-105887142D01*
X143105714Y-105791904D01*
X143105714Y-105601428D01*
X143058095Y-105506190D01*
X143010476Y-105458571D01*
X142915238Y-105410952D01*
%TO.C,R6*%
X178162380Y-80246666D02*
X177686190Y-80580000D01*
X178162380Y-80818095D02*
X177162380Y-80818095D01*
X177162380Y-80437142D01*
X177210000Y-80341904D01*
X177257619Y-80294285D01*
X177352857Y-80246666D01*
X177495714Y-80246666D01*
X177590952Y-80294285D01*
X177638571Y-80341904D01*
X177686190Y-80437142D01*
X177686190Y-80818095D01*
X177162380Y-79389523D02*
X177162380Y-79580000D01*
X177210000Y-79675238D01*
X177257619Y-79722857D01*
X177400476Y-79818095D01*
X177590952Y-79865714D01*
X177971904Y-79865714D01*
X178067142Y-79818095D01*
X178114761Y-79770476D01*
X178162380Y-79675238D01*
X178162380Y-79484761D01*
X178114761Y-79389523D01*
X178067142Y-79341904D01*
X177971904Y-79294285D01*
X177733809Y-79294285D01*
X177638571Y-79341904D01*
X177590952Y-79389523D01*
X177543333Y-79484761D01*
X177543333Y-79675238D01*
X177590952Y-79770476D01*
X177638571Y-79818095D01*
X177733809Y-79865714D01*
%TO.C,R4*%
X165013333Y-59162380D02*
X164680000Y-58686190D01*
X164441904Y-59162380D02*
X164441904Y-58162380D01*
X164822857Y-58162380D01*
X164918095Y-58210000D01*
X164965714Y-58257619D01*
X165013333Y-58352857D01*
X165013333Y-58495714D01*
X164965714Y-58590952D01*
X164918095Y-58638571D01*
X164822857Y-58686190D01*
X164441904Y-58686190D01*
X165870476Y-58495714D02*
X165870476Y-59162380D01*
X165632380Y-58114761D02*
X165394285Y-58829047D01*
X166013333Y-58829047D01*
%TO.C,R3*%
X142942380Y-89186666D02*
X142466190Y-89520000D01*
X142942380Y-89758095D02*
X141942380Y-89758095D01*
X141942380Y-89377142D01*
X141990000Y-89281904D01*
X142037619Y-89234285D01*
X142132857Y-89186666D01*
X142275714Y-89186666D01*
X142370952Y-89234285D01*
X142418571Y-89281904D01*
X142466190Y-89377142D01*
X142466190Y-89758095D01*
X141942380Y-88853333D02*
X141942380Y-88234285D01*
X142323333Y-88567619D01*
X142323333Y-88424761D01*
X142370952Y-88329523D01*
X142418571Y-88281904D01*
X142513809Y-88234285D01*
X142751904Y-88234285D01*
X142847142Y-88281904D01*
X142894761Y-88329523D01*
X142942380Y-88424761D01*
X142942380Y-88710476D01*
X142894761Y-88805714D01*
X142847142Y-88853333D01*
%TO.C,R2*%
X180253333Y-59162380D02*
X179920000Y-58686190D01*
X179681904Y-59162380D02*
X179681904Y-58162380D01*
X180062857Y-58162380D01*
X180158095Y-58210000D01*
X180205714Y-58257619D01*
X180253333Y-58352857D01*
X180253333Y-58495714D01*
X180205714Y-58590952D01*
X180158095Y-58638571D01*
X180062857Y-58686190D01*
X179681904Y-58686190D01*
X180634285Y-58257619D02*
X180681904Y-58210000D01*
X180777142Y-58162380D01*
X181015238Y-58162380D01*
X181110476Y-58210000D01*
X181158095Y-58257619D01*
X181205714Y-58352857D01*
X181205714Y-58448095D01*
X181158095Y-58590952D01*
X180586666Y-59162380D01*
X181205714Y-59162380D01*
%TO.C,R1*%
X180253333Y-64242380D02*
X179920000Y-63766190D01*
X179681904Y-64242380D02*
X179681904Y-63242380D01*
X180062857Y-63242380D01*
X180158095Y-63290000D01*
X180205714Y-63337619D01*
X180253333Y-63432857D01*
X180253333Y-63575714D01*
X180205714Y-63670952D01*
X180158095Y-63718571D01*
X180062857Y-63766190D01*
X179681904Y-63766190D01*
X181205714Y-64242380D02*
X180634285Y-64242380D01*
X180920000Y-64242380D02*
X180920000Y-63242380D01*
X180824761Y-63385238D01*
X180729523Y-63480476D01*
X180634285Y-63528095D01*
%TO.C,J3*%
X112436666Y-72848380D02*
X112436666Y-73562666D01*
X112389047Y-73705523D01*
X112293809Y-73800761D01*
X112150952Y-73848380D01*
X112055714Y-73848380D01*
X112817619Y-72848380D02*
X113436666Y-72848380D01*
X113103333Y-73229333D01*
X113246190Y-73229333D01*
X113341428Y-73276952D01*
X113389047Y-73324571D01*
X113436666Y-73419809D01*
X113436666Y-73657904D01*
X113389047Y-73753142D01*
X113341428Y-73800761D01*
X113246190Y-73848380D01*
X112960476Y-73848380D01*
X112865238Y-73800761D01*
X112817619Y-73753142D01*
%TO.C,C6*%
X162513333Y-96957142D02*
X162465714Y-97004761D01*
X162322857Y-97052380D01*
X162227619Y-97052380D01*
X162084761Y-97004761D01*
X161989523Y-96909523D01*
X161941904Y-96814285D01*
X161894285Y-96623809D01*
X161894285Y-96480952D01*
X161941904Y-96290476D01*
X161989523Y-96195238D01*
X162084761Y-96100000D01*
X162227619Y-96052380D01*
X162322857Y-96052380D01*
X162465714Y-96100000D01*
X162513333Y-96147619D01*
X163370476Y-96052380D02*
X163180000Y-96052380D01*
X163084761Y-96100000D01*
X163037142Y-96147619D01*
X162941904Y-96290476D01*
X162894285Y-96480952D01*
X162894285Y-96861904D01*
X162941904Y-96957142D01*
X162989523Y-97004761D01*
X163084761Y-97052380D01*
X163275238Y-97052380D01*
X163370476Y-97004761D01*
X163418095Y-96957142D01*
X163465714Y-96861904D01*
X163465714Y-96623809D01*
X163418095Y-96528571D01*
X163370476Y-96480952D01*
X163275238Y-96433333D01*
X163084761Y-96433333D01*
X162989523Y-96480952D01*
X162941904Y-96528571D01*
X162894285Y-96623809D01*
%TO.C,C5*%
X112583333Y-67047142D02*
X112535714Y-67094761D01*
X112392857Y-67142380D01*
X112297619Y-67142380D01*
X112154761Y-67094761D01*
X112059523Y-66999523D01*
X112011904Y-66904285D01*
X111964285Y-66713809D01*
X111964285Y-66570952D01*
X112011904Y-66380476D01*
X112059523Y-66285238D01*
X112154761Y-66190000D01*
X112297619Y-66142380D01*
X112392857Y-66142380D01*
X112535714Y-66190000D01*
X112583333Y-66237619D01*
X113488095Y-66142380D02*
X113011904Y-66142380D01*
X112964285Y-66618571D01*
X113011904Y-66570952D01*
X113107142Y-66523333D01*
X113345238Y-66523333D01*
X113440476Y-66570952D01*
X113488095Y-66618571D01*
X113535714Y-66713809D01*
X113535714Y-66951904D01*
X113488095Y-67047142D01*
X113440476Y-67094761D01*
X113345238Y-67142380D01*
X113107142Y-67142380D01*
X113011904Y-67094761D01*
X112964285Y-67047142D01*
%TO.C,C4*%
X112583333Y-97107142D02*
X112535714Y-97154761D01*
X112392857Y-97202380D01*
X112297619Y-97202380D01*
X112154761Y-97154761D01*
X112059523Y-97059523D01*
X112011904Y-96964285D01*
X111964285Y-96773809D01*
X111964285Y-96630952D01*
X112011904Y-96440476D01*
X112059523Y-96345238D01*
X112154761Y-96250000D01*
X112297619Y-96202380D01*
X112392857Y-96202380D01*
X112535714Y-96250000D01*
X112583333Y-96297619D01*
X113440476Y-96535714D02*
X113440476Y-97202380D01*
X113202380Y-96154761D02*
X112964285Y-96869047D01*
X113583333Y-96869047D01*
%TO.C,C3*%
X153543333Y-58937142D02*
X153495714Y-58984761D01*
X153352857Y-59032380D01*
X153257619Y-59032380D01*
X153114761Y-58984761D01*
X153019523Y-58889523D01*
X152971904Y-58794285D01*
X152924285Y-58603809D01*
X152924285Y-58460952D01*
X152971904Y-58270476D01*
X153019523Y-58175238D01*
X153114761Y-58080000D01*
X153257619Y-58032380D01*
X153352857Y-58032380D01*
X153495714Y-58080000D01*
X153543333Y-58127619D01*
X153876666Y-58032380D02*
X154495714Y-58032380D01*
X154162380Y-58413333D01*
X154305238Y-58413333D01*
X154400476Y-58460952D01*
X154448095Y-58508571D01*
X154495714Y-58603809D01*
X154495714Y-58841904D01*
X154448095Y-58937142D01*
X154400476Y-58984761D01*
X154305238Y-59032380D01*
X154019523Y-59032380D01*
X153924285Y-58984761D01*
X153876666Y-58937142D01*
%TO.C,C2*%
X190333333Y-85897142D02*
X190285714Y-85944761D01*
X190142857Y-85992380D01*
X190047619Y-85992380D01*
X189904761Y-85944761D01*
X189809523Y-85849523D01*
X189761904Y-85754285D01*
X189714285Y-85563809D01*
X189714285Y-85420952D01*
X189761904Y-85230476D01*
X189809523Y-85135238D01*
X189904761Y-85040000D01*
X190047619Y-84992380D01*
X190142857Y-84992380D01*
X190285714Y-85040000D01*
X190333333Y-85087619D01*
X190714285Y-85087619D02*
X190761904Y-85040000D01*
X190857142Y-84992380D01*
X191095238Y-84992380D01*
X191190476Y-85040000D01*
X191238095Y-85087619D01*
X191285714Y-85182857D01*
X191285714Y-85278095D01*
X191238095Y-85420952D01*
X190666666Y-85992380D01*
X191285714Y-85992380D01*
%TD*%
M02*
