M48
; DRILL file {KiCad (5.1.7)-1} date 11/22/20 12:34:17
; FORMAT={-:-/ absolute / inch / decimal}
; #@! TF.CreationDate,2020-11-22T12:34:17-07:00
; #@! TF.GenerationSoftware,Kicad,Pcbnew,(5.1.7)-1
; #@! TF.FileFunction,Plated,1,2,PTH
FMAT,2
INCH
T1C0.0315
T2C0.0374
T3C0.0394
T4C0.0400
%
G90
G05
T1
X5.5339Y-3.2244
X5.5339Y-3.5244
X7.2031Y-2.8547
X7.2031Y-3.7047
X7.3228Y-3.8386
X7.3228Y-4.626
X7.4606Y-2.4606
X7.4803Y-2.9331
X6.3063Y-3.7047
X6.5031Y-3.7047
X7.0866Y-3.9961
X7.0866Y-4.3961
X7.0531Y-3.3047
X7.0531Y-3.7047
X7.3031Y-3.4047
X7.3031Y-3.7047
X7.4031Y-3.4047
X7.4031Y-3.7047
X7.5031Y-3.4047
X7.5031Y-3.7047
X7.6031Y-3.4047
X7.6031Y-3.7047
X7.7031Y-3.4047
X7.7031Y-3.7047
X7.8031Y-3.4047
X7.8031Y-3.7047
X7.9031Y-3.4047
X7.9031Y-3.7047
X6.9031Y-2.4047
X7.3031Y-2.4047
X6.7031Y-2.6047
X6.7031Y-3.0047
X7.0531Y-3.1047
X7.4531Y-3.1047
X5.4031Y-4.3047
X5.5031Y-4.3047
X5.6031Y-4.3047
X6.3031Y-2.6047
X6.3031Y-3.0047
X6.1031Y-3.3047
X6.1031Y-3.7047
X5.7031Y-3.1047
X6.1031Y-3.1047
X5.2031Y-3.9047
X5.6031Y-3.9047
X6.0031Y-3.9047
X6.0031Y-4.2047
X6.1031Y-3.9047
X6.1031Y-4.2047
X6.2031Y-3.9047
X6.2031Y-4.2047
X6.3031Y-3.9047
X6.3031Y-4.2047
X6.4031Y-3.9047
X6.4031Y-4.2047
X6.5031Y-3.9047
X6.5031Y-4.2047
X6.6031Y-3.9047
X6.6031Y-4.2047
X6.7031Y-3.9047
X6.7031Y-4.2047
X5.7031Y-3.3047
X5.7031Y-3.7047
X7.5984Y-3.8386
X7.7953Y-3.8386
X7.4016Y-3.2677
X7.5984Y-3.2677
X5.9531Y-2.4047
X6.15Y-2.4047
X6.9031Y-2.6047
X7.3031Y-2.6047
X6.3031Y-2.4047
X6.7031Y-2.4047
X5.9031Y-3.3047
X5.9031Y-3.7047
X4.3898Y-2.7756
X4.4882Y-2.7756
X6.9031Y-2.9528
X6.9031Y-3.3528
X4.3898Y-3.9567
X4.4882Y-3.9567
X5.4031Y-4.0547
X5.8031Y-4.0547
X5.8531Y-4.4047
X6.2531Y-4.4047
T2
X4.9213Y-4.2913
X4.9213Y-4.3898
X4.9213Y-4.4882
X7.5386Y-2.7244
X7.637Y-2.7244
X7.7354Y-2.7244
X7.8339Y-2.7244
T3
X6.7717Y-3.252
X6.7717Y-3.3504
X6.7717Y-3.4488
X7.9528Y-4.0787
X7.9528Y-4.1772
X7.9528Y-4.2756
X5.3937Y-3.252
X5.3937Y-3.3504
X5.3937Y-3.4488
T4
X4.3898Y-3.1496
X4.3898Y-3.2496
X4.3898Y-3.3496
X4.3898Y-3.4496
X4.3898Y-3.5496
X4.4898Y-3.1496
X4.4898Y-3.2496
X4.4898Y-3.3496
X4.4898Y-3.4496
X4.4898Y-3.5496
T0
M30
