%TF.GenerationSoftware,KiCad,Pcbnew,(5.1.7)-1*%
%TF.CreationDate,2020-11-22T12:34:15-07:00*%
%TF.ProjectId,cem3340_board_mount,63656d33-3334-4305-9f62-6f6172645f6d,rev?*%
%TF.SameCoordinates,Original*%
%TF.FileFunction,Soldermask,Bot*%
%TF.FilePolarity,Negative*%
%FSLAX46Y46*%
G04 Gerber Fmt 4.6, Leading zero omitted, Abs format (unit mm)*
G04 Created by KiCad (PCBNEW (5.1.7)-1) date 2020-11-22 12:34:15*
%MOMM*%
%LPD*%
G01*
G04 APERTURE LIST*
%ADD10O,1.950000X1.700000*%
%ADD11C,4.000000*%
%ADD12C,1.800000*%
%ADD13O,1.600000X1.600000*%
%ADD14C,1.600000*%
%ADD15O,1.700000X1.950000*%
%ADD16O,1.600000X2.400000*%
%ADD17R,1.600000X2.400000*%
%ADD18O,1.727200X1.727200*%
%ADD19R,1.727200X1.727200*%
%ADD20C,1.440000*%
%ADD21R,1.600000X1.600000*%
G04 APERTURE END LIST*
D10*
%TO.C,J1*%
X125000000Y-114000000D03*
X125000000Y-111500000D03*
G36*
G01*
X124275000Y-108150000D02*
X125725000Y-108150000D01*
G75*
G02*
X125975000Y-108400000I0J-250000D01*
G01*
X125975000Y-109600000D01*
G75*
G02*
X125725000Y-109850000I-250000J0D01*
G01*
X124275000Y-109850000D01*
G75*
G02*
X124025000Y-109600000I0J250000D01*
G01*
X124025000Y-108400000D01*
G75*
G02*
X124275000Y-108150000I250000J0D01*
G01*
G37*
%TD*%
D11*
%TO.C,PWM_CV1*%
X195000000Y-110500000D03*
X195000000Y-101700000D03*
D12*
X202000000Y-108600000D03*
X202000000Y-106100000D03*
X202000000Y-103600000D03*
%TD*%
D13*
%TO.C,R7*%
X155020000Y-83940000D03*
D14*
X155020000Y-94100000D03*
%TD*%
D13*
%TO.C,R11*%
X149940000Y-94100000D03*
D14*
X149940000Y-83940000D03*
%TD*%
D13*
%TO.C,R13*%
X170260000Y-76320000D03*
D14*
X170260000Y-66160000D03*
%TD*%
%TO.C,C1*%
X193000000Y-97500000D03*
X198000000Y-97500000D03*
%TD*%
D11*
%TO.C,Coarse_Tune1*%
X130000000Y-89500000D03*
X130000000Y-80700000D03*
D12*
X137000000Y-87600000D03*
X137000000Y-85100000D03*
X137000000Y-82600000D03*
%TD*%
D11*
%TO.C,Pulse_Width1*%
X165000000Y-89500000D03*
X165000000Y-80700000D03*
D12*
X172000000Y-87600000D03*
X172000000Y-85100000D03*
X172000000Y-82600000D03*
%TD*%
D13*
%TO.C,R15*%
X144860000Y-78860000D03*
D14*
X155020000Y-78860000D03*
%TD*%
D13*
%TO.C,R16*%
X189310000Y-78860000D03*
D14*
X179150000Y-78860000D03*
%TD*%
D13*
%TO.C,R5*%
X179150000Y-83940000D03*
D14*
X179150000Y-94100000D03*
%TD*%
%TO.C,J2*%
G36*
G01*
X199830000Y-68475000D02*
X199830000Y-69925000D01*
G75*
G02*
X199580000Y-70175000I-250000J0D01*
G01*
X198380000Y-70175000D01*
G75*
G02*
X198130000Y-69925000I0J250000D01*
G01*
X198130000Y-68475000D01*
G75*
G02*
X198380000Y-68225000I250000J0D01*
G01*
X199580000Y-68225000D01*
G75*
G02*
X199830000Y-68475000I0J-250000D01*
G01*
G37*
D15*
X196480000Y-69200000D03*
X193980000Y-69200000D03*
X191480000Y-69200000D03*
%TD*%
D16*
%TO.C,U1*%
X185500000Y-86480000D03*
X200740000Y-94100000D03*
X188040000Y-86480000D03*
X198200000Y-94100000D03*
X190580000Y-86480000D03*
X195660000Y-94100000D03*
X193120000Y-86480000D03*
X193120000Y-94100000D03*
X195660000Y-86480000D03*
X190580000Y-94100000D03*
X198200000Y-86480000D03*
X188040000Y-94100000D03*
X200740000Y-86480000D03*
D17*
X185500000Y-94100000D03*
%TD*%
D16*
%TO.C,U2*%
X152480000Y-99180000D03*
X170260000Y-106800000D03*
X155020000Y-99180000D03*
X167720000Y-106800000D03*
X157560000Y-99180000D03*
X165180000Y-106800000D03*
X160100000Y-99180000D03*
X162640000Y-106800000D03*
X162640000Y-99180000D03*
X160100000Y-106800000D03*
X165180000Y-99180000D03*
X157560000Y-106800000D03*
X167720000Y-99180000D03*
X155020000Y-106800000D03*
X170260000Y-99180000D03*
D17*
X152480000Y-106800000D03*
%TD*%
D13*
%TO.C,R14*%
X180000000Y-111660000D03*
D14*
X180000000Y-101500000D03*
%TD*%
D13*
%TO.C,R12*%
X142320000Y-99180000D03*
D14*
X132160000Y-99180000D03*
%TD*%
%TO.C,R10*%
X160100000Y-76320000D03*
D13*
X160100000Y-66160000D03*
%TD*%
%TO.C,R9*%
X148670000Y-111880000D03*
D14*
X158830000Y-111880000D03*
%TD*%
D13*
%TO.C,R8*%
X147400000Y-102990000D03*
D14*
X137240000Y-102990000D03*
%TD*%
D13*
%TO.C,R6*%
X175340000Y-85160000D03*
D14*
X175340000Y-75000000D03*
%TD*%
D13*
%TO.C,R4*%
X170260000Y-61080000D03*
D14*
X160100000Y-61080000D03*
%TD*%
D13*
%TO.C,R3*%
X144860000Y-83940000D03*
D14*
X144860000Y-94100000D03*
%TD*%
D13*
%TO.C,R2*%
X185500000Y-61080000D03*
D14*
X175340000Y-61080000D03*
%TD*%
D13*
%TO.C,R1*%
X185500000Y-66160000D03*
D14*
X175340000Y-66160000D03*
%TD*%
D18*
%TO.C,J3*%
X114040000Y-90160000D03*
X111500000Y-90160000D03*
X114040000Y-87620000D03*
X111500000Y-87620000D03*
X114040000Y-85080000D03*
X111500000Y-85080000D03*
X114040000Y-82540000D03*
X111500000Y-82540000D03*
X114040000Y-80000000D03*
D19*
X111500000Y-80000000D03*
%TD*%
D20*
%TO.C,CAL1*%
X142320000Y-109340000D03*
X139780000Y-109340000D03*
X137240000Y-109340000D03*
%TD*%
D14*
%TO.C,C6*%
X165180000Y-94100000D03*
X160180000Y-94100000D03*
%TD*%
%TO.C,C5*%
X111500000Y-70500000D03*
D21*
X114000000Y-70500000D03*
%TD*%
D14*
%TO.C,C4*%
X114000000Y-100500000D03*
D21*
X111500000Y-100500000D03*
%TD*%
D14*
%TO.C,C3*%
X156210000Y-61080000D03*
X151210000Y-61080000D03*
%TD*%
%TO.C,C2*%
X193000000Y-83000000D03*
X188000000Y-83000000D03*
%TD*%
M02*
