<?xml version="1.0" standalone="no"?>
 <!DOCTYPE svg PUBLIC "-//W3C//DTD SVG 1.1//EN" 
 "http://www.w3.org/Graphics/SVG/1.1/DTD/svg11.dtd"> 
<svg
  xmlns:svg="http://www.w3.org/2000/svg"
  xmlns="http://www.w3.org/2000/svg"
  xmlns:xlink="http://www.w3.org/1999/xlink"
  version="1.1"
  width="29.700220cm" height="21.000720cm" viewBox="0 0 116930 82680">
<title>SVG Picture created as 808_Kick-F_SilkS.svg date 2020/10/15 16:23:39 </title>
  <desc>Picture generated by PCBNEW </desc>
<g style="fill:#000000; fill-opacity:1;stroke:#000000; stroke-opacity:1;
stroke-linecap:round; stroke-linejoin:round;"
 transform="translate(0 0) scale(1 1)">
</g>
<g style="fill:#000000; fill-opacity:0.0; 
stroke:#000000; stroke-width:-0.000393701; stroke-opacity:1; 
stroke-linecap:round; stroke-linejoin:round;">
</g>
<g style="fill:#000000; fill-opacity:0.0; 
stroke:#000000; stroke-width:19.685; stroke-opacity:1; 
stroke-linecap:round; stroke-linejoin:round;">
<path d="M88430 23000
L49930 23000
" />
<path d="M88430 49500
L88430 23000
" />
<path d="M49930 49500
L88430 49500
" />
<path d="M49930 23000
L49930 49500
" />
</g>
<g style="fill:#000000; fill-opacity:0.0; 
stroke:#000000; stroke-width:47.2441; stroke-opacity:1; 
stroke-linecap:round; stroke-linejoin:round;">
<circle cx="52437.9" cy="31000" r="1031.5" /> 
<path d="M52437 29984
L52437 32015
" />
<path d="M52422 29984
L52422 32015
" />
<path d="M52406 29984
L52406 32015
" />
<path d="M52390 29985
L52390 32014
" />
<path d="M52374 29985
L52374 32014
" />
<path d="M52359 29987
L52359 32012
" />
<path d="M52343 29988
L52343 30590
" />
<path d="M52343 31409
L52343 32011
" />
<path d="M52327 29990
L52327 30590
" />
<path d="M52327 31409
L52327 32009
" />
<path d="M52311 29991
L52311 30590
" />
<path d="M52311 31409
L52311 32008
" />
<path d="M52296 29993
L52296 30590
" />
<path d="M52296 31409
L52296 32006
" />
<path d="M52280 29996
L52280 30590
" />
<path d="M52280 31409
L52280 32003
" />
<path d="M52264 29998
L52264 30590
" />
<path d="M52264 31409
L52264 32001
" />
<path d="M52248 30001
L52248 30590
" />
<path d="M52248 31409
L52248 31998
" />
<path d="M52233 30004
L52233 30590
" />
<path d="M52233 31409
L52233 31995
" />
<path d="M52217 30007
L52217 30590
" />
<path d="M52217 31409
L52217 31992
" />
<path d="M52201 30011
L52201 30590
" />
<path d="M52201 31409
L52201 31988
" />
<path d="M52185 30015
L52185 30590
" />
<path d="M52185 31409
L52185 31984
" />
<path d="M52170 30019
L52170 30590
" />
<path d="M52170 31409
L52170 31980
" />
<path d="M52154 30023
L52154 30590
" />
<path d="M52154 31409
L52154 31976
" />
<path d="M52138 30028
L52138 30590
" />
<path d="M52138 31409
L52138 31971
" />
<path d="M52122 30033
L52122 30590
" />
<path d="M52122 31409
L52122 31966
" />
<path d="M52106 30038
L52106 30590
" />
<path d="M52106 31409
L52106 31961
" />
<path d="M52091 30044
L52091 30590
" />
<path d="M52091 31409
L52091 31955
" />
<path d="M52075 30049
L52075 30590
" />
<path d="M52075 31409
L52075 31950
" />
<path d="M52059 30055
L52059 30590
" />
<path d="M52059 31409
L52059 31944
" />
<path d="M52043 30062
L52043 30590
" />
<path d="M52043 31409
L52043 31937
" />
<path d="M52028 30068
L52028 30590
" />
<path d="M52028 31409
L52028 31931
" />
<path d="M52012 30075
L52012 30590
" />
<path d="M52012 31409
L52012 31924
" />
<path d="M51996 30083
L51996 30590
" />
<path d="M51996 31409
L51996 31916
" />
<path d="M51980 30090
L51980 30590
" />
<path d="M51980 31409
L51980 31909
" />
<path d="M51965 30098
L51965 30590
" />
<path d="M51965 31409
L51965 31901
" />
<path d="M51949 30107
L51949 30590
" />
<path d="M51949 31409
L51949 31892
" />
<path d="M51933 30115
L51933 30590
" />
<path d="M51933 31409
L51933 31884
" />
<path d="M51917 30124
L51917 30590
" />
<path d="M51917 31409
L51917 31875
" />
<path d="M51902 30133
L51902 30590
" />
<path d="M51902 31409
L51902 31866
" />
<path d="M51886 30143
L51886 30590
" />
<path d="M51886 31409
L51886 31856
" />
<path d="M51870 30153
L51870 30590
" />
<path d="M51870 31409
L51870 31846
" />
<path d="M51854 30164
L51854 30590
" />
<path d="M51854 31409
L51854 31835
" />
<path d="M51839 30175
L51839 30590
" />
<path d="M51839 31409
L51839 31824
" />
<path d="M51823 30187
L51823 30590
" />
<path d="M51823 31409
L51823 31812
" />
<path d="M51807 30198
L51807 30590
" />
<path d="M51807 31409
L51807 31801
" />
<path d="M51791 30211
L51791 30590
" />
<path d="M51791 31409
L51791 31788
" />
<path d="M51776 30224
L51776 30590
" />
<path d="M51776 31409
L51776 31775
" />
<path d="M51760 30237
L51760 30590
" />
<path d="M51760 31409
L51760 31762
" />
<path d="M51744 30251
L51744 30590
" />
<path d="M51744 31409
L51744 31748
" />
<path d="M51728 30266
L51728 30590
" />
<path d="M51728 31409
L51728 31733
" />
<path d="M51713 30281
L51713 30590
" />
<path d="M51713 31409
L51713 31718
" />
<path d="M51697 30297
L51697 30590
" />
<path d="M51697 31409
L51697 31702
" />
<path d="M51681 30313
L51681 30590
" />
<path d="M51681 31409
L51681 31686
" />
<path d="M51665 30331
L51665 30590
" />
<path d="M51665 31409
L51665 31668
" />
<path d="M51650 30349
L51650 30590
" />
<path d="M51650 31409
L51650 31650
" />
<path d="M51634 30368
L51634 30590
" />
<path d="M51634 31409
L51634 31631
" />
<path d="M51618 30388
L51618 30590
" />
<path d="M51618 31409
L51618 31611
" />
<path d="M51602 30409
L51602 30590
" />
<path d="M51602 31409
L51602 31590
" />
<path d="M51587 30431
L51587 30590
" />
<path d="M51587 31409
L51587 31568
" />
<path d="M51571 30455
L51571 30590
" />
<path d="M51571 31409
L51571 31544
" />
<path d="M51555 30480
L51555 30590
" />
<path d="M51555 31409
L51555 31519
" />
<path d="M51539 30507
L51539 30590
" />
<path d="M51539 31409
L51539 31492
" />
<path d="M51524 30536
L51524 31463
" />
<path d="M51508 30567
L51508 31432
" />
<path d="M51492 30601
L51492 31398
" />
<path d="M51476 30639
L51476 31360
" />
<path d="M51461 30683
L51461 31316
" />
<path d="M51445 30733
L51445 31266
" />
<path d="M51429 30796
L51429 31203
" />
<path d="M51413 30888
L51413 31111
" />
<path d="M53542 30419
L53345 30419
" />
<path d="M53443 30320
L53443 30517
" />
<circle cx="52437.9" cy="43000" r="1031.5" /> 
<path d="M52437 41984
L52437 44015
" />
<path d="M52422 41984
L52422 44015
" />
<path d="M52406 41984
L52406 44015
" />
<path d="M52390 41985
L52390 44014
" />
<path d="M52374 41985
L52374 44014
" />
<path d="M52359 41987
L52359 44012
" />
<path d="M52343 41988
L52343 42590
" />
<path d="M52343 43409
L52343 44011
" />
<path d="M52327 41990
L52327 42590
" />
<path d="M52327 43409
L52327 44009
" />
<path d="M52311 41991
L52311 42590
" />
<path d="M52311 43409
L52311 44008
" />
<path d="M52296 41993
L52296 42590
" />
<path d="M52296 43409
L52296 44006
" />
<path d="M52280 41996
L52280 42590
" />
<path d="M52280 43409
L52280 44003
" />
<path d="M52264 41998
L52264 42590
" />
<path d="M52264 43409
L52264 44001
" />
<path d="M52248 42001
L52248 42590
" />
<path d="M52248 43409
L52248 43998
" />
<path d="M52233 42004
L52233 42590
" />
<path d="M52233 43409
L52233 43995
" />
<path d="M52217 42007
L52217 42590
" />
<path d="M52217 43409
L52217 43992
" />
<path d="M52201 42011
L52201 42590
" />
<path d="M52201 43409
L52201 43988
" />
<path d="M52185 42015
L52185 42590
" />
<path d="M52185 43409
L52185 43984
" />
<path d="M52170 42019
L52170 42590
" />
<path d="M52170 43409
L52170 43980
" />
<path d="M52154 42023
L52154 42590
" />
<path d="M52154 43409
L52154 43976
" />
<path d="M52138 42028
L52138 42590
" />
<path d="M52138 43409
L52138 43971
" />
<path d="M52122 42033
L52122 42590
" />
<path d="M52122 43409
L52122 43966
" />
<path d="M52106 42038
L52106 42590
" />
<path d="M52106 43409
L52106 43961
" />
<path d="M52091 42044
L52091 42590
" />
<path d="M52091 43409
L52091 43955
" />
<path d="M52075 42049
L52075 42590
" />
<path d="M52075 43409
L52075 43950
" />
<path d="M52059 42055
L52059 42590
" />
<path d="M52059 43409
L52059 43944
" />
<path d="M52043 42062
L52043 42590
" />
<path d="M52043 43409
L52043 43937
" />
<path d="M52028 42068
L52028 42590
" />
<path d="M52028 43409
L52028 43931
" />
<path d="M52012 42075
L52012 42590
" />
<path d="M52012 43409
L52012 43924
" />
<path d="M51996 42083
L51996 42590
" />
<path d="M51996 43409
L51996 43916
" />
<path d="M51980 42090
L51980 42590
" />
<path d="M51980 43409
L51980 43909
" />
<path d="M51965 42098
L51965 42590
" />
<path d="M51965 43409
L51965 43901
" />
<path d="M51949 42107
L51949 42590
" />
<path d="M51949 43409
L51949 43892
" />
<path d="M51933 42115
L51933 42590
" />
<path d="M51933 43409
L51933 43884
" />
<path d="M51917 42124
L51917 42590
" />
<path d="M51917 43409
L51917 43875
" />
<path d="M51902 42133
L51902 42590
" />
<path d="M51902 43409
L51902 43866
" />
<path d="M51886 42143
L51886 42590
" />
<path d="M51886 43409
L51886 43856
" />
<path d="M51870 42153
L51870 42590
" />
<path d="M51870 43409
L51870 43846
" />
<path d="M51854 42164
L51854 42590
" />
<path d="M51854 43409
L51854 43835
" />
<path d="M51839 42175
L51839 42590
" />
<path d="M51839 43409
L51839 43824
" />
<path d="M51823 42187
L51823 42590
" />
<path d="M51823 43409
L51823 43812
" />
<path d="M51807 42198
L51807 42590
" />
<path d="M51807 43409
L51807 43801
" />
<path d="M51791 42211
L51791 42590
" />
<path d="M51791 43409
L51791 43788
" />
<path d="M51776 42224
L51776 42590
" />
<path d="M51776 43409
L51776 43775
" />
<path d="M51760 42237
L51760 42590
" />
<path d="M51760 43409
L51760 43762
" />
<path d="M51744 42251
L51744 42590
" />
<path d="M51744 43409
L51744 43748
" />
<path d="M51728 42266
L51728 42590
" />
<path d="M51728 43409
L51728 43733
" />
<path d="M51713 42281
L51713 42590
" />
<path d="M51713 43409
L51713 43718
" />
<path d="M51697 42297
L51697 42590
" />
<path d="M51697 43409
L51697 43702
" />
<path d="M51681 42313
L51681 42590
" />
<path d="M51681 43409
L51681 43686
" />
<path d="M51665 42331
L51665 42590
" />
<path d="M51665 43409
L51665 43668
" />
<path d="M51650 42349
L51650 42590
" />
<path d="M51650 43409
L51650 43650
" />
<path d="M51634 42368
L51634 42590
" />
<path d="M51634 43409
L51634 43631
" />
<path d="M51618 42388
L51618 42590
" />
<path d="M51618 43409
L51618 43611
" />
<path d="M51602 42409
L51602 42590
" />
<path d="M51602 43409
L51602 43590
" />
<path d="M51587 42431
L51587 42590
" />
<path d="M51587 43409
L51587 43568
" />
<path d="M51571 42455
L51571 42590
" />
<path d="M51571 43409
L51571 43544
" />
<path d="M51555 42480
L51555 42590
" />
<path d="M51555 43409
L51555 43519
" />
<path d="M51539 42507
L51539 42590
" />
<path d="M51539 43409
L51539 43492
" />
<path d="M51524 42536
L51524 43463
" />
<path d="M51508 42567
L51508 43432
" />
<path d="M51492 42601
L51492 43398
" />
<path d="M51476 42639
L51476 43360
" />
<path d="M51461 42683
L51461 43316
" />
<path d="M51445 42733
L51445 43266
" />
<path d="M51429 42796
L51429 43203
" />
<path d="M51413 42888
L51413 43111
" />
<path d="M53542 42419
L53345 42419
" />
<path d="M53443 42320
L53443 42517
" />
<path d="M59941 38539
L61886 38539
" />
<path d="M59941 37460
L61886 37460
" />
<path d="M59941 38539
L59941 38415
" />
<path d="M59941 37584
L59941 37460
" />
<path d="M61886 38539
L61886 38415
" />
<path d="M61886 37584
L61886 37460
" />
<path d="M54270 41106
L54270 32893
" />
<path d="M54270 32893
L50589 32893
" />
<path d="M50589 32893
L50589 41106
" />
<path d="M50589 41106
L54270 41106
" />
<path d="M50491 41204
L50491 40204
" />
<path d="M50491 41204
L51491 41204
" />
<path d="M55437 24031
L55437 26381
" />
<path d="M55437 26381
L52437 26381
" />
<path d="M52437 26381
L52437 24031
" />
<path d="M52437 24031
L55437 24031
" />
<path d="M54134 24035
L54134 24330
" />
<path d="M54134 24330
L53741 24330
" />
<path d="M53741 24330
L53741 24035
" />
<path d="M53741 24035
L54134 24035
" />
<path d="M55433 24035
L55433 24330
" />
<path d="M55433 24330
L54725 24330
" />
<path d="M54725 24330
L54725 24035
" />
<path d="M54725 24035
L55433 24035
" />
<path d="M53150 24035
L53150 24330
" />
<path d="M53150 24330
L52441 24330
" />
<path d="M52441 24330
L52441 24035
" />
<path d="M52441 24035
L53150 24035
" />
<path d="M55433 24921
L55138 24921
" />
<path d="M55138 24921
L55138 26082
" />
<path d="M55138 26082
L53937 26082
" />
<path d="M52441 24921
L52737 24921
" />
<path d="M52737 24921
L52737 26082
" />
<path d="M52737 26082
L53937 26082
" />
<path d="M55059 23917
L55552 23917
" />
<path d="M55552 23917
L55552 24409
" />
<path d="M87422 24031
L87422 26381
" />
<path d="M87422 26381
L84422 26381
" />
<path d="M84422 26381
L84422 24031
" />
<path d="M84422 24031
L87422 24031
" />
<path d="M86118 24035
L86118 24330
" />
<path d="M86118 24330
L85725 24330
" />
<path d="M85725 24330
L85725 24035
" />
<path d="M85725 24035
L86118 24035
" />
<path d="M87418 24035
L87418 24330
" />
<path d="M87418 24330
L86709 24330
" />
<path d="M86709 24330
L86709 24035
" />
<path d="M86709 24035
L87418 24035
" />
<path d="M85134 24035
L85134 24330
" />
<path d="M85134 24330
L84426 24330
" />
<path d="M84426 24330
L84426 24035
" />
<path d="M84426 24035
L85134 24035
" />
<path d="M87418 24921
L87122 24921
" />
<path d="M87122 24921
L87122 26082
" />
<path d="M87122 26082
L85922 26082
" />
<path d="M84426 24921
L84721 24921
" />
<path d="M84721 24921
L84721 26082
" />
<path d="M84721 26082
L85922 26082
" />
<path d="M87044 23917
L87536 23917
" />
<path d="M87536 23917
L87536 24409
" />
<path d="M60536.3 38976.4 A393.701 393.701 0.0 0 0 61323.7 38976.4" />
<path d="M61323 38976
L61815 38976
" />
<path d="M61815 38976
L61815 46023
" />
<path d="M61815 46023
L60044 46023
" />
<path d="M60044 46023
L60044 38976
" />
<path d="M60044 38976
L60536 38976
" />
<path d="M62996 38952
L62996 46047
" />
<path d="M62996 46047
L58863 46047
" />
<path d="M58863 46047
L58863 38952
" />
<path d="M58863 38952
L62996 38952
" />
<path d="M75937 24031
L75937 26381
" />
<path d="M75937 26381
L71953 26381
" />
<path d="M71953 26381
L71953 24031
" />
<path d="M71953 24031
L75937 24031
" />
<path d="M74634 24035
L74634 24330
" />
<path d="M74634 24330
L73256 24330
" />
<path d="M73256 24330
L73256 24035
" />
<path d="M73256 24035
L74634 24035
" />
<path d="M75933 24035
L75933 24330
" />
<path d="M75933 24330
L75225 24330
" />
<path d="M75225 24330
L75225 24035
" />
<path d="M75225 24035
L75933 24035
" />
<path d="M72666 24035
L72666 24330
" />
<path d="M72666 24330
L71957 24330
" />
<path d="M71957 24330
L71957 24035
" />
<path d="M71957 24035
L72666 24035
" />
<path d="M75933 24921
L75638 24921
" />
<path d="M75638 24921
L75638 26082
" />
<path d="M75638 26082
L73945 26082
" />
<path d="M71957 24921
L72252 24921
" />
<path d="M72252 24921
L72252 26082
" />
<path d="M72252 26082
L73945 26082
" />
<path d="M75559 23917
L76052 23917
" />
<path d="M76052 23917
L76052 24409
" />
<path d="M64937 24031
L64937 26381
" />
<path d="M64937 26381
L60953 26381
" />
<path d="M60953 26381
L60953 24031
" />
<path d="M60953 24031
L64937 24031
" />
<path d="M63634 24035
L63634 24330
" />
<path d="M63634 24330
L62256 24330
" />
<path d="M62256 24330
L62256 24035
" />
<path d="M62256 24035
L63634 24035
" />
<path d="M64933 24035
L64933 24330
" />
<path d="M64933 24330
L64225 24330
" />
<path d="M64225 24330
L64225 24035
" />
<path d="M64225 24035
L64933 24035
" />
<path d="M61666 24035
L61666 24330
" />
<path d="M61666 24330
L60957 24330
" />
<path d="M60957 24330
L60957 24035
" />
<path d="M60957 24035
L61666 24035
" />
<path d="M64933 24921
L64638 24921
" />
<path d="M64638 24921
L64638 26082
" />
<path d="M64638 26082
L62945 26082
" />
<path d="M60957 24921
L61252 24921
" />
<path d="M61252 24921
L61252 26082
" />
<path d="M61252 26082
L62945 26082
" />
<path d="M64559 23917
L65052 23917
" />
<path d="M65052 23917
L65052 24409
" />
<path d="M70437 24031
L70437 26381
" />
<path d="M70437 26381
L66453 26381
" />
<path d="M66453 26381
L66453 24031
" />
<path d="M66453 24031
L70437 24031
" />
<path d="M69134 24035
L69134 24330
" />
<path d="M69134 24330
L67756 24330
" />
<path d="M67756 24330
L67756 24035
" />
<path d="M67756 24035
L69134 24035
" />
<path d="M70433 24035
L70433 24330
" />
<path d="M70433 24330
L69725 24330
" />
<path d="M69725 24330
L69725 24035
" />
<path d="M69725 24035
L70433 24035
" />
<path d="M67166 24035
L67166 24330
" />
<path d="M67166 24330
L66457 24330
" />
<path d="M66457 24330
L66457 24035
" />
<path d="M66457 24035
L67166 24035
" />
<path d="M70433 24921
L70138 24921
" />
<path d="M70138 24921
L70138 26082
" />
<path d="M70138 26082
L68445 26082
" />
<path d="M66457 24921
L66752 24921
" />
<path d="M66752 24921
L66752 26082
" />
<path d="M66752 26082
L68445 26082
" />
<path d="M70059 23917
L70552 23917
" />
<path d="M70552 23917
L70552 24409
" />
<path d="M81406 24031
L81406 26381
" />
<path d="M81406 26381
L77422 26381
" />
<path d="M77422 26381
L77422 24031
" />
<path d="M77422 24031
L81406 24031
" />
<path d="M80103 24035
L80103 24330
" />
<path d="M80103 24330
L78725 24330
" />
<path d="M78725 24330
L78725 24035
" />
<path d="M78725 24035
L80103 24035
" />
<path d="M81402 24035
L81402 24330
" />
<path d="M81402 24330
L80693 24330
" />
<path d="M80693 24330
L80693 24035
" />
<path d="M80693 24035
L81402 24035
" />
<path d="M78134 24035
L78134 24330
" />
<path d="M78134 24330
L77426 24330
" />
<path d="M77426 24330
L77426 24035
" />
<path d="M77426 24035
L78134 24035
" />
<path d="M81402 24921
L81107 24921
" />
<path d="M81107 24921
L81107 26082
" />
<path d="M81107 26082
L79414 26082
" />
<path d="M77426 24921
L77721 24921
" />
<path d="M77721 24921
L77721 26082
" />
<path d="M77721 26082
L79414 26082
" />
<path d="M81028 23917
L81520 23917
" />
<path d="M81520 23917
L81520 24409
" />
<path d="M54839 30287
L54969 30287
" />
<path d="M54969 30287
L54969 27712
" />
<path d="M54969 27712
L54839 27712
" />
<path d="M54020 30287
L53890 30287
" />
<path d="M53890 30287
L53890 27712
" />
<path d="M53890 27712
L54020 27712
" />
<path d="M59717 30590
L59717 30460
" />
<path d="M59717 30460
L57142 30460
" />
<path d="M57142 30460
L57142 30590
" />
<path d="M59717 31409
L59717 31539
" />
<path d="M59717 31539
L57142 31539
" />
<path d="M57142 31539
L57142 31409
" />
<path d="M62020 27712
L61890 27712
" />
<path d="M61890 27712
L61890 30287
" />
<path d="M61890 30287
L62020 30287
" />
<path d="M62839 27712
L62969 27712
" />
<path d="M62969 27712
L62969 30287
" />
<path d="M62969 30287
L62839 30287
" />
<path d="M60457 28090
L60457 27960
" />
<path d="M60457 27960
L57882 27960
" />
<path d="M57882 27960
L57882 28090
" />
<path d="M60457 28909
L60457 29039
" />
<path d="M60457 29039
L57882 29039
" />
<path d="M57882 29039
L57882 28909
" />
<path d="M70217 41590
L70217 41460
" />
<path d="M70217 41460
L67642 41460
" />
<path d="M67642 41460
L67642 41590
" />
<path d="M70217 42409
L70217 42539
" />
<path d="M70217 42539
L67642 42539
" />
<path d="M67642 42539
L67642 42409
" />
<path d="M70217 39590
L70217 39460
" />
<path d="M70217 39460
L67642 39460
" />
<path d="M67642 39460
L67642 39590
" />
<path d="M70217 40409
L70217 40539
" />
<path d="M70217 40539
L67642 40539
" />
<path d="M67642 40539
L67642 40409
" />
<path d="M70174 47590
L70174 47460
" />
<path d="M70174 47460
L67599 47460
" />
<path d="M67599 47460
L67599 47590
" />
<path d="M70174 48409
L70174 48539
" />
<path d="M70174 48539
L67599 48539
" />
<path d="M67599 48539
L67599 48409
" />
<path d="M70217 45590
L70217 45460
" />
<path d="M70217 45460
L67642 45460
" />
<path d="M67642 45460
L67642 45590
" />
<path d="M70217 46409
L70217 46539
" />
<path d="M70217 46539
L67642 46539
" />
<path d="M67642 46539
L67642 46409
" />
<path d="M66339 39787
L66469 39787
" />
<path d="M66469 39787
L66469 37212
" />
<path d="M66469 37212
L66339 37212
" />
<path d="M65520 39787
L65390 39787
" />
<path d="M65390 39787
L65390 37212
" />
<path d="M65390 37212
L65520 37212
" />
<path d="M73217 31090
L73217 30960
" />
<path d="M73217 30960
L70642 30960
" />
<path d="M70642 30960
L70642 31090
" />
<path d="M73217 31909
L73217 32039
" />
<path d="M73217 32039
L70642 32039
" />
<path d="M70642 32039
L70642 31909
" />
<path d="M73217 33090
L73217 32960
" />
<path d="M73217 32960
L70642 32960
" />
<path d="M70642 32960
L70642 33090
" />
<path d="M73217 33909
L73217 34039
" />
<path d="M73217 34039
L70642 34039
" />
<path d="M70642 34039
L70642 33909
" />
<path d="M78217 33090
L78217 32960
" />
<path d="M78217 32960
L75642 32960
" />
<path d="M75642 32960
L75642 33090
" />
<path d="M78217 33909
L78217 34039
" />
<path d="M78217 34039
L75642 34039
" />
<path d="M75642 34039
L75642 33909
" />
<path d="M81217 35590
L81217 35460
" />
<path d="M81217 35460
L78642 35460
" />
<path d="M78642 35460
L78642 35590
" />
<path d="M81217 36409
L81217 36539
" />
<path d="M81217 36539
L78642 36539
" />
<path d="M78642 36539
L78642 36409
" />
<path d="M77717 43090
L77717 42960
" />
<path d="M77717 42960
L75142 42960
" />
<path d="M75142 42960
L75142 43090
" />
<path d="M77717 43909
L77717 44039
" />
<path d="M77717 44039
L75142 44039
" />
<path d="M75142 44039
L75142 43909
" />
<path d="M67642 44409
L67642 44539
" />
<path d="M67642 44539
L70217 44539
" />
<path d="M70217 44539
L70217 44409
" />
<path d="M67642 43590
L67642 43460
" />
<path d="M67642 43460
L70217 43460
" />
<path d="M70217 43460
L70217 43590
" />
<path d="M78642 37909
L78642 38039
" />
<path d="M78642 38039
L81217 38039
" />
<path d="M81217 38039
L81217 37909
" />
<path d="M78642 37090
L78642 36960
" />
<path d="M78642 36960
L81217 36960
" />
<path d="M81217 36960
L81217 37090
" />
<path d="M81217 41090
L81217 40960
" />
<path d="M81217 40960
L78642 40960
" />
<path d="M78642 40960
L78642 41090
" />
<path d="M81217 41909
L81217 42039
" />
<path d="M81217 42039
L78642 42039
" />
<path d="M78642 42039
L78642 41909
" />
<path d="M78642 39909
L78642 40039
" />
<path d="M78642 40039
L81217 40039
" />
<path d="M81217 40039
L81217 39909
" />
<path d="M78642 39090
L78642 38960
" />
<path d="M78642 38960
L81217 38960
" />
<path d="M81217 38960
L81217 39090
" />
<path d="M85217 39090
L85217 38960
" />
<path d="M85217 38960
L82642 38960
" />
<path d="M82642 38960
L82642 39090
" />
<path d="M85217 39909
L85217 40039
" />
<path d="M85217 40039
L82642 40039
" />
<path d="M82642 40039
L82642 39909
" />
<path d="M85717 44090
L85717 43960
" />
<path d="M85717 43960
L83142 43960
" />
<path d="M83142 43960
L83142 44090
" />
<path d="M85717 44909
L85717 45039
" />
<path d="M85717 45039
L83142 45039
" />
<path d="M83142 45039
L83142 44909
" />
<path d="M82142 34909
L82142 35039
" />
<path d="M82142 35039
L84717 35039
" />
<path d="M84717 35039
L84717 34909
" />
<path d="M82142 34090
L82142 33960
" />
<path d="M82142 33960
L84717 33960
" />
<path d="M84717 33960
L84717 34090
" />
<path d="M82839 32787
L82969 32787
" />
<path d="M82969 32787
L82969 30212
" />
<path d="M82969 30212
L82839 30212
" />
<path d="M82020 32787
L81890 32787
" />
<path d="M81890 32787
L81890 30212
" />
<path d="M81890 30212
L82020 30212
" />
<path d="M86839 34787
L86969 34787
" />
<path d="M86969 34787
L86969 32212
" />
<path d="M86969 32212
L86839 32212
" />
<path d="M86020 34787
L85890 34787
" />
<path d="M85890 34787
L85890 32212
" />
<path d="M85890 32212
L86020 32212
" />
<path d="M79930 29976.4 A1023.62 1023.62 0.0 0 0 79206.2 31723.8" />
<path d="M80653.8 31723.8 A1023.62 1023.62 0.0 0 0 79930 29976.4" />
<path d="M80638 31728
L79221 31728
" />
<path d="M75930 34976.4 A1023.62 1023.62 0.0 0 0 75206.2 36723.8" />
<path d="M76653.8 36723.8 A1023.62 1023.62 0.0 0 0 75930 34976.4" />
<path d="M76638 36728
L75221 36728
" />
<path d="M75930 37976.4 A1023.62 1023.62 0.0 0 0 75206.2 39723.8" />
<path d="M76653.8 39723.8 A1023.62 1023.62 0.0 0 0 75930 37976.4" />
<path d="M76638 39728
L75221 39728
" />
<path d="M84930 40976.4 A1023.62 1023.62 0.0 0 0 84206.2 42723.8" />
<path d="M85653.8 42723.8 A1023.62 1023.62 0.0 0 0 84930 40976.4" />
<path d="M85638 42728
L84221 42728
" />
<path d="M82906.4 37000 A1023.62 1023.62 0.0 0 0 84653.8 37723.8" />
<path d="M84653.8 36276.2 A1023.62 1023.62 0.0 0 0 82906.4 37000" />
<path d="M84658 36291
L84658 37708
" />
<path d="M64878 30070
L65008 30070
" />
<path d="M65008 30070
L65008 27929
" />
<path d="M65008 27929
L64878 27929
" />
<path d="M63981 30070
L63851 30070
" />
<path d="M63851 30070
L63851 27929
" />
<path d="M63851 27929
L63981 27929
" />
<path d="M65008 29716
L63851 29716
" />
<path d="M65008 29669
L63851 29669
" />
<path d="M65008 29763
L63851 29763
" />
<path d="M74859 28948
L74859 29078
" />
<path d="M74859 29078
L77000 29078
" />
<path d="M77000 29078
L77000 28948
" />
<path d="M74859 28051
L74859 27921
" />
<path d="M74859 27921
L77000 27921
" />
<path d="M77000 27921
L77000 28051
" />
<path d="M75213 29078
L75213 27921
" />
<path d="M75260 29078
L75260 27921
" />
<path d="M75166 29078
L75166 27921
" />
<path d="M86878 30070
L87008 30070
" />
<path d="M87008 30070
L87008 27929
" />
<path d="M87008 27929
L86878 27929
" />
<path d="M85981 30070
L85851 30070
" />
<path d="M85851 30070
L85851 27929
" />
<path d="M85851 27929
L85981 27929
" />
<path d="M87008 29716
L85851 29716
" />
<path d="M87008 29669
L85851 29669
" />
<path d="M87008 29763
L85851 29763
" />
<circle cx="70437.9" cy="29000" r="1031.5" /> 
<path d="M70437 27984
L70437 30015
" />
<path d="M70422 27984
L70422 30015
" />
<path d="M70406 27984
L70406 30015
" />
<path d="M70390 27985
L70390 30014
" />
<path d="M70374 27985
L70374 30014
" />
<path d="M70359 27987
L70359 30012
" />
<path d="M70343 27988
L70343 28590
" />
<path d="M70343 29409
L70343 30011
" />
<path d="M70327 27990
L70327 28590
" />
<path d="M70327 29409
L70327 30009
" />
<path d="M70311 27991
L70311 28590
" />
<path d="M70311 29409
L70311 30008
" />
<path d="M70296 27993
L70296 28590
" />
<path d="M70296 29409
L70296 30006
" />
<path d="M70280 27996
L70280 28590
" />
<path d="M70280 29409
L70280 30003
" />
<path d="M70264 27998
L70264 28590
" />
<path d="M70264 29409
L70264 30001
" />
<path d="M70248 28001
L70248 28590
" />
<path d="M70248 29409
L70248 29998
" />
<path d="M70233 28004
L70233 28590
" />
<path d="M70233 29409
L70233 29995
" />
<path d="M70217 28007
L70217 28590
" />
<path d="M70217 29409
L70217 29992
" />
<path d="M70201 28011
L70201 28590
" />
<path d="M70201 29409
L70201 29988
" />
<path d="M70185 28015
L70185 28590
" />
<path d="M70185 29409
L70185 29984
" />
<path d="M70170 28019
L70170 28590
" />
<path d="M70170 29409
L70170 29980
" />
<path d="M70154 28023
L70154 28590
" />
<path d="M70154 29409
L70154 29976
" />
<path d="M70138 28028
L70138 28590
" />
<path d="M70138 29409
L70138 29971
" />
<path d="M70122 28033
L70122 28590
" />
<path d="M70122 29409
L70122 29966
" />
<path d="M70106 28038
L70106 28590
" />
<path d="M70106 29409
L70106 29961
" />
<path d="M70091 28044
L70091 28590
" />
<path d="M70091 29409
L70091 29955
" />
<path d="M70075 28049
L70075 28590
" />
<path d="M70075 29409
L70075 29950
" />
<path d="M70059 28055
L70059 28590
" />
<path d="M70059 29409
L70059 29944
" />
<path d="M70043 28062
L70043 28590
" />
<path d="M70043 29409
L70043 29937
" />
<path d="M70028 28068
L70028 28590
" />
<path d="M70028 29409
L70028 29931
" />
<path d="M70012 28075
L70012 28590
" />
<path d="M70012 29409
L70012 29924
" />
<path d="M69996 28083
L69996 28590
" />
<path d="M69996 29409
L69996 29916
" />
<path d="M69980 28090
L69980 28590
" />
<path d="M69980 29409
L69980 29909
" />
<path d="M69965 28098
L69965 28590
" />
<path d="M69965 29409
L69965 29901
" />
<path d="M69949 28107
L69949 28590
" />
<path d="M69949 29409
L69949 29892
" />
<path d="M69933 28115
L69933 28590
" />
<path d="M69933 29409
L69933 29884
" />
<path d="M69917 28124
L69917 28590
" />
<path d="M69917 29409
L69917 29875
" />
<path d="M69902 28133
L69902 28590
" />
<path d="M69902 29409
L69902 29866
" />
<path d="M69886 28143
L69886 28590
" />
<path d="M69886 29409
L69886 29856
" />
<path d="M69870 28153
L69870 28590
" />
<path d="M69870 29409
L69870 29846
" />
<path d="M69854 28164
L69854 28590
" />
<path d="M69854 29409
L69854 29835
" />
<path d="M69839 28175
L69839 28590
" />
<path d="M69839 29409
L69839 29824
" />
<path d="M69823 28187
L69823 28590
" />
<path d="M69823 29409
L69823 29812
" />
<path d="M69807 28198
L69807 28590
" />
<path d="M69807 29409
L69807 29801
" />
<path d="M69791 28211
L69791 28590
" />
<path d="M69791 29409
L69791 29788
" />
<path d="M69776 28224
L69776 28590
" />
<path d="M69776 29409
L69776 29775
" />
<path d="M69760 28237
L69760 28590
" />
<path d="M69760 29409
L69760 29762
" />
<path d="M69744 28251
L69744 28590
" />
<path d="M69744 29409
L69744 29748
" />
<path d="M69728 28266
L69728 28590
" />
<path d="M69728 29409
L69728 29733
" />
<path d="M69713 28281
L69713 28590
" />
<path d="M69713 29409
L69713 29718
" />
<path d="M69697 28297
L69697 28590
" />
<path d="M69697 29409
L69697 29702
" />
<path d="M69681 28313
L69681 28590
" />
<path d="M69681 29409
L69681 29686
" />
<path d="M69665 28331
L69665 28590
" />
<path d="M69665 29409
L69665 29668
" />
<path d="M69650 28349
L69650 28590
" />
<path d="M69650 29409
L69650 29650
" />
<path d="M69634 28368
L69634 28590
" />
<path d="M69634 29409
L69634 29631
" />
<path d="M69618 28388
L69618 28590
" />
<path d="M69618 29409
L69618 29611
" />
<path d="M69602 28409
L69602 28590
" />
<path d="M69602 29409
L69602 29590
" />
<path d="M69587 28431
L69587 28590
" />
<path d="M69587 29409
L69587 29568
" />
<path d="M69571 28455
L69571 28590
" />
<path d="M69571 29409
L69571 29544
" />
<path d="M69555 28480
L69555 28590
" />
<path d="M69555 29409
L69555 29519
" />
<path d="M69539 28507
L69539 28590
" />
<path d="M69539 29409
L69539 29492
" />
<path d="M69524 28536
L69524 29463
" />
<path d="M69508 28567
L69508 29432
" />
<path d="M69492 28601
L69492 29398
" />
<path d="M69476 28639
L69476 29360
" />
<path d="M69461 28683
L69461 29316
" />
<path d="M69445 28733
L69445 29266
" />
<path d="M69429 28796
L69429 29203
" />
<path d="M69413 28888
L69413 29111
" />
<path d="M71542 28419
L71345 28419
" />
<path d="M71443 28320
L71443 28517
" />
<path d="M61918 46460
L59973 46460
" />
<path d="M61918 47539
L59973 47539
" />
<path d="M61918 46460
L61918 46584
" />
<path d="M61918 47415
L61918 47539
" />
<path d="M59973 46460
L59973 46584
" />
<path d="M59973 47415
L59973 47539
" />
<path d="M66441 30539
L68386 30539
" />
<path d="M66441 29460
L68386 29460
" />
<path d="M66441 30539
L66441 30415
" />
<path d="M66441 29584
L66441 29460
" />
<path d="M68386 30539
L68386 30415
" />
<path d="M68386 29584
L68386 29460
" />
<path d="M66441 32539
L68386 32539
" />
<path d="M66441 31460
L68386 31460
" />
<path d="M66441 32539
L66441 32415
" />
<path d="M66441 31584
L66441 31460
" />
<path d="M68386 32539
L68386 32415
" />
<path d="M68386 31584
L68386 31460
" />
<path d="M68441 36539
L70386 36539
" />
<path d="M68441 35460
L70386 35460
" />
<path d="M68441 36539
L68441 36415
" />
<path d="M68441 35584
L68441 35460
" />
<path d="M70386 36539
L70386 36415
" />
<path d="M70386 35584
L70386 35460
" />
<path d="M70386 37460
L68441 37460
" />
<path d="M70386 38539
L68441 38539
" />
<path d="M70386 37460
L70386 37584
" />
<path d="M70386 38415
L70386 38539
" />
<path d="M68441 37460
L68441 37584
" />
<path d="M68441 38415
L68441 38539
" />
<path d="M77386 30960
L75441 30960
" />
<path d="M77386 32039
L75441 32039
" />
<path d="M77386 30960
L77386 31084
" />
<path d="M77386 31915
L77386 32039
" />
<path d="M75441 30960
L75441 31084
" />
<path d="M75441 31915
L75441 32039
" />
<path d="M76918 40960
L74973 40960
" />
<path d="M76918 42039
L74973 42039
" />
<path d="M76918 40960
L76918 41084
" />
<path d="M76918 41915
L76918 42039
" />
<path d="M74973 40960
L74973 41084
" />
<path d="M74973 41915
L74973 42039
" />
<path d="M79441 44039
L81386 44039
" />
<path d="M79441 42960
L81386 42960
" />
<path d="M79441 44039
L79441 43915
" />
<path d="M79441 43084
L79441 42960
" />
<path d="M81386 44039
L81386 43915
" />
<path d="M81386 43084
L81386 42960
" />
<path d="M83890 30011
L83890 31956
" />
<path d="M84969 30011
L84969 31956
" />
<path d="M83890 30011
L84014 30011
" />
<path d="M84845 30011
L84969 30011
" />
<path d="M83890 31956
L84014 31956
" />
<path d="M84845 31956
L84969 31956
" />
<path d="M59536 23917
L59536 24409
" />
<path d="M59044 23917
L59536 23917
" />
<path d="M56721 26082
L57922 26082
" />
<path d="M56721 24921
L56721 26082
" />
<path d="M56426 24921
L56721 24921
" />
<path d="M59122 26082
L57922 26082
" />
<path d="M59122 24921
L59122 26082
" />
<path d="M59418 24921
L59122 24921
" />
<path d="M56426 24035
L57134 24035
" />
<path d="M56426 24330
L56426 24035
" />
<path d="M57134 24330
L56426 24330
" />
<path d="M57134 24035
L57134 24330
" />
<path d="M58709 24035
L59418 24035
" />
<path d="M58709 24330
L58709 24035
" />
<path d="M59418 24330
L58709 24330
" />
<path d="M59418 24035
L59418 24330
" />
<path d="M57725 24035
L58118 24035
" />
<path d="M57725 24330
L57725 24035
" />
<path d="M58118 24330
L57725 24330
" />
<path d="M58118 24035
L58118 24330
" />
<path d="M56422 24031
L59422 24031
" />
<path d="M56422 26381
L56422 24031
" />
<path d="M59422 26381
L56422 26381
" />
<path d="M59422 24031
L59422 26381
" />
<g >
</g>
<g >
</g>
<g >
</g>
<g >
</g>
<g >
</g>
<g >
</g>
<g >
</g>
<g >
</g>
<g >
</g>
<g >
</g>
<g >
</g>
<g >
</g>
<g >
</g>
<g >
</g>
<g >
</g>
<g >
</g>
<g >
</g>
<g >
</g>
<g >
</g>
<g >
</g>
<g >
</g>
<g >
</g>
<g >
</g>
<g >
</g>
<g >
</g>
<g >
</g>
<g >
</g>
<g >
</g>
<g >
</g>
<g >
</g>
<g >
</g>
<g >
</g>
<g >
</g>
<g >
</g>
<g >
</g>
<g >
</g>
<g >
</g>
<g >
</g>
<g >
</g>
<g >
</g>
<g >
</g>
<g >
</g>
<g >
</g>
<g >
</g>
<g >
</g>
<g >
</g>
<g >
</g>
<g >
</g>
<g >
</g>
<g >
</g>
<g >
</g>
<g >
</g>
<g >
</g>
<g >
</g>
<g >
</g>
</g>
<g style="fill:#000000; fill-opacity:0.0; 
stroke:#000000; stroke-width:47.2441; stroke-opacity:1; 
stroke-linecap:round; stroke-linejoin:round;">
</g>
<g style="fill:#000000; fill-opacity:0.0; 
stroke:#000000; stroke-width:59.0551; stroke-opacity:1; 
stroke-linecap:round; stroke-linejoin:round;">
<text x="52437.9" y="29720.5"
textLength="1220.38" font-size="524.934" lengthAdjust="spacingAndGlyphs"
text-anchor="middle" opacity="0">C13</text>
<path d="M52690 29664
L52709 29682
L52765 29701
L52803 29701
L52859 29682
L52897 29645
L52915 29607
L52934 29532
L52934 29476
L52915 29401
L52897 29364
L52859 29326
L52803 29308
L52765 29308
L52709 29326
L52690 29345
" />
<path d="M52316 29701
L52540 29701
" />
<path d="M52428 29701
L52428 29308
L52465 29364
L52503 29401
L52540 29420
" />
<path d="M52184 29308
L51941 29308
L52072 29458
L52016 29458
L51978 29476
L51959 29495
L51941 29532
L51941 29626
L51959 29664
L51978 29682
L52016 29701
L52128 29701
L52166 29682
L52184 29664
" />
<text x="52437.9" y="45196.9"
textLength="1220.38" font-size="524.934" lengthAdjust="spacingAndGlyphs"
text-anchor="middle" opacity="0">C12</text>
<path d="M52690 45140
L52709 45159
L52765 45178
L52803 45178
L52859 45159
L52897 45121
L52915 45084
L52934 45009
L52934 44953
L52915 44878
L52897 44840
L52859 44803
L52803 44784
L52765 44784
L52709 44803
L52690 44821
" />
<path d="M52316 45178
L52540 45178
" />
<path d="M52428 45178
L52428 44784
L52465 44840
L52503 44878
L52540 44896
" />
<path d="M52166 44821
L52147 44803
L52109 44784
L52016 44784
L51978 44803
L51959 44821
L51941 44859
L51941 44896
L51959 44953
L52184 45178
L51941 45178
" />
<text x="60930" y="36696.9"
textLength="1220.38" font-size="524.934" lengthAdjust="spacingAndGlyphs"
text-anchor="middle" opacity="0">C11</text>
<path d="M61183 36640
L61201 36659
L61258 36678
L61295 36678
L61351 36659
L61389 36621
L61408 36584
L61426 36509
L61426 36453
L61408 36378
L61389 36340
L61351 36303
L61295 36284
L61258 36284
L61201 36303
L61183 36321
" />
<path d="M60808 36678
L61033 36678
" />
<path d="M60920 36678
L60920 36284
L60958 36340
L60995 36378
L61033 36396
" />
<path d="M60433 36678
L60658 36678
" />
<path d="M60545 36678
L60545 36284
L60583 36340
L60620 36378
L60658 36396
" />
<text x="52430" y="41796.9"
textLength="751.687" font-size="524.934" lengthAdjust="spacingAndGlyphs"
text-anchor="middle" opacity="0">J3</text>
<path d="M52561 41384
L52561 41665
L52579 41721
L52617 41759
L52673 41778
L52711 41778
" />
<path d="M52411 41384
L52167 41384
L52298 41534
L52242 41534
L52205 41553
L52186 41571
L52167 41609
L52167 41703
L52186 41740
L52205 41759
L52242 41778
L52355 41778
L52392 41759
L52411 41740
" />
<text x="53937.9" y="23799.2"
textLength="2007.78" font-size="524.934" lengthAdjust="spacingAndGlyphs"
text-anchor="middle" opacity="0">Output</text>
<path d="M54734 23386
L54659 23386
L54622 23405
L54584 23443
L54565 23517
L54565 23649
L54584 23724
L54622 23761
L54659 23780
L54734 23780
L54772 23761
L54809 23724
L54828 23649
L54828 23517
L54809 23443
L54772 23405
L54734 23386
" />
<path d="M54228 23517
L54228 23780
" />
<path d="M54397 23517
L54397 23724
L54378 23761
L54340 23780
L54284 23780
L54247 23761
L54228 23742
" />
<path d="M54097 23517
L53947 23517
" />
<path d="M54040 23386
L54040 23724
L54022 23761
L53984 23780
L53947 23780
" />
<path d="M53816 23517
L53816 23911
" />
<path d="M53816 23536
L53778 23517
L53703 23517
L53666 23536
L53647 23555
L53628 23592
L53628 23705
L53647 23742
L53666 23761
L53703 23780
L53778 23780
L53816 23761
" />
<path d="M53291 23517
L53291 23780
" />
<path d="M53459 23517
L53459 23724
L53441 23761
L53403 23780
L53347 23780
L53309 23761
L53291 23742
" />
<path d="M53159 23517
L53009 23517
" />
<path d="M53103 23386
L53103 23724
L53084 23761
L53047 23780
L53009 23780
" />
<text x="85922.1" y="23799.2"
textLength="2101.52" font-size="524.934" lengthAdjust="spacingAndGlyphs"
text-anchor="middle" opacity="0">Trigger</text>
<path d="M86897 23386
L86672 23386
" />
<path d="M86784 23780
L86784 23386
" />
<path d="M86540 23780
L86540 23517
" />
<path d="M86540 23592
L86522 23555
L86503 23536
L86465 23517
L86428 23517
" />
<path d="M86297 23780
L86297 23517
" />
<path d="M86297 23386
L86315 23405
L86297 23424
L86278 23405
L86297 23386
L86297 23424
" />
<path d="M85940 23517
L85940 23836
L85959 23874
L85978 23892
L86015 23911
L86072 23911
L86109 23892
" />
<path d="M85940 23761
L85978 23780
L86053 23780
L86090 23761
L86109 23742
L86128 23705
L86128 23592
L86109 23555
L86090 23536
L86053 23517
L85978 23517
L85940 23536
" />
<path d="M85584 23517
L85584 23836
L85603 23874
L85622 23892
L85659 23911
L85715 23911
L85753 23892
" />
<path d="M85584 23761
L85622 23780
L85697 23780
L85734 23761
L85753 23742
L85772 23705
L85772 23592
L85753 23555
L85734 23536
L85697 23517
L85622 23517
L85584 23536
" />
<path d="M85247 23761
L85284 23780
L85359 23780
L85397 23761
L85415 23724
L85415 23574
L85397 23536
L85359 23517
L85284 23517
L85247 23536
L85228 23574
L85228 23611
L85415 23649
" />
<path d="M85059 23780
L85059 23517
" />
<path d="M85059 23592
L85040 23555
L85022 23536
L84984 23517
L84947 23517
" />
<text x="60930" y="38779.5"
textLength="864.173" font-size="524.934" lengthAdjust="spacingAndGlyphs"
text-anchor="middle" opacity="0">U1</text>
<path d="M61229 38367
L61229 38685
L61211 38723
L61192 38742
L61154 38760
L61079 38760
L61042 38742
L61023 38723
L61004 38685
L61004 38367
" />
<path d="M60611 38760
L60836 38760
" />
<path d="M60723 38760
L60723 38367
L60761 38423
L60798 38460
L60836 38479
" />
<text x="73945.7" y="23799.2"
textLength="1801.56" font-size="524.934" lengthAdjust="spacingAndGlyphs"
text-anchor="middle" opacity="0">Decay</text>
<path d="M74714 23780
L74714 23386
L74620 23386
L74564 23405
L74526 23443
L74508 23480
L74489 23555
L74489 23611
L74508 23686
L74526 23724
L74564 23761
L74620 23780
L74714 23780
" />
<path d="M74170 23761
L74208 23780
L74283 23780
L74320 23761
L74339 23724
L74339 23574
L74320 23536
L74283 23517
L74208 23517
L74170 23536
L74151 23574
L74151 23611
L74339 23649
" />
<path d="M73814 23761
L73852 23780
L73927 23780
L73964 23761
L73983 23742
L74001 23705
L74001 23592
L73983 23555
L73964 23536
L73927 23517
L73852 23517
L73814 23536
" />
<path d="M73477 23780
L73477 23574
L73495 23536
L73533 23517
L73608 23517
L73645 23536
" />
<path d="M73477 23761
L73514 23780
L73608 23780
L73645 23761
L73664 23724
L73664 23686
L73645 23649
L73608 23630
L73514 23630
L73477 23611
" />
<path d="M73327 23517
L73233 23780
" />
<path d="M73139 23517
L73233 23780
L73270 23874
L73289 23892
L73327 23911
" />
<text x="62945.7" y="23799.2"
textLength="1576.58" font-size="524.934" lengthAdjust="spacingAndGlyphs"
text-anchor="middle" opacity="0">Level</text>
<path d="M63414 23780
L63601 23780
L63601 23386
" />
<path d="M63133 23761
L63170 23780
L63245 23780
L63283 23761
L63301 23724
L63301 23574
L63283 23536
L63245 23517
L63170 23517
L63133 23536
L63114 23574
L63114 23611
L63301 23649
" />
<path d="M62983 23517
L62889 23780
L62795 23517
" />
<path d="M62495 23761
L62533 23780
L62608 23780
L62645 23761
L62664 23724
L62664 23574
L62645 23536
L62608 23517
L62533 23517
L62495 23536
L62477 23574
L62477 23611
L62664 23649
" />
<path d="M62252 23780
L62289 23761
L62308 23724
L62308 23386
" />
<text x="68445.7" y="23799.2"
textLength="1426.6" font-size="524.934" lengthAdjust="spacingAndGlyphs"
text-anchor="middle" opacity="0">Tone</text>
<path d="M69083 23386
L68858 23386
" />
<path d="M68970 23780
L68970 23386
" />
<path d="M68670 23780
L68708 23761
L68726 23742
L68745 23705
L68745 23592
L68726 23555
L68708 23536
L68670 23517
L68614 23517
L68576 23536
L68558 23555
L68539 23592
L68539 23705
L68558 23742
L68576 23761
L68614 23780
L68670 23780
" />
<path d="M68370 23517
L68370 23780
" />
<path d="M68370 23555
L68352 23536
L68314 23517
L68258 23517
L68220 23536
L68202 23574
L68202 23780
" />
<path d="M67864 23761
L67902 23780
L67977 23780
L68014 23761
L68033 23724
L68033 23574
L68014 23536
L67977 23517
L67902 23517
L67864 23536
L67845 23574
L67845 23611
L68033 23649
" />
<text x="79414.3" y="23799.2"
textLength="1576.58" font-size="524.934" lengthAdjust="spacingAndGlyphs"
text-anchor="middle" opacity="0">Pitch</text>
<path d="M80070 23780
L80070 23386
L79920 23386
L79882 23405
L79864 23424
L79845 23461
L79845 23517
L79864 23555
L79882 23574
L79920 23592
L80070 23592
" />
<path d="M79676 23780
L79676 23517
" />
<path d="M79676 23386
L79695 23405
L79676 23424
L79657 23405
L79676 23386
L79676 23424
" />
<path d="M79545 23517
L79395 23517
" />
<path d="M79489 23386
L79489 23724
L79470 23761
L79433 23780
L79395 23780
" />
<path d="M79095 23761
L79133 23780
L79208 23780
L79245 23761
L79264 23742
L79283 23705
L79283 23592
L79264 23555
L79245 23536
L79208 23517
L79133 23517
L79095 23536
" />
<path d="M78926 23780
L78926 23386
" />
<path d="M78758 23780
L78758 23574
L78776 23536
L78814 23517
L78870 23517
L78908 23536
L78926 23555
" />
<g transform="rotate(-90 55363.1 29000)">
<text x="55363.1" y="29196.9"
textLength="1220.38" font-size="524.934" lengthAdjust="spacingAndGlyphs"
text-anchor="middle" opacity="0">R23</text>
</g>
<path d="M55184 29253
L55372 29384
" />
<path d="M55184 29478
L55578 29478
L55578 29328
L55559 29290
L55541 29271
L55503 29253
L55447 29253
L55409 29271
L55391 29290
L55372 29328
L55372 29478
" />
<path d="M55541 29103
L55559 29084
L55578 29046
L55578 28953
L55559 28915
L55541 28896
L55503 28878
L55466 28878
L55409 28896
L55184 29121
L55184 28878
" />
<path d="M55578 28746
L55578 28503
L55428 28634
L55428 28578
L55409 28540
L55391 28521
L55353 28503
L55259 28503
L55222 28521
L55203 28540
L55184 28578
L55184 28690
L55203 28728
L55222 28746
" />
<text x="58430" y="30263.8"
textLength="1220.38" font-size="524.934" lengthAdjust="spacingAndGlyphs"
text-anchor="middle" opacity="0">R22</text>
<path d="M58683 30245
L58814 30057
" />
<path d="M58908 30245
L58908 29851
L58758 29851
L58720 29870
L58701 29888
L58683 29926
L58683 29982
L58701 30020
L58720 30038
L58758 30057
L58908 30057
" />
<path d="M58533 29888
L58514 29870
L58476 29851
L58383 29851
L58345 29870
L58326 29888
L58308 29926
L58308 29963
L58326 30020
L58551 30245
L58308 30245
" />
<path d="M58158 29888
L58139 29870
L58101 29851
L58008 29851
L57970 29870
L57951 29888
L57933 29926
L57933 29963
L57951 30020
L58176 30245
L57933 30245
" />
<g transform="rotate(-90 61496.9 29000)">
<text x="61496.9" y="29196.9"
textLength="1220.38" font-size="524.934" lengthAdjust="spacingAndGlyphs"
text-anchor="middle" opacity="0">R21</text>
</g>
<path d="M61318 29253
L61506 29384
" />
<path d="M61318 29478
L61712 29478
L61712 29328
L61693 29290
L61675 29271
L61637 29253
L61581 29253
L61543 29271
L61525 29290
L61506 29328
L61506 29478
" />
<path d="M61675 29103
L61693 29084
L61712 29046
L61712 28953
L61693 28915
L61675 28896
L61637 28878
L61600 28878
L61543 28896
L61318 29121
L61318 28878
" />
<path d="M61318 28503
L61318 28728
" />
<path d="M61318 28615
L61712 28615
L61656 28653
L61618 28690
L61600 28728
" />
<text x="59170.2" y="27763.8"
textLength="1220.38" font-size="524.934" lengthAdjust="spacingAndGlyphs"
text-anchor="middle" opacity="0">R20</text>
<path d="M59423 27745
L59554 27557
" />
<path d="M59648 27745
L59648 27351
L59498 27351
L59460 27370
L59441 27388
L59423 27426
L59423 27482
L59441 27520
L59460 27538
L59498 27557
L59648 27557
" />
<path d="M59273 27388
L59254 27370
L59217 27351
L59123 27351
L59085 27370
L59067 27388
L59048 27426
L59048 27463
L59067 27520
L59292 27745
L59048 27745
" />
<path d="M58804 27351
L58767 27351
L58729 27370
L58710 27388
L58692 27426
L58673 27501
L58673 27595
L58692 27670
L58710 27707
L58729 27726
L58767 27745
L58804 27745
L58842 27726
L58860 27707
L58879 27670
L58898 27595
L58898 27501
L58879 27426
L58860 27388
L58842 27370
L58804 27351
" />
<text x="68930" y="41263.8"
textLength="1220.38" font-size="524.934" lengthAdjust="spacingAndGlyphs"
text-anchor="middle" opacity="0">R19</text>
<path d="M69183 41245
L69314 41057
" />
<path d="M69408 41245
L69408 40851
L69258 40851
L69220 40870
L69201 40888
L69183 40926
L69183 40982
L69201 41020
L69220 41038
L69258 41057
L69408 41057
" />
<path d="M68808 41245
L69033 41245
" />
<path d="M68920 41245
L68920 40851
L68958 40907
L68995 40945
L69033 40963
" />
<path d="M68620 41245
L68545 41245
L68508 41226
L68489 41207
L68451 41151
L68433 41076
L68433 40926
L68451 40888
L68470 40870
L68508 40851
L68583 40851
L68620 40870
L68639 40888
L68658 40926
L68658 41020
L68639 41057
L68620 41076
L68583 41095
L68508 41095
L68470 41076
L68451 41057
L68433 41020
" />
<text x="68930" y="39263.8"
textLength="1220.38" font-size="524.934" lengthAdjust="spacingAndGlyphs"
text-anchor="middle" opacity="0">R18</text>
<path d="M69183 39245
L69314 39057
" />
<path d="M69408 39245
L69408 38851
L69258 38851
L69220 38870
L69201 38888
L69183 38926
L69183 38982
L69201 39020
L69220 39038
L69258 39057
L69408 39057
" />
<path d="M68808 39245
L69033 39245
" />
<path d="M68920 39245
L68920 38851
L68958 38907
L68995 38945
L69033 38963
" />
<path d="M68583 39020
L68620 39001
L68639 38982
L68658 38945
L68658 38926
L68639 38888
L68620 38870
L68583 38851
L68508 38851
L68470 38870
L68451 38888
L68433 38926
L68433 38945
L68451 38982
L68470 39001
L68508 39020
L68583 39020
L68620 39038
L68639 39057
L68658 39095
L68658 39170
L68639 39207
L68620 39226
L68583 39245
L68508 39245
L68470 39226
L68451 39207
L68433 39170
L68433 39095
L68451 39057
L68470 39038
L68508 39020
" />
<text x="68886.7" y="47263.8"
textLength="1220.38" font-size="524.934" lengthAdjust="spacingAndGlyphs"
text-anchor="middle" opacity="0">R17</text>
<path d="M69139 47245
L69271 47057
" />
<path d="M69364 47245
L69364 46851
L69214 46851
L69177 46870
L69158 46888
L69139 46926
L69139 46982
L69158 47020
L69177 47038
L69214 47057
L69364 47057
" />
<path d="M68764 47245
L68989 47245
" />
<path d="M68877 47245
L68877 46851
L68914 46907
L68952 46945
L68989 46963
" />
<path d="M68633 46851
L68371 46851
L68539 47245
" />
<text x="68930" y="45263.8"
textLength="1220.38" font-size="524.934" lengthAdjust="spacingAndGlyphs"
text-anchor="middle" opacity="0">R16</text>
<path d="M69183 45245
L69314 45057
" />
<path d="M69408 45245
L69408 44851
L69258 44851
L69220 44870
L69201 44888
L69183 44926
L69183 44982
L69201 45020
L69220 45038
L69258 45057
L69408 45057
" />
<path d="M68808 45245
L69033 45245
" />
<path d="M68920 45245
L68920 44851
L68958 44907
L68995 44945
L69033 44963
" />
<path d="M68470 44851
L68545 44851
L68583 44870
L68601 44888
L68639 44945
L68658 45020
L68658 45170
L68639 45207
L68620 45226
L68583 45245
L68508 45245
L68470 45226
L68451 45207
L68433 45170
L68433 45076
L68451 45038
L68470 45020
L68508 45001
L68583 45001
L68620 45020
L68639 45038
L68658 45076
" />
<g transform="rotate(-90 66863.1 38500)">
<text x="66863.1" y="38696.9"
textLength="1220.38" font-size="524.934" lengthAdjust="spacingAndGlyphs"
text-anchor="middle" opacity="0">R15</text>
</g>
<path d="M66684 38753
L66872 38884
" />
<path d="M66684 38978
L67078 38978
L67078 38828
L67059 38790
L67041 38771
L67003 38753
L66947 38753
L66909 38771
L66891 38790
L66872 38828
L66872 38978
" />
<path d="M66684 38378
L66684 38603
" />
<path d="M66684 38490
L67078 38490
L67022 38528
L66984 38565
L66966 38603
" />
<path d="M67078 38021
L67078 38209
L66891 38228
L66909 38209
L66928 38171
L66928 38078
L66909 38040
L66891 38021
L66853 38003
L66759 38003
L66722 38021
L66703 38040
L66684 38078
L66684 38171
L66703 38209
L66722 38228
" />
<text x="71930" y="30763.8"
textLength="1220.38" font-size="524.934" lengthAdjust="spacingAndGlyphs"
text-anchor="middle" opacity="0">R14</text>
<path d="M72183 30745
L72314 30557
" />
<path d="M72408 30745
L72408 30351
L72258 30351
L72220 30370
L72201 30388
L72183 30426
L72183 30482
L72201 30520
L72220 30538
L72258 30557
L72408 30557
" />
<path d="M71808 30745
L72033 30745
" />
<path d="M71920 30745
L71920 30351
L71958 30407
L71995 30445
L72033 30463
" />
<path d="M71470 30482
L71470 30745
" />
<path d="M71564 30332
L71658 30613
L71414 30613
" />
<text x="71930" y="32763.8"
textLength="1220.38" font-size="524.934" lengthAdjust="spacingAndGlyphs"
text-anchor="middle" opacity="0">R13</text>
<path d="M72183 32745
L72314 32557
" />
<path d="M72408 32745
L72408 32351
L72258 32351
L72220 32370
L72201 32388
L72183 32426
L72183 32482
L72201 32520
L72220 32538
L72258 32557
L72408 32557
" />
<path d="M71808 32745
L72033 32745
" />
<path d="M71920 32745
L71920 32351
L71958 32407
L71995 32445
L72033 32463
" />
<path d="M71676 32351
L71433 32351
L71564 32501
L71508 32501
L71470 32520
L71451 32538
L71433 32576
L71433 32670
L71451 32707
L71470 32726
L71508 32745
L71620 32745
L71658 32726
L71676 32707
" />
<text x="76930" y="32763.8"
textLength="1220.38" font-size="524.934" lengthAdjust="spacingAndGlyphs"
text-anchor="middle" opacity="0">R12</text>
<path d="M77183 32745
L77314 32557
" />
<path d="M77408 32745
L77408 32351
L77258 32351
L77220 32370
L77201 32388
L77183 32426
L77183 32482
L77201 32520
L77220 32538
L77258 32557
L77408 32557
" />
<path d="M76808 32745
L77033 32745
" />
<path d="M76920 32745
L76920 32351
L76958 32407
L76995 32445
L77033 32463
" />
<path d="M76658 32388
L76639 32370
L76601 32351
L76508 32351
L76470 32370
L76451 32388
L76433 32426
L76433 32463
L76451 32520
L76676 32745
L76433 32745
" />
<text x="79930" y="35263.8"
textLength="1220.38" font-size="524.934" lengthAdjust="spacingAndGlyphs"
text-anchor="middle" opacity="0">R11</text>
<path d="M80183 35245
L80314 35057
" />
<path d="M80408 35245
L80408 34851
L80258 34851
L80220 34870
L80201 34888
L80183 34926
L80183 34982
L80201 35020
L80220 35038
L80258 35057
L80408 35057
" />
<path d="M79808 35245
L80033 35245
" />
<path d="M79920 35245
L79920 34851
L79958 34907
L79995 34945
L80033 34963
" />
<path d="M79433 35245
L79658 35245
" />
<path d="M79545 35245
L79545 34851
L79583 34907
L79620 34945
L79658 34963
" />
<text x="76430" y="42763.8"
textLength="1220.38" font-size="524.934" lengthAdjust="spacingAndGlyphs"
text-anchor="middle" opacity="0">R10</text>
<path d="M76683 42745
L76814 42557
" />
<path d="M76908 42745
L76908 42351
L76758 42351
L76720 42370
L76701 42388
L76683 42426
L76683 42482
L76701 42520
L76720 42538
L76758 42557
L76908 42557
" />
<path d="M76308 42745
L76533 42745
" />
<path d="M76420 42745
L76420 42351
L76458 42407
L76495 42445
L76533 42463
" />
<path d="M76064 42351
L76026 42351
L75989 42370
L75970 42388
L75951 42426
L75933 42501
L75933 42595
L75951 42670
L75970 42707
L75989 42726
L76026 42745
L76064 42745
L76101 42726
L76120 42707
L76139 42670
L76158 42595
L76158 42501
L76139 42426
L76120 42388
L76101 42370
L76064 42351
" />
<text x="68930" y="43196.9"
textLength="845.426" font-size="524.934" lengthAdjust="spacingAndGlyphs"
text-anchor="middle" opacity="0">R9</text>
<path d="M68995 43178
L69126 42990
" />
<path d="M69220 43178
L69220 42784
L69070 42784
L69033 42803
L69014 42821
L68995 42859
L68995 42915
L69014 42953
L69033 42971
L69070 42990
L69220 42990
" />
<path d="M68808 43178
L68733 43178
L68695 43159
L68676 43140
L68639 43084
L68620 43009
L68620 42859
L68639 42821
L68658 42803
L68695 42784
L68770 42784
L68808 42803
L68826 42821
L68845 42859
L68845 42953
L68826 42990
L68808 43009
L68770 43028
L68695 43028
L68658 43009
L68639 42990
L68620 42953
" />
<text x="79930" y="38629.9"
textLength="845.426" font-size="524.934" lengthAdjust="spacingAndGlyphs"
text-anchor="middle" opacity="0">R8</text>
<path d="M79995 38611
L80126 38423
" />
<path d="M80220 38611
L80220 38217
L80070 38217
L80033 38236
L80014 38254
L79995 38292
L79995 38348
L80014 38386
L80033 38404
L80070 38423
L80220 38423
" />
<path d="M79770 38386
L79808 38367
L79826 38348
L79845 38311
L79845 38292
L79826 38254
L79808 38236
L79770 38217
L79695 38217
L79658 38236
L79639 38254
L79620 38292
L79620 38311
L79639 38348
L79658 38367
L79695 38386
L79770 38386
L79808 38404
L79826 38423
L79845 38461
L79845 38536
L79826 38573
L79808 38592
L79770 38611
L79695 38611
L79658 38592
L79639 38573
L79620 38536
L79620 38461
L79639 38423
L79658 38404
L79695 38386
" />
<text x="79930" y="42696.9"
textLength="845.426" font-size="524.934" lengthAdjust="spacingAndGlyphs"
text-anchor="middle" opacity="0">R7</text>
<path d="M79995 42678
L80126 42490
" />
<path d="M80220 42678
L80220 42284
L80070 42284
L80033 42303
L80014 42321
L79995 42359
L79995 42415
L80014 42453
L80033 42471
L80070 42490
L80220 42490
" />
<path d="M79864 42284
L79601 42284
L79770 42678
" />
<text x="79930" y="40629.9"
textLength="845.426" font-size="524.934" lengthAdjust="spacingAndGlyphs"
text-anchor="middle" opacity="0">R6</text>
<path d="M79995 40611
L80126 40423
" />
<path d="M80220 40611
L80220 40217
L80070 40217
L80033 40236
L80014 40254
L79995 40292
L79995 40348
L80014 40386
L80033 40404
L80070 40423
L80220 40423
" />
<path d="M79658 40217
L79733 40217
L79770 40236
L79789 40254
L79826 40311
L79845 40386
L79845 40536
L79826 40573
L79808 40592
L79770 40611
L79695 40611
L79658 40592
L79639 40573
L79620 40536
L79620 40442
L79639 40404
L79658 40386
L79695 40367
L79770 40367
L79808 40386
L79826 40404
L79845 40442
" />
<text x="83930" y="38763.8"
textLength="845.426" font-size="524.934" lengthAdjust="spacingAndGlyphs"
text-anchor="middle" opacity="0">R5</text>
<path d="M83995 38745
L84126 38557
" />
<path d="M84220 38745
L84220 38351
L84070 38351
L84033 38370
L84014 38388
L83995 38426
L83995 38482
L84014 38520
L84033 38538
L84070 38557
L84220 38557
" />
<path d="M83639 38351
L83826 38351
L83845 38538
L83826 38520
L83789 38501
L83695 38501
L83658 38520
L83639 38538
L83620 38576
L83620 38670
L83639 38707
L83658 38726
L83695 38745
L83789 38745
L83826 38726
L83845 38707
" />
<text x="84430" y="43763.8"
textLength="845.426" font-size="524.934" lengthAdjust="spacingAndGlyphs"
text-anchor="middle" opacity="0">R4</text>
<path d="M84495 43745
L84626 43557
" />
<path d="M84720 43745
L84720 43351
L84570 43351
L84533 43370
L84514 43388
L84495 43426
L84495 43482
L84514 43520
L84533 43538
L84570 43557
L84720 43557
" />
<path d="M84158 43482
L84158 43745
" />
<path d="M84251 43332
L84345 43613
L84101 43613
" />
<text x="83430" y="35629.9"
textLength="845.426" font-size="524.934" lengthAdjust="spacingAndGlyphs"
text-anchor="middle" opacity="0">R3</text>
<path d="M83495 35611
L83626 35423
" />
<path d="M83720 35611
L83720 35217
L83570 35217
L83533 35236
L83514 35254
L83495 35292
L83495 35348
L83514 35386
L83533 35404
L83570 35423
L83720 35423
" />
<path d="M83364 35217
L83120 35217
L83251 35367
L83195 35367
L83158 35386
L83139 35404
L83120 35442
L83120 35536
L83139 35573
L83158 35592
L83195 35611
L83308 35611
L83345 35592
L83364 35573
" />
<g transform="rotate(-90 83363.1 31500)">
<text x="83363.1" y="31696.9"
textLength="845.426" font-size="524.934" lengthAdjust="spacingAndGlyphs"
text-anchor="middle" opacity="0">R2</text>
</g>
<path d="M83184 31565
L83372 31696
" />
<path d="M83184 31790
L83578 31790
L83578 31640
L83559 31603
L83541 31584
L83503 31565
L83447 31565
L83409 31584
L83391 31603
L83372 31640
L83372 31790
" />
<path d="M83541 31415
L83559 31396
L83578 31359
L83578 31265
L83559 31228
L83541 31209
L83503 31190
L83466 31190
L83409 31209
L83184 31434
L83184 31190
" />
<g transform="rotate(-90 87363.1 33500)">
<text x="87363.1" y="33696.9"
textLength="845.426" font-size="524.934" lengthAdjust="spacingAndGlyphs"
text-anchor="middle" opacity="0">R1</text>
</g>
<path d="M87184 33565
L87372 33696
" />
<path d="M87184 33790
L87578 33790
L87578 33640
L87559 33603
L87541 33584
L87503 33565
L87447 33565
L87409 33584
L87391 33603
L87372 33640
L87372 33790
" />
<path d="M87184 33190
L87184 33415
" />
<path d="M87184 33303
L87578 33303
L87522 33340
L87484 33378
L87466 33415
" />
<text x="79930" y="29795.3"
textLength="864.173" font-size="524.934" lengthAdjust="spacingAndGlyphs"
text-anchor="middle" opacity="0">Q5</text>
<path d="M79967 29814
L80004 29795
L80042 29757
L80098 29701
L80136 29682
L80173 29682
" />
<path d="M80154 29776
L80192 29757
L80229 29720
L80248 29645
L80248 29514
L80229 29439
L80192 29401
L80154 29382
L80079 29382
L80042 29401
L80004 29439
L79986 29514
L79986 29645
L80004 29720
L80042 29757
L80079 29776
L80154 29776
" />
<path d="M79630 29382
L79817 29382
L79836 29570
L79817 29551
L79780 29532
L79686 29532
L79648 29551
L79630 29570
L79611 29607
L79611 29701
L79630 29739
L79648 29757
L79686 29776
L79780 29776
L79817 29757
L79836 29739
" />
<text x="75930" y="34795.3"
textLength="864.173" font-size="524.934" lengthAdjust="spacingAndGlyphs"
text-anchor="middle" opacity="0">Q4</text>
<path d="M75967 34814
L76004 34795
L76042 34757
L76098 34701
L76136 34682
L76173 34682
" />
<path d="M76154 34776
L76192 34757
L76229 34720
L76248 34645
L76248 34514
L76229 34439
L76192 34401
L76154 34382
L76079 34382
L76042 34401
L76004 34439
L75986 34514
L75986 34645
L76004 34720
L76042 34757
L76079 34776
L76154 34776
" />
<path d="M75648 34514
L75648 34776
" />
<path d="M75742 34364
L75836 34645
L75592 34645
" />
<text x="75930" y="37795.3"
textLength="864.173" font-size="524.934" lengthAdjust="spacingAndGlyphs"
text-anchor="middle" opacity="0">Q3</text>
<path d="M75967 37814
L76004 37795
L76042 37757
L76098 37701
L76136 37682
L76173 37682
" />
<path d="M76154 37776
L76192 37757
L76229 37720
L76248 37645
L76248 37514
L76229 37439
L76192 37401
L76154 37382
L76079 37382
L76042 37401
L76004 37439
L75986 37514
L75986 37645
L76004 37720
L76042 37757
L76079 37776
L76154 37776
" />
<path d="M75855 37382
L75611 37382
L75742 37532
L75686 37532
L75648 37551
L75630 37570
L75611 37607
L75611 37701
L75630 37739
L75648 37757
L75686 37776
L75798 37776
L75836 37757
L75855 37739
" />
<text x="84930" y="40795.3"
textLength="864.173" font-size="524.934" lengthAdjust="spacingAndGlyphs"
text-anchor="middle" opacity="0">Q2</text>
<path d="M84967 40814
L85004 40795
L85042 40757
L85098 40701
L85136 40682
L85173 40682
" />
<path d="M85154 40776
L85192 40757
L85229 40720
L85248 40645
L85248 40514
L85229 40439
L85192 40401
L85154 40382
L85079 40382
L85042 40401
L85004 40439
L84986 40514
L84986 40645
L85004 40720
L85042 40757
L85079 40776
L85154 40776
" />
<path d="M84836 40420
L84817 40401
L84780 40382
L84686 40382
L84648 40401
L84630 40420
L84611 40457
L84611 40495
L84630 40551
L84855 40776
L84611 40776
" />
<g transform="rotate(-90 82528.4 37000)">
<text x="82528.4" y="37196.9"
textLength="864.173" font-size="524.934" lengthAdjust="spacingAndGlyphs"
text-anchor="middle" opacity="0">Q1</text>
</g>
<path d="M82312 37037
L82331 37074
L82369 37112
L82425 37168
L82444 37206
L82444 37243
" />
<path d="M82350 37224
L82369 37262
L82406 37299
L82481 37318
L82612 37318
L82687 37299
L82725 37262
L82744 37224
L82744 37149
L82725 37112
L82687 37074
L82612 37056
L82481 37056
L82406 37074
L82369 37112
L82350 37149
L82350 37224
" />
<path d="M82350 36681
L82350 36906
" />
<path d="M82350 36793
L82744 36793
L82687 36831
L82650 36868
L82631 36906
" />
<g transform="rotate(-90 65402.4 29000)">
<text x="65402.4" y="29196.9"
textLength="845.426" font-size="524.934" lengthAdjust="spacingAndGlyphs"
text-anchor="middle" opacity="0">D3</text>
</g>
<path d="M65224 29290
L65618 29290
L65618 29196
L65599 29140
L65561 29103
L65524 29084
L65449 29065
L65393 29065
L65318 29084
L65280 29103
L65243 29140
L65224 29196
L65224 29290
" />
<path d="M65618 28934
L65618 28690
L65468 28821
L65468 28765
L65449 28728
L65430 28709
L65393 28690
L65299 28690
L65261 28709
L65243 28728
L65224 28765
L65224 28878
L65243 28915
L65261 28934
" />
<g transform="rotate(-90 65178 30500)">
<text x="65178" y="30696.9"
textLength="470.472" font-size="524.934" lengthAdjust="spacingAndGlyphs"
text-anchor="middle" opacity="0">K</text>
</g>
<path d="M64999 30603
L65393 30603
" />
<path d="M64999 30378
L65224 30546
" />
<path d="M65393 30378
L65168 30603
" />
<text x="75930" y="29669.3"
textLength="845.426" font-size="524.934" lengthAdjust="spacingAndGlyphs"
text-anchor="middle" opacity="0">D2</text>
<path d="M76220 29650
L76220 29256
L76126 29256
L76070 29275
L76033 29313
L76014 29350
L75995 29425
L75995 29481
L76014 29556
L76033 29594
L76070 29631
L76126 29650
L76220 29650
" />
<path d="M75845 29294
L75826 29275
L75789 29256
L75695 29256
L75658 29275
L75639 29294
L75620 29331
L75620 29369
L75639 29425
L75864 29650
L75620 29650
" />
<text x="74430" y="29444.9"
textLength="470.472" font-size="524.934" lengthAdjust="spacingAndGlyphs"
text-anchor="middle" opacity="0">K</text>
<path d="M74533 29426
L74533 29032
" />
<path d="M74308 29426
L74476 29201
" />
<path d="M74308 29032
L74533 29257
" />
<g transform="rotate(-90 87402.4 29000)">
<text x="87402.4" y="29196.9"
textLength="845.426" font-size="524.934" lengthAdjust="spacingAndGlyphs"
text-anchor="middle" opacity="0">D1</text>
</g>
<path d="M87224 29290
L87618 29290
L87618 29196
L87599 29140
L87561 29103
L87524 29084
L87449 29065
L87393 29065
L87318 29084
L87280 29103
L87243 29140
L87224 29196
L87224 29290
" />
<path d="M87224 28690
L87224 28915
" />
<path d="M87224 28803
L87618 28803
L87561 28840
L87524 28878
L87505 28915
" />
<g transform="rotate(-90 87178 30500)">
<text x="87178" y="30696.9"
textLength="470.472" font-size="524.934" lengthAdjust="spacingAndGlyphs"
text-anchor="middle" opacity="0">K</text>
</g>
<path d="M86999 30603
L87393 30603
" />
<path d="M86999 30378
L87224 30546
" />
<path d="M87393 30378
L87168 30603
" />
<text x="70437.9" y="27720.5"
textLength="1220.38" font-size="524.934" lengthAdjust="spacingAndGlyphs"
text-anchor="middle" opacity="0">C10</text>
<path d="M70690 27664
L70709 27682
L70765 27701
L70803 27701
L70859 27682
L70897 27645
L70915 27607
L70934 27532
L70934 27476
L70915 27401
L70897 27364
L70859 27326
L70803 27308
L70765 27308
L70709 27326
L70690 27345
" />
<path d="M70316 27701
L70540 27701
" />
<path d="M70428 27701
L70428 27308
L70465 27364
L70503 27401
L70540 27420
" />
<path d="M70072 27308
L70034 27308
L69997 27326
L69978 27345
L69959 27383
L69941 27458
L69941 27551
L69959 27626
L69978 27664
L69997 27682
L70034 27701
L70072 27701
L70109 27682
L70128 27664
L70147 27626
L70166 27551
L70166 27458
L70147 27383
L70128 27345
L70109 27326
L70072 27308
" />
<text x="60945.7" y="48196.9"
textLength="845.426" font-size="524.934" lengthAdjust="spacingAndGlyphs"
text-anchor="middle" opacity="0">C9</text>
<path d="M61011 48140
L61030 48159
L61086 48178
L61123 48178
L61180 48159
L61217 48121
L61236 48084
L61255 48009
L61255 47953
L61236 47878
L61217 47840
L61180 47803
L61123 47784
L61086 47784
L61030 47803
L61011 47821
" />
<path d="M60823 48178
L60748 48178
L60711 48159
L60692 48140
L60655 48084
L60636 48009
L60636 47859
L60655 47821
L60673 47803
L60711 47784
L60786 47784
L60823 47803
L60842 47821
L60861 47859
L60861 47953
L60842 47990
L60823 48009
L60786 48028
L60711 48028
L60673 48009
L60655 47990
L60636 47953
" />
<text x="67414.3" y="31181.1"
textLength="845.426" font-size="524.934" lengthAdjust="spacingAndGlyphs"
text-anchor="middle" opacity="0">C8</text>
<path d="M67479 31124
L67498 31143
L67554 31162
L67592 31162
L67648 31143
L67686 31106
L67704 31068
L67723 30993
L67723 30937
L67704 30862
L67686 30824
L67648 30787
L67592 30768
L67554 30768
L67498 30787
L67479 30806
" />
<path d="M67254 30937
L67292 30918
L67311 30899
L67329 30862
L67329 30843
L67311 30806
L67292 30787
L67254 30768
L67179 30768
L67142 30787
L67123 30806
L67104 30843
L67104 30862
L67123 30899
L67142 30918
L67179 30937
L67254 30937
L67292 30956
L67311 30974
L67329 31012
L67329 31087
L67311 31124
L67292 31143
L67254 31162
L67179 31162
L67142 31143
L67123 31124
L67104 31087
L67104 31012
L67123 30974
L67142 30956
L67179 30937
" />
<text x="67414.3" y="33181.1"
textLength="845.426" font-size="524.934" lengthAdjust="spacingAndGlyphs"
text-anchor="middle" opacity="0">C7</text>
<path d="M67479 33124
L67498 33143
L67554 33162
L67592 33162
L67648 33143
L67686 33106
L67704 33068
L67723 32993
L67723 32937
L67704 32862
L67686 32824
L67648 32787
L67592 32768
L67554 32768
L67498 32787
L67479 32806
" />
<path d="M67348 32768
L67086 32768
L67254 33162
" />
<text x="69430" y="35196.9"
textLength="845.426" font-size="524.934" lengthAdjust="spacingAndGlyphs"
text-anchor="middle" opacity="0">C6</text>
<path d="M69495 35140
L69514 35159
L69570 35178
L69608 35178
L69664 35159
L69701 35121
L69720 35084
L69739 35009
L69739 34953
L69720 34878
L69701 34840
L69664 34803
L69608 34784
L69570 34784
L69514 34803
L69495 34821
" />
<path d="M69158 34784
L69233 34784
L69270 34803
L69289 34821
L69326 34878
L69345 34953
L69345 35103
L69326 35140
L69308 35159
L69270 35178
L69195 35178
L69158 35159
L69139 35140
L69120 35103
L69120 35009
L69139 34971
L69158 34953
L69195 34934
L69270 34934
L69308 34953
L69326 34971
L69345 35009
" />
<text x="69414.3" y="37212.6"
textLength="845.426" font-size="524.934" lengthAdjust="spacingAndGlyphs"
text-anchor="middle" opacity="0">C5</text>
<path d="M69479 37156
L69498 37175
L69554 37193
L69592 37193
L69648 37175
L69686 37137
L69704 37100
L69723 37025
L69723 36968
L69704 36893
L69686 36856
L69648 36818
L69592 36800
L69554 36800
L69498 36818
L69479 36837
" />
<path d="M69123 36800
L69311 36800
L69329 36987
L69311 36968
L69273 36950
L69179 36950
L69142 36968
L69123 36987
L69104 37025
L69104 37118
L69123 37156
L69142 37175
L69179 37193
L69273 37193
L69311 37175
L69329 37156
" />
<text x="76414.3" y="30712.6"
textLength="845.426" font-size="524.934" lengthAdjust="spacingAndGlyphs"
text-anchor="middle" opacity="0">C4</text>
<path d="M76479 30656
L76498 30675
L76554 30693
L76592 30693
L76648 30675
L76686 30637
L76704 30600
L76723 30525
L76723 30468
L76704 30393
L76686 30356
L76648 30318
L76592 30300
L76554 30300
L76498 30318
L76479 30337
" />
<path d="M76142 30431
L76142 30693
" />
<path d="M76236 30281
L76329 30562
L76086 30562
" />
<text x="75945.7" y="40712.6"
textLength="845.426" font-size="524.934" lengthAdjust="spacingAndGlyphs"
text-anchor="middle" opacity="0">C3</text>
<path d="M76011 40656
L76030 40675
L76086 40693
L76123 40693
L76180 40675
L76217 40637
L76236 40600
L76255 40525
L76255 40468
L76236 40393
L76217 40356
L76180 40318
L76123 40300
L76086 40300
L76030 40318
L76011 40337
" />
<path d="M75880 40300
L75636 40300
L75767 40450
L75711 40450
L75673 40468
L75655 40487
L75636 40525
L75636 40618
L75655 40656
L75673 40675
L75711 40693
L75823 40693
L75861 40675
L75880 40656
" />
<text x="80414.3" y="44681.1"
textLength="845.426" font-size="524.934" lengthAdjust="spacingAndGlyphs"
text-anchor="middle" opacity="0">C2</text>
<path d="M80479 44624
L80498 44643
L80554 44662
L80592 44662
L80648 44643
L80686 44606
L80704 44568
L80723 44493
L80723 44437
L80704 44362
L80686 44324
L80648 44287
L80592 44268
L80554 44268
L80498 44287
L80479 44306
" />
<path d="M80329 44306
L80311 44287
L80273 44268
L80179 44268
L80142 44287
L80123 44306
L80104 44343
L80104 44381
L80123 44437
L80348 44662
L80104 44662
" />
<g transform="rotate(-90 85430 31000)">
<text x="85430" y="31196.9"
textLength="845.426" font-size="524.934" lengthAdjust="spacingAndGlyphs"
text-anchor="middle" opacity="0">C1</text>
</g>
<path d="M85289 31065
L85270 31084
L85251 31140
L85251 31178
L85270 31234
L85308 31271
L85345 31290
L85420 31309
L85476 31309
L85551 31290
L85589 31271
L85626 31234
L85645 31178
L85645 31140
L85626 31084
L85608 31065
" />
<path d="M85251 30690
L85251 30915
" />
<path d="M85251 30803
L85645 30803
L85589 30840
L85551 30878
L85533 30915
" />
<text x="57922.1" y="23799.2"
textLength="2157.76" font-size="524.934" lengthAdjust="spacingAndGlyphs"
text-anchor="middle" opacity="0">Clipper</text>
<path d="M58643 23742
L58662 23761
L58718 23780
L58756 23780
L58812 23761
L58850 23724
L58868 23686
L58887 23611
L58887 23555
L58868 23480
L58850 23443
L58812 23405
L58756 23386
L58718 23386
L58662 23405
L58643 23424
" />
<path d="M58418 23780
L58456 23761
L58475 23724
L58475 23386
" />
<path d="M58268 23780
L58268 23517
" />
<path d="M58268 23386
L58287 23405
L58268 23424
L58250 23405
L58268 23386
L58268 23424
" />
<path d="M58081 23517
L58081 23911
" />
<path d="M58081 23536
L58043 23517
L57968 23517
L57931 23536
L57912 23555
L57894 23592
L57894 23705
L57912 23742
L57931 23761
L57968 23780
L58043 23780
L58081 23761
" />
<path d="M57725 23517
L57725 23911
" />
<path d="M57725 23536
L57687 23517
L57612 23517
L57575 23536
L57556 23555
L57537 23592
L57537 23705
L57556 23742
L57575 23761
L57612 23780
L57687 23780
L57725 23761
" />
<path d="M57219 23761
L57256 23780
L57331 23780
L57369 23761
L57387 23724
L57387 23574
L57369 23536
L57331 23517
L57256 23517
L57219 23536
L57200 23574
L57200 23611
L57387 23649
" />
<path d="M57031 23780
L57031 23517
" />
<path d="M57031 23592
L57012 23555
L56994 23536
L56956 23517
L56919 23517
" />
<g >
</g>
</g> 
</svg>
